  0
SECTION
  2
HEADER
  9
$ACADVER
  1
AC1015
  9
$ACADMAINTVER
 70
     6
  9
$DWGCODEPAGE
  3
ANSI_1252
  9
$INSBASE
 10
0.0
 20
0.0
 30
0.0
  9
$EXTMIN
 10
0.0
 20
0.0
 30
0.0
  9
$EXTMAX
 10
594.0
 20
420.0
 30
0.0
  9
$LIMMIN
 10
0.0
 20
0.0
  9
$LIMMAX
 10
594.0
 20
420.0
  9
$ORTHOMODE
 70
     0
  9
$REGENMODE
 70
     1
  9
$FILLMODE
 70
     1
  9
$QTEXTMODE
 70
     0
  9
$MIRRTEXT
 70
     1
  9
$LTSCALE
 40
1.0
  9
$ATTMODE
 70
     1
  9
$TEXTSIZE
 40
3.5
  9
$TRACEWID
 40
1.0
  9
$TEXTSTYLE
  7
Standard
  9
$CLAYER
  8
0
  9
$CELTYPE
  6
ByLayer
  9
$CECOLOR
 62
   256
  9
$CELTSCALE
 40
1.0
  9
$DISPSILH
 70
     0
  9
$DIMSCALE
 40
1.0
  9
$DIMASZ
 40
3.302
  9
$DIMEXO
 40
1.0
  9
$DIMDLI
 40
3.75
  9
$DIMRND
 40
0.0
  9
$DIMDLE
 40
0.0
  9
$DIMEXE
 40
1.0
  9
$DIMTP
 40
0.0
  9
$DIMTM
 40
0.0
  9
$DIMTXT
 40
3.5
  9
$DIMCEN
 40
2.5
  9
$DIMTSZ
 40
0.0
  9
$DIMTOL
 70
     0
  9
$DIMLIM
 70
     0
  9
$DIMTIH
 70
     1
  9
$DIMTOH
 70
     1
  9
$DIMSE1
 70
     0
  9
$DIMSE2
 70
     0
  9
$DIMTAD
 70
     1
  9
$DIMZIN
 70
     0
  9
$DIMBLK
  1

  9
$DIMASO
 70
     1
  9
$DIMSHO
 70
     1
  9
$DIMPOST
  1

  9
$DIMAPOST
  1

  9
$DIMALT
 70
     0
  9
$DIMALTD
 70
     3
  9
$DIMALTF
 40
0.0393700787
  9
$DIMLFAC
 40
0.1
  9
$DIMTOFL
 70
     1
  9
$DIMTVP
 40
0.0
  9
$DIMTIX
 70
     0
  9
$DIMSOXD
 70
     0
  9
$DIMSAH
 70
     0
  9
$DIMBLK1
  1

  9
$DIMBLK2
  1

  9
$DIMSTYLE
  2
ISO-25
  9
$DIMCLRD
 70
     0
  9
$DIMCLRE
 70
     0
  9
$DIMCLRT
 70
     0
  9
$DIMTFAC
 40
1.0
  9
$DIMGAP
 40
1.524
  9
$DIMJUST
 70
     0
  9
$DIMSD1
 70
     0
  9
$DIMSD2
 70
     0
  9
$DIMTOLJ
 70
     0
  9
$DIMTZIN
 70
     0
  9
$DIMALTZ
 70
     0
  9
$DIMALTTZ
 70
     0
  9
$DIMUPT
 70
     0
  9
$DIMDEC
 70
     2
  9
$DIMTDEC
 70
     2
  9
$DIMALTU
 70
     2
  9
$DIMALTTD
 70
     3
  9
$DIMTXSTY
  7
Standard
  9
$DIMAUNIT
 70
     0
  9
$DIMADEC
 70
     2
  9
$DIMALTRND
 40
0.0
  9
$DIMAZIN
 70
     0
  9
$DIMDSEP
 70
    44
  9
$DIMATFIT
 70
     3
  9
$DIMFRAC
 70
     0
  9
$DIMLDRBLK
  1

  9
$DIMLUNIT
 70
     2
  9
$DIMLWD
 70
    -2
  9
$DIMLWE
 70
    -2
  9
$DIMTMOVE
 70
     0
  9
$LUNITS
 70
     2
  9
$LUPREC
 70
     2
  9
$SKETCHINC
 40
1.0
  9
$FILLETRAD
 40
10.0
  9
$AUNITS
 70
     0
  9
$AUPREC
 70
     2
  9
$MENU
  1
.
  9
$ELEVATION
 40
0.0
  9
$PELEVATION
 40
0.0
  9
$THICKNESS
 40
0.0
  9
$LIMCHECK
 70
     0
  9
$CHAMFERA
 40
0.0
  9
$CHAMFERB
 40
0.0
  9
$CHAMFERC
 40
0.0
  9
$CHAMFERD
 40
0.0
  9
$SKPOLY
 70
     0
  9
$TDCREATE
 40
2457335.426984167
  9
$TDUCREATE
 40
2457335.1978175
  9
$TDUPDATE
 40
2457335.426992847
  9
$TDUUPDATE
 40
2457335.197826181
  9
$TDINDWG
 40
0.0000000116
  9
$TDUSRTIMER
 40
0.0000000116
  9
$USRTIMER
 70
     1
  9
$ANGBASE
 50
0.0
  9
$ANGDIR
 70
     0
  9
$PDMODE
 70
     0
  9
$PDSIZE
 40
-1.0
  9
$PLINEWID
 40
0.0
  9
$SPLFRAME
 70
     0
  9
$SPLINETYPE
 70
     6
  9
$SPLINESEGS
 70
     8
  9
$HANDSEED
  5
413
  9
$SURFTAB1
 70
     6
  9
$SURFTAB2
 70
     6
  9
$SURFTYPE
 70
     6
  9
$SURFU
 70
     6
  9
$SURFV
 70
     6
  9
$UCSBASE
  2

  9
$UCSNAME
  2

  9
$UCSORG
 10
0.0
 20
0.0
 30
0.0
  9
$UCSXDIR
 10
1.0
 20
0.0
 30
0.0
  9
$UCSYDIR
 10
0.0
 20
1.0
 30
0.0
  9
$UCSORTHOREF
  2

  9
$UCSORTHOVIEW
 70
     0
  9
$UCSORGTOP
 10
0.0
 20
0.0
 30
0.0
  9
$UCSORGBOTTOM
 10
0.0
 20
0.0
 30
0.0
  9
$UCSORGLEFT
 10
0.0
 20
0.0
 30
0.0
  9
$UCSORGRIGHT
 10
0.0
 20
0.0
 30
0.0
  9
$UCSORGFRONT
 10
0.0
 20
0.0
 30
0.0
  9
$UCSORGBACK
 10
0.0
 20
0.0
 30
0.0
  9
$PUCSBASE
  2

  9
$PUCSNAME
  2

  9
$PUCSORG
 10
0.0
 20
0.0
 30
0.0
  9
$PUCSXDIR
 10
1.0
 20
0.0
 30
0.0
  9
$PUCSYDIR
 10
0.0
 20
1.0
 30
0.0
  9
$PUCSORTHOREF
  2

  9
$PUCSORTHOVIEW
 70
     0
  9
$PUCSORGTOP
 10
0.0
 20
0.0
 30
0.0
  9
$PUCSORGBOTTOM
 10
0.0
 20
0.0
 30
0.0
  9
$PUCSORGLEFT
 10
0.0
 20
0.0
 30
0.0
  9
$PUCSORGRIGHT
 10
0.0
 20
0.0
 30
0.0
  9
$PUCSORGFRONT
 10
0.0
 20
0.0
 30
0.0
  9
$PUCSORGBACK
 10
0.0
 20
0.0
 30
0.0
  9
$USERI1
 70
     0
  9
$USERI2
 70
     0
  9
$USERI3
 70
     0
  9
$USERI4
 70
     0
  9
$USERI5
 70
     0
  9
$USERR1
 40
0.0
  9
$USERR2
 40
0.0
  9
$USERR3
 40
0.0
  9
$USERR4
 40
0.0
  9
$USERR5
 40
0.0
  9
$WORLDVIEW
 70
     1
  9
$SHADEDGE
 70
     3
  9
$SHADEDIF
 70
    70
  9
$TILEMODE
 70
     1
  9
$MAXACTVP
 70
    64
  9
$PINSBASE
 10
0.0
 20
0.0
 30
0.0
  9
$PLIMCHECK
 70
     0
  9
$PEXTMIN
 10
1.0000000000E+20
 20
1.0000000000E+20
 30
1.0000000000E+20
  9
$PEXTMAX
 10
-1.0000000000E+20
 20
-1.0000000000E+20
 30
-1.0000000000E+20
  9
$PLIMMIN
 10
0.0
 20
0.0
  9
$PLIMMAX
 10
420.0
 20
297.0
  9
$UNITMODE
 70
     0
  9
$VISRETAIN
 70
     1
  9
$PLINEGEN
 70
     0
  9
$PSLTSCALE
 70
     1
  9
$TREEDEPTH
 70
  3020
  9
$CMLSTYLE
  2
Standard
  9
$CMLJUST
 70
     0
  9
$CMLSCALE
 40
20.0
  9
$PROXYGRAPHICS
 70
     1
  9
$MEASUREMENT
 70
     1
  9
$CELWEIGHT
370
    -1
  9
$ENDCAPS
280
     0
  9
$JOINSTYLE
280
     0
  9
$LWDISPLAY
290
     1
  9
$INSUNITS
 70
     4
  9
$HYPERLINKBASE
  1

  9
$STYLESHEET
  1

  9
$XEDIT
290
     1
  9
$CEPSNTYPE
380
     0
  9
$PSTYLEMODE
290
     1
  9
$FINGERPRINTGUID
  2
{AE18EF59-15AC-484F-A8F4-313851768F8D}
  9
$VERSIONGUID
  2
{FAEB1C32-E019-11D5-929B-00C0DF256EC4}
  9
$EXTNAMES
290
     1
  9
$PSVPSCALE
 40
0.0
  9
$OLESTARTUP
290
     0
  0
ENDSEC
  0
SECTION
  2
CLASSES
  0
CLASS
  1
ACDBDICTIONARYWDFLT
  2
AcDbDictionaryWithDefault
  3
ObjectDBX Classes
 90
        0
280
     0
281
     0
  0
CLASS
  1
VISUALSTYLE
  2
AcDbVisualStyle
  3
ObjectDBX Classes
 90
     4095
280
     0
281
     0
  0
CLASS
  1
MATERIAL
  2
AcDbMaterial
  3
ObjectDBX Classes
 90
     1153
280
     0
281
     0
  0
CLASS
  1
SCALE
  2
AcDbScale
  3
ObjectDBX Classes
 90
     1153
280
     0
281
     0
  0
CLASS
  1
SUN
  2
AcDbSun
  3
SCENEOE
 90
     1153
280
     0
281
     0
  0
CLASS
  1
ACDBPLACEHOLDER
  2
AcDbPlaceHolder
  3
ObjectDBX Classes
 90
        0
280
     0
281
     0
  0
CLASS
  1
LAYOUT
  2
AcDbLayout
  3
ObjectDBX Classes
 90
        0
280
     0
281
     0
  0
ENDSEC
  0
SECTION
  2
TABLES
  0
TABLE
  2
VPORT
  5
8
330
0
100
AcDbSymbolTable
 70
     1
  0
VPORT
  5
29
330
8
100
AcDbSymbolTableRecord
100
AcDbViewportTableRecord
  2
*Active
 70
     0
 10
0.0
 20
0.0
 11
1.0
 21
1.0
 12
297.0
 22
210.0
 13
0.0
 23
0.0
 14
10.0
 24
10.0
 15
10.0
 25
10.0
 16
0.0
 26
0.0
 36
1.0
 17
0.0
 27
0.0
 37
0.0
 40
420.0
 41
1.4142857143
 42
50.0
 43
0.0
 44
0.0
 50
0.0
 51
0.0
 71
     0
 72
  2000
 73
     1
 74
     3
 75
     0
 76
     0
 77
     0
 78
     0
281
     0
 65
     1
110
0.0
120
0.0
130
0.0
111
1.0
121
0.0
131
0.0
112
0.0
122
1.0
132
0.0
 79
     0
146
0.0
  0
ENDTAB
  0
TABLE
  2
LTYPE
  5
5
330
0
100
AcDbSymbolTable
 70
     6
  0
LTYPE
  5
14
330
5
100
AcDbSymbolTableRecord
100
AcDbLinetypeTableRecord
  2
ByBlock
 70
     0
  3

 72
    65
 73
     0
 40
0.0
  0
LTYPE
  5
15
330
5
100
AcDbSymbolTableRecord
100
AcDbLinetypeTableRecord
  2
ByLayer
 70
     0
  3

 72
    65
 73
     0
 40
0.0
  0
LTYPE
  5
16
330
5
100
AcDbSymbolTableRecord
100
AcDbLinetypeTableRecord
  2
Continuous
 70
     0
  3
Solid line
 72
    65
 73
     0
 40
0.0
  0
LTYPE
  5
6A
330
5
100
AcDbSymbolTableRecord
100
AcDbLinetypeTableRecord
  2
HIDDEN
 70
     0
  3
Hidden __ __ __ __ __ __ __ __ __ __ __ __ __ __
 72
    65
 73
     2
 40
1.905
 49
1.27
 74
     0
 49
-0.635
 74
     0
  0
LTYPE
  5
6B
330
5
100
AcDbSymbolTableRecord
100
AcDbLinetypeTableRecord
  2
PHANTOM
 70
     0
  3
Phantom ______  __  __  ______  __  __  ______
 72
    65
 73
     6
 40
12.7
 49
6.35
 74
     0
 49
-1.27
 74
     0
 49
1.27
 74
     0
 49
-1.27
 74
     0
 49
1.27
 74
     0
 49
-1.27
 74
     0
  0
LTYPE
  5
6C
330
5
100
AcDbSymbolTableRecord
100
AcDbLinetypeTableRecord
  2
CENTER
 70
     0
  3
Center ____ _ ____ _ ____ _ ____ _ ____ _ ____
 72
    65
 73
     4
 40
10.16
 49
6.35
 74
     0
 49
-1.27
 74
     0
 49
1.27
 74
     0
 49
-1.27
 74
     0
  0
LTYPE
  5
6D
330
5
100
AcDbSymbolTableRecord
100
AcDbLinetypeTableRecord
  2
CENTERX2
 70
     0
  3
Center (2x) ________  __  ________  __  _____
 72
    65
 73
     4
 40
20.32
 49
12.7
 74
     0
 49
-2.54
 74
     0
 49
2.54
 74
     0
 49
-2.54
 74
     0
  0
LTYPE
  5
6E
330
5
100
AcDbSymbolTableRecord
100
AcDbLinetypeTableRecord
  2
DOT2
 70
     0
  3
Dot (.5x) ........................................
 72
    65
 73
     2
 40
0.635
 49
0.0
 74
     0
 49
-0.635
 74
     0
  0
ENDTAB
  0
TABLE
  2
LAYER
  5
2
330
0
100
AcDbSymbolTable
 70
     2
  0
LAYER
  5
10
330
2
100
AcDbSymbolTableRecord
100
AcDbLayerTableRecord
  2
0
 70
     0
 62
     7
  6
Continuous
370
    -3
390
F
  0
LAYER
  5
6F
330
2
100
AcDbSymbolTableRecord
100
AcDbLayerTableRecord
  2
FORMAT
 70
     0
 62
     7
  6
Continuous
370
    -3
390
F
  0
ENDTAB
  0
TABLE
  2
STYLE
  5
3
330
0
100
AcDbSymbolTable
 70
     3
  0
STYLE
  5
11
330
3
100
AcDbSymbolTableRecord
100
AcDbTextStyleTableRecord
  2
Standard
 70
     0
 40
0.0
 41
1.0
 50
0.0
 71
     0
 42
3.5
  3
txt
  4

  0
STYLE
  5
A2
330
3
100
AcDbSymbolTableRecord
100
AcDbTextStyleTableRecord
  2
SLDTEXTSTYLE0
 70
     0
 40
0.0
 41
0.75
 50
0.0
 71
     0
 42
3.5
  3
TXT
  4

  0
STYLE
  5
C7
330
3
100
AcDbSymbolTableRecord
100
AcDbTextStyleTableRecord
  2
SLDTEXTSTYLE1
 70
     0
 40
0.0
 41
0.6875
 50
0.0
 71
     0
 42
3.5
  3
TXT
  4

  0
ENDTAB
  0
TABLE
  2
VIEW
  5
6
330
0
100
AcDbSymbolTable
 70
     0
  0
ENDTAB
  0
TABLE
  2
UCS
  5
7
330
0
100
AcDbSymbolTable
 70
     0
  0
ENDTAB
  0
TABLE
  2
APPID
  5
9
330
0
100
AcDbSymbolTable
 70
     1
  0
APPID
  5
12
330
9
100
AcDbSymbolTableRecord
100
AcDbRegAppTableRecord
  2
ACAD
 70
     0
  0
ENDTAB
  0
TABLE
  2
DIMSTYLE
  5
A
330
0
100
AcDbSymbolTable
 70
     1
100
AcDbDimStyleTable
  0
DIMSTYLE
105
27
330
A
100
AcDbSymbolTableRecord
100
AcDbDimStyleTableRecord
  2
ISO-25
 70
     0
 41
2.5
 42
0.625
 43
3.75
 44
1.25
 73
     0
 74
     0
 77
     1
 78
     8
140
2.5
141
2.5
143
0.0393700787
147
0.625
171
     3
172
     1
178
     0
271
     2
272
     2
274
     3
278
    44
283
     0
284
     8
340
11
  0
ENDTAB
  0
TABLE
  2
BLOCK_RECORD
  5
1
330
0
100
AcDbSymbolTable
 70
     1
  0
BLOCK_RECORD
  5
1F
330
1
100
AcDbSymbolTableRecord
100
AcDbBlockTableRecord
  2
*Model_Space
340
22
  0
BLOCK_RECORD
  5
1B
330
1
100
AcDbSymbolTableRecord
100
AcDbBlockTableRecord
  2
*Paper_Space
340
1E
  0
BLOCK_RECORD
  5
23
330
1
100
AcDbSymbolTableRecord
100
AcDbBlockTableRecord
  2
*Paper_Space0
340
26
  0
ENDTAB
  0
ENDSEC
  0
SECTION
  2
BLOCKS
  0
BLOCK
  5
20
330
1F
100
AcDbEntity
  8
0
100
AcDbBlockBegin
  2
*Model_Space
 70
     0
 10
0.0
 20
0.0
 30
0.0
  3
*Model_Space
  1
*Model_Space
  0
ENDBLK
  5
21
330
1F
100
AcDbEntity
  8
0
100
AcDbBlockEnd
  0
BLOCK
  5
1C
330
1B
100
AcDbEntity
 67
     1
  8
0
100
AcDbBlockBegin
  2
*Paper_Space
 70
     0
 10
0.0
 20
0.0
 30
0.0
  3
*Paper_Space
  1
*Paper_Space
  0
ENDBLK
  5
1D
330
1B
100
AcDbEntity
 67
     1
  8
0
100
AcDbBlockEnd
  0
BLOCK
  5
24
330
23
100
AcDbEntity
  8
0
100
AcDbBlockBegin
  2
*Paper_Space0
 70
     0
 10
0.0
 20
0.0
 30
0.0
  3
*Paper_Space0
  1
*Paper_Space0
  0
ENDBLK
  5
25
330
23
100
AcDbEntity
  8
0
100
AcDbBlockEnd
  0
ENDSEC
  0
SECTION
  2
ENTITIES
  0
LINE
  5
70
330
1F
100
AcDbEntity
  8
0
  6
Continuous
 62
     7
370
     0
100
AcDbLine
 10
589.0
 20
415.0
 30
0.0
 11
5.0
 21
415.0
 31
0.0
  0
LINE
  5
71
330
1F
100
AcDbEntity
  8
0
  6
Continuous
 62
     7
370
     0
100
AcDbLine
 10
5.0
 20
5.0
 30
0.0
 11
589.0
 21
5.0
 31
0.0
  0
LINE
  5
72
330
1F
100
AcDbEntity
  8
0
  6
Continuous
 62
     7
370
     0
100
AcDbLine
 10
584.0
 20
410.0
 30
0.0
 11
10.0
 21
410.0
 31
0.0
  0
LINE
  5
73
330
1F
100
AcDbEntity
  8
0
  6
Continuous
 62
     7
370
     0
100
AcDbLine
 10
10.0
 20
10.0
 30
0.0
 11
399.0548690414
 21
10.0
 31
0.0
  0
LINE
  5
74
330
1F
100
AcDbEntity
  8
0
  6
Continuous
 62
     7
370
     0
100
AcDbLine
 10
589.0
 20
5.0
 30
0.0
 11
589.0
 21
415.0
 31
0.0
  0
LINE
  5
75
330
1F
100
AcDbEntity
  8
0
  6
Continuous
 62
     7
370
     0
100
AcDbLine
 10
584.0
 20
60.25
 30
0.0
 11
584.0
 21
410.0
 31
0.0
  0
LINE
  5
76
330
1F
100
AcDbEntity
  8
0
  6
Continuous
 62
     7
370
     0
100
AcDbLine
 10
584.0
 20
160.0
 30
0.0
 11
589.0
 21
160.0
 31
0.0
  0
LINE
  5
77
330
1F
100
AcDbEntity
  8
0
  6
Continuous
 62
     7
370
     0
100
AcDbLine
 10
589.0
 20
110.0
 30
0.0
 11
584.0
 21
110.0
 31
0.0
  0
LINE
  5
78
330
1F
100
AcDbEntity
  8
0
  6
Continuous
 62
     7
370
     0
100
AcDbLine
 10
197.0
 20
415.0
 30
0.0
 11
197.0
 21
410.0
 31
0.0
  0
LINE
  5
79
330
1F
100
AcDbEntity
  8
0
  6
Continuous
 62
     7
370
     0
100
AcDbLine
 10
247.0
 20
410.0
 30
0.0
 11
247.0
 21
415.0
 31
0.0
  0
LINE
  5
7A
330
1F
100
AcDbEntity
  8
0
  6
Continuous
 62
     7
370
     0
100
AcDbLine
 10
347.0
 20
410.0
 30
0.0
 11
347.0
 21
415.0
 31
0.0
  0
LINE
  5
7B
330
1F
100
AcDbEntity
  8
0
  6
Continuous
 62
     7
370
     0
100
AcDbLine
 10
397.0
 20
415.0
 30
0.0
 11
397.0
 21
410.0
 31
0.0
  0
LINE
  5
7C
330
1F
100
AcDbEntity
  8
0
  6
Continuous
 62
     7
370
     0
100
AcDbLine
 10
447.0
 20
410.0
 30
0.0
 11
447.0
 21
415.0
 31
0.0
  0
LINE
  5
7D
330
1F
100
AcDbEntity
  8
0
  6
Continuous
 62
     7
370
     0
100
AcDbLine
 10
497.0
 20
415.0
 30
0.0
 11
497.0
 21
410.0
 31
0.0
  0
LINE
  5
7E
330
1F
100
AcDbEntity
  8
0
  6
Continuous
 62
     7
370
     0
100
AcDbLine
 10
547.0
 20
410.0
 30
0.0
 11
547.0
 21
415.0
 31
0.0
  0
LINE
  5
7F
330
1F
100
AcDbEntity
  8
0
  6
Continuous
 62
     7
370
     0
100
AcDbLine
 10
584.0
 20
360.0
 30
0.0
 11
589.0
 21
360.0
 31
0.0
  0
LINE
  5
80
330
1F
100
AcDbEntity
  8
0
  6
Continuous
 62
     7
370
     0
100
AcDbLine
 10
589.0
 20
310.0
 30
0.0
 11
584.0
 21
310.0
 31
0.0
  0
LINE
  5
81
330
1F
100
AcDbEntity
  8
0
  6
Continuous
 62
     7
370
     0
100
AcDbLine
 10
584.0
 20
260.0
 30
0.0
 11
589.0
 21
260.0
 31
0.0
  0
LINE
  5
82
330
1F
100
AcDbEntity
  8
0
  6
Continuous
 62
     7
370
     0
100
AcDbLine
 10
10.0
 20
60.0
 30
0.0
 11
5.0
 21
60.0
 31
0.0
  0
LINE
  5
83
330
1F
100
AcDbEntity
  8
0
  6
Continuous
 62
     7
370
     0
100
AcDbLine
 10
5.0
 20
110.0
 30
0.0
 11
10.0
 21
110.0
 31
0.0
  0
LINE
  5
84
330
1F
100
AcDbEntity
  8
0
  6
Continuous
 62
     7
370
     0
100
AcDbLine
 10
10.0
 20
160.0
 30
0.0
 11
5.0
 21
160.0
 31
0.0
  0
LINE
  5
85
330
1F
100
AcDbEntity
  8
0
  6
Continuous
 62
     7
370
     0
100
AcDbLine
 10
5.0
 20
415.0
 30
0.0
 11
5.0
 21
5.0
 31
0.0
  0
LINE
  5
86
330
1F
100
AcDbEntity
  8
0
  6
Continuous
 62
     7
370
     0
100
AcDbLine
 10
10.0
 20
410.0
 30
0.0
 11
10.0
 21
10.0
 31
0.0
  0
LINE
  5
87
330
1F
100
AcDbEntity
  8
0
  6
Continuous
 62
     7
370
     0
100
AcDbLine
 10
10.0
 20
260.0
 30
0.0
 11
5.0
 21
260.0
 31
0.0
  0
LINE
  5
88
330
1F
100
AcDbEntity
  8
0
  6
Continuous
 62
     7
370
     0
100
AcDbLine
 10
5.0
 20
310.0
 30
0.0
 11
10.0
 21
310.0
 31
0.0
  0
LINE
  5
89
330
1F
100
AcDbEntity
  8
0
  6
Continuous
 62
     7
370
     0
100
AcDbLine
 10
10.0
 20
360.0
 30
0.0
 11
5.0
 21
360.0
 31
0.0
  0
LINE
  5
8A
330
1F
100
AcDbEntity
  8
0
  6
Continuous
 62
     7
370
     0
100
AcDbLine
 10
47.0
 20
410.0
 30
0.0
 11
47.0
 21
415.0
 31
0.0
  0
LINE
  5
8B
330
1F
100
AcDbEntity
  8
0
  6
Continuous
 62
     7
370
     0
100
AcDbLine
 10
97.0
 20
415.0
 30
0.0
 11
97.0
 21
410.0
 31
0.0
  0
LINE
  5
8C
330
1F
100
AcDbEntity
  8
0
  6
Continuous
 62
     7
370
     0
100
AcDbLine
 10
147.0
 20
410.0
 30
0.0
 11
147.0
 21
415.0
 31
0.0
  0
LINE
  5
8D
330
1F
100
AcDbEntity
  8
0
  6
Continuous
 62
     7
370
     0
100
AcDbLine
 10
297.0
 20
415.0
 30
0.0
 11
297.0
 21
405.0
 31
0.0
  0
LINE
  5
8E
330
1F
100
AcDbEntity
  8
0
  6
Continuous
 62
     7
370
     0
100
AcDbLine
 10
297.0
 20
5.0
 30
0.0
 11
297.0
 21
15.0
 31
0.0
  0
LINE
  5
8F
330
1F
100
AcDbEntity
  8
0
  6
Continuous
 62
     7
370
     0
100
AcDbLine
 10
5.0
 20
210.0
 30
0.0
 11
15.0
 21
210.0
 31
0.0
  0
LINE
  5
90
330
1F
100
AcDbEntity
  8
0
  6
Continuous
 62
     7
370
     0
100
AcDbLine
 10
589.0
 20
210.0
 30
0.0
 11
579.0
 21
210.0
 31
0.0
  0
LINE
  5
91
330
1F
100
AcDbEntity
  8
0
  6
Continuous
 62
     7
370
     0
100
AcDbLine
 10
47.0
 20
5.0
 30
0.0
 11
47.0
 21
10.0
 31
0.0
  0
LINE
  5
92
330
1F
100
AcDbEntity
  8
0
  6
Continuous
 62
     7
370
     0
100
AcDbLine
 10
97.0
 20
10.0
 30
0.0
 11
97.0
 21
5.0
 31
0.0
  0
LINE
  5
93
330
1F
100
AcDbEntity
  8
0
  6
Continuous
 62
     7
370
     0
100
AcDbLine
 10
147.0
 20
5.0
 30
0.0
 11
147.0
 21
10.0
 31
0.0
  0
LINE
  5
94
330
1F
100
AcDbEntity
  8
0
  6
Continuous
 62
     7
370
     0
100
AcDbLine
 10
197.0
 20
10.0
 30
0.0
 11
197.0
 21
5.0
 31
0.0
  0
LINE
  5
95
330
1F
100
AcDbEntity
  8
0
  6
Continuous
 62
     7
370
     0
100
AcDbLine
 10
247.0
 20
5.0
 30
0.0
 11
247.0
 21
10.0
 31
0.0
  0
LINE
  5
96
330
1F
100
AcDbEntity
  8
0
  6
Continuous
 62
     7
370
     0
100
AcDbLine
 10
347.0
 20
5.0
 30
0.0
 11
347.0
 21
10.0
 31
0.0
  0
LINE
  5
97
330
1F
100
AcDbEntity
  8
0
  6
Continuous
 62
     7
370
     0
100
AcDbLine
 10
401.8
 20
9.25
 30
0.0
 11
589.0
 21
9.25
 31
0.0
  0
LINE
  5
98
330
1F
100
AcDbEntity
  8
0
  6
Continuous
 62
     7
370
     0
100
AcDbLine
 10
584.0
 20
60.25
 30
0.0
 11
584.0
 21
9.25
 31
0.0
  0
LINE
  5
99
330
1F
100
AcDbEntity
  8
0
  6
Continuous
 62
     7
370
     0
100
AcDbLine
 10
584.0
 20
60.25
 30
0.0
 11
589.0
 21
60.25
 31
0.0
  0
LINE
  5
9A
330
1F
100
AcDbEntity
  8
0
  6
Continuous
 62
     7
370
     0
100
AcDbLine
 10
399.0548690414
 20
10.0
 30
0.0
 11
401.8
 21
9.25
 31
0.0
  0
LINE
  5
9B
330
1F
100
AcDbEntity
  8
0
  6
Continuous
 62
     7
370
     0
100
AcDbLine
 10
456.4
 20
5.0
 30
0.0
 11
456.4
 21
9.25
 31
0.0
  0
LINE
  5
9C
330
1F
100
AcDbEntity
  8
0
  6
Continuous
 62
     7
370
     0
100
AcDbLine
 10
401.8
 20
9.25
 30
0.0
 11
401.8
 21
5.0
 31
0.0
  0
LINE
  5
9D
330
1F
100
AcDbEntity
  8
0
  6
Continuous
 62
     7
370
     0
100
AcDbLine
 10
544.8
 20
5.0
 30
0.0
 11
544.8
 21
9.25
 31
0.0
  0
LINE
  5
9E
330
1F
100
AcDbEntity
  8
0
  6
Continuous
 62
     7
370
     0
100
AcDbLine
 10
428.7909524338
 20
9.25
 30
0.0
 11
428.7909524338
 21
5.0
 31
0.0
  0
LINE
  5
9F
330
1F
100
AcDbEntity
  8
0
  6
Continuous
 62
     7
370
     0
100
AcDbLine
 10
500.6
 20
9.25
 30
0.0
 11
500.6
 21
5.0
 31
0.0
  0
LINE
  5
A0
330
1F
100
AcDbEntity
  8
0
  6
Continuous
 62
     7
370
     0
100
AcDbLine
 10
446.1989261635
 20
9.25
 30
0.0
 11
446.1989261635
 21
5.0
 31
0.0
  0
LINE
  5
A1
330
1F
100
AcDbEntity
  8
0
  6
Continuous
 62
     7
370
     0
100
AcDbLine
 10
409.6
 20
9.25
 30
0.0
 11
409.6
 21
5.0
 31
0.0
  0
MTEXT
  5
A3
330
1F
100
AcDbEntity
  8
0
  6
Continuous
 62
     7
370
     0
100
AcDbMText
 10
271.1666746667
 20
413.6680164036
 30
0.0
 40
1.8520833333
 41
0.0
 71
     1
 72
     1
  1
6
  7
SLDTEXTSTYLE0
 73
     1
 44
1.0
  0
MTEXT
  5
A4
330
1F
100
AcDbEntity
  8
0
  6
Continuous
 62
     7
370
     0
100
AcDbMText
 10
6.6666666667
 20
236.1680164036
 30
0.0
 40
1.8520833333
 41
0.0
 71
     1
 72
     1
  1
D
  7
SLDTEXTSTYLE0
 73
     1
 44
1.0
  0
MTEXT
  5
A5
330
1F
100
AcDbEntity
  8
0
  6
Continuous
 62
     7
370
     0
100
AcDbMText
 10
6.6666666667
 20
286.1680164036
 30
0.0
 40
1.8520833333
 41
0.0
 71
     1
 72
     1
  1
C
  7
SLDTEXTSTYLE0
 73
     1
 44
1.0
  0
MTEXT
  5
A6
330
1F
100
AcDbEntity
  8
0
  6
Continuous
 62
     7
370
     0
100
AcDbMText
 10
6.6666666667
 20
336.1680164036
 30
0.0
 40
1.8520833333
 41
0.0
 71
     1
 72
     1
  1
B
  7
SLDTEXTSTYLE0
 73
     1
 44
1.0
  0
MTEXT
  5
A7
330
1F
100
AcDbEntity
  8
0
  6
Continuous
 62
     7
370
     0
100
AcDbMText
 10
6.6666666667
 20
386.1680164036
 30
0.0
 40
1.8520833333
 41
0.0
 71
     1
 72
     1
  1
A
  7
SLDTEXTSTYLE0
 73
     1
 44
1.0
  0
MTEXT
  5
A8
330
1F
100
AcDbEntity
  8
0
  6
Continuous
 62
     7
370
     0
100
AcDbMText
 10
6.6666666667
 20
186.1680164036
 30
0.0
 40
1.8520833333
 41
0.0
 71
     1
 72
     1
  1
E
  7
SLDTEXTSTYLE0
 73
     1
 44
1.0
  0
MTEXT
  5
A9
330
1F
100
AcDbEntity
  8
0
  6
Continuous
 62
     7
370
     0
100
AcDbMText
 10
6.6666666667
 20
136.1680164036
 30
0.0
 40
1.8520833333
 41
0.0
 71
     1
 72
     1
  1
F
  7
SLDTEXTSTYLE0
 73
     1
 44
1.0
  0
MTEXT
  5
AA
330
1F
100
AcDbEntity
  8
0
  6
Continuous
 62
     7
370
     0
100
AcDbMText
 10
6.6666666667
 20
86.1680164036
 30
0.0
 40
1.8520833333
 41
0.0
 71
     1
 72
     1
  1
G
  7
SLDTEXTSTYLE0
 73
     1
 44
1.0
  0
MTEXT
  5
AB
330
1F
100
AcDbEntity
  8
0
  6
Continuous
 62
     7
370
     0
100
AcDbMText
 10
6.6666666667
 20
36.1680164036
 30
0.0
 40
1.8520833333
 41
0.0
 71
     1
 72
     1
  1
H
  7
SLDTEXTSTYLE0
 73
     1
 44
1.0
  0
MTEXT
  5
AC
330
1F
100
AcDbEntity
  8
0
  6
Continuous
 62
     7
370
     0
100
AcDbMText
 10
585.6666816667
 20
186.1680164036
 30
0.0
 40
1.8520833333
 41
0.0
 71
     1
 72
     1
  1
E
  7
SLDTEXTSTYLE0
 73
     1
 44
1.0
  0
MTEXT
  5
AD
330
1F
100
AcDbEntity
  8
0
  6
Continuous
 62
     7
370
     0
100
AcDbMText
 10
585.6666816667
 20
386.1680164036
 30
0.0
 40
1.8520833333
 41
0.0
 71
     1
 72
     1
  1
A
  7
SLDTEXTSTYLE0
 73
     1
 44
1.0
  0
MTEXT
  5
AE
330
1F
100
AcDbEntity
  8
0
  6
Continuous
 62
     7
370
     0
100
AcDbMText
 10
585.6666816667
 20
336.1680164036
 30
0.0
 40
1.8520833333
 41
0.0
 71
     1
 72
     1
  1
B
  7
SLDTEXTSTYLE0
 73
     1
 44
1.0
  0
MTEXT
  5
AF
330
1F
100
AcDbEntity
  8
0
  6
Continuous
 62
     7
370
     0
100
AcDbMText
 10
585.6666816667
 20
286.1680164036
 30
0.0
 40
1.8520833333
 41
0.0
 71
     1
 72
     1
  1
C
  7
SLDTEXTSTYLE0
 73
     1
 44
1.0
  0
MTEXT
  5
B0
330
1F
100
AcDbEntity
  8
0
  6
Continuous
 62
     7
370
     0
100
AcDbMText
 10
585.6666816667
 20
236.1680164036
 30
0.0
 40
1.8520833333
 41
0.0
 71
     1
 72
     1
  1
D
  7
SLDTEXTSTYLE0
 73
     1
 44
1.0
  0
MTEXT
  5
B1
330
1F
100
AcDbEntity
  8
0
  6
Continuous
 62
     7
370
     0
100
AcDbMText
 10
585.6666816667
 20
136.1680164036
 30
0.0
 40
1.8520833333
 41
0.0
 71
     1
 72
     1
  1
F
  7
SLDTEXTSTYLE0
 73
     1
 44
1.0
  0
MTEXT
  5
B2
330
1F
100
AcDbEntity
  8
0
  6
Continuous
 62
     7
370
     0
100
AcDbMText
 10
221.1666746667
 20
413.6680164036
 30
0.0
 40
1.8520833333
 41
0.0
 71
     1
 72
     1
  1
5
  7
SLDTEXTSTYLE0
 73
     1
 44
1.0
  0
MTEXT
  5
B3
330
1F
100
AcDbEntity
  8
0
  6
Continuous
 62
     7
370
     0
100
AcDbMText
 10
171.1666746667
 20
413.6680164036
 30
0.0
 40
1.8520833333
 41
0.0
 71
     1
 72
     1
  1
4
  7
SLDTEXTSTYLE0
 73
     1
 44
1.0
  0
MTEXT
  5
B4
330
1F
100
AcDbEntity
  8
0
  6
Continuous
 62
     7
370
     0
100
AcDbMText
 10
121.1666746667
 20
413.6680164036
 30
0.0
 40
1.8520833333
 41
0.0
 71
     1
 72
     1
  1
3
  7
SLDTEXTSTYLE0
 73
     1
 44
1.0
  0
MTEXT
  5
B5
330
1F
100
AcDbEntity
  8
0
  6
Continuous
 62
     7
370
     0
100
AcDbMText
 10
71.1666746667
 20
413.6680164036
 30
0.0
 40
1.8520833333
 41
0.0
 71
     1
 72
     1
  1
2
  7
SLDTEXTSTYLE0
 73
     1
 44
1.0
  0
MTEXT
  5
B6
330
1F
100
AcDbEntity
  8
0
  6
Continuous
 62
     7
370
     0
100
AcDbMText
 10
21.5833413333
 20
413.6680164036
 30
0.0
 40
1.8520833333
 41
0.0
 71
     1
 72
     1
  1
1
  7
SLDTEXTSTYLE0
 73
     1
 44
1.0
  0
MTEXT
  5
B7
330
1F
100
AcDbEntity
  8
0
  6
Continuous
 62
     7
370
     0
100
AcDbMText
 10
321.1666746667
 20
413.6680164036
 30
0.0
 40
1.8520833333
 41
0.0
 71
     1
 72
     1
  1
7
  7
SLDTEXTSTYLE0
 73
     1
 44
1.0
  0
MTEXT
  5
B8
330
1F
100
AcDbEntity
  8
0
  6
Continuous
 62
     7
370
     0
100
AcDbMText
 10
371.1666746667
 20
413.6680164036
 30
0.0
 40
1.8520833333
 41
0.0
 71
     1
 72
     1
  1
8
  7
SLDTEXTSTYLE0
 73
     1
 44
1.0
  0
MTEXT
  5
B9
330
1F
100
AcDbEntity
  8
0
  6
Continuous
 62
     7
370
     0
100
AcDbMText
 10
421.1666746667
 20
413.6680164036
 30
0.0
 40
1.8520833333
 41
0.0
 71
     1
 72
     1
  1
9
  7
SLDTEXTSTYLE0
 73
     1
 44
1.0
  0
MTEXT
  5
BA
330
1F
100
AcDbEntity
  8
0
  6
Continuous
 62
     7
370
     0
100
AcDbMText
 10
470.5416746667
 20
413.6680164036
 30
0.0
 40
1.8520833333
 41
0.0
 71
     1
 72
     1
  1
10
  7
SLDTEXTSTYLE0
 73
     1
 44
1.0
  0
MTEXT
  5
BB
330
1F
100
AcDbEntity
  8
0
  6
Continuous
 62
     7
370
     0
100
AcDbMText
 10
520.750008
 20
413.6680164036
 30
0.0
 40
1.8520833333
 41
0.0
 71
     1
 72
     1
  1
11
  7
SLDTEXTSTYLE0
 73
     1
 44
1.0
  0
MTEXT
  5
BC
330
1F
100
AcDbEntity
  8
0
  6
Continuous
 62
     7
370
     0
100
AcDbMText
 10
570.3333413333
 20
413.6680164036
 30
0.0
 40
1.8520833333
 41
0.0
 71
     1
 72
     1
  1
12
  7
SLDTEXTSTYLE0
 73
     1
 44
1.0
  0
MTEXT
  5
BD
330
1F
100
AcDbEntity
  8
0
  6
Continuous
 62
     7
370
     0
100
AcDbMText
 10
21.5833413333
 20
8.6680164036
 30
0.0
 40
1.8520833333
 41
0.0
 71
     1
 72
     1
  1
1
  7
SLDTEXTSTYLE0
 73
     1
 44
1.0
  0
MTEXT
  5
BE
330
1F
100
AcDbEntity
  8
0
  6
Continuous
 62
     7
370
     0
100
AcDbMText
 10
71.1666746667
 20
8.6680164036
 30
0.0
 40
1.8520833333
 41
0.0
 71
     1
 72
     1
  1
2
  7
SLDTEXTSTYLE0
 73
     1
 44
1.0
  0
MTEXT
  5
BF
330
1F
100
AcDbEntity
  8
0
  6
Continuous
 62
     7
370
     0
100
AcDbMText
 10
121.1666746667
 20
8.6680164036
 30
0.0
 40
1.8520833333
 41
0.0
 71
     1
 72
     1
  1
3
  7
SLDTEXTSTYLE0
 73
     1
 44
1.0
  0
MTEXT
  5
C0
330
1F
100
AcDbEntity
  8
0
  6
Continuous
 62
     7
370
     0
100
AcDbMText
 10
171.1666746667
 20
8.6680164036
 30
0.0
 40
1.8520833333
 41
0.0
 71
     1
 72
     1
  1
4
  7
SLDTEXTSTYLE0
 73
     1
 44
1.0
  0
MTEXT
  5
C1
330
1F
100
AcDbEntity
  8
0
  6
Continuous
 62
     7
370
     0
100
AcDbMText
 10
221.1666746667
 20
8.6680164036
 30
0.0
 40
1.8520833333
 41
0.0
 71
     1
 72
     1
  1
5
  7
SLDTEXTSTYLE0
 73
     1
 44
1.0
  0
MTEXT
  5
C2
330
1F
100
AcDbEntity
  8
0
  6
Continuous
 62
     7
370
     0
100
AcDbMText
 10
271.1666746667
 20
8.6680164036
 30
0.0
 40
1.8520833333
 41
0.0
 71
     1
 72
     1
  1
6
  7
SLDTEXTSTYLE0
 73
     1
 44
1.0
  0
MTEXT
  5
C3
330
1F
100
AcDbEntity
  8
0
  6
Continuous
 62
     7
370
     0
100
AcDbMText
 10
321.1666746667
 20
8.6680164036
 30
0.0
 40
1.8520833333
 41
0.0
 71
     1
 72
     1
  1
7
  7
SLDTEXTSTYLE0
 73
     1
 44
1.0
  0
MTEXT
  5
C4
330
1F
100
AcDbEntity
  8
0
  6
Continuous
 62
     7
370
     0
100
AcDbMText
 10
371.1666746667
 20
8.6680164036
 30
0.0
 40
1.8520833333
 41
0.0
 71
     1
 72
     1
  1
8
  7
SLDTEXTSTYLE0
 73
     1
 44
1.0
  0
MTEXT
  5
C5
330
1F
100
AcDbEntity
  8
0
  6
Continuous
 62
     7
370
     0
100
AcDbMText
 10
585.2515577191
 20
85.8233293382
 30
0.0
 40
1.8520833333
 41
0.0
 71
     1
 72
     1
  1
G
  7
SLDTEXTSTYLE0
 73
     1
 44
1.0
  0
MTEXT
  5
C6
330
1F
100
AcDbEntity
  8
0
  6
Continuous
 62
     7
370
     0
100
AcDbMText
 10
457.4178111281
 20
7.9493119036
 30
0.0
 40
1.4986
 41
0.0
 71
     1
 72
     1
  1
WEIGHT:
  7
SLDTEXTSTYLE0
 73
     1
 44
1.0
  0
MTEXT
  5
C8
330
1F
100
AcDbEntity
  8
0
  6
Continuous
 62
     7
370
     0
100
AcDbMText
 10
546.2782944278
 20
7.9000872745
 30
0.0
 40
1.5
 41
0.0
 71
     1
 72
     1
  1
SHEET 1 OF 1
  7
SLDTEXTSTYLE1
 73
     1
 44
1.0
  0
MTEXT
  5
C9
330
1F
100
AcDbEntity
  8
0
  6
Continuous
 62
     7
370
     0
100
AcDbMText
 10
501.8739661175
 20
7.9000872745
 30
0.0
 40
1.5
 41
0.0
 71
     1
 72
     1
  1
SCALE:10:1
  7
SLDTEXTSTYLE0
 73
     1
 44
1.0
  0
ARC
  5
CA
330
1F
100
AcDbEntity
  8
0
  6
Continuous
 62
     7
370
    15
100
AcDbCircle
 10
68.8147250425
 20
385.5254820046
 30
0.0
 40
6.250000000000065
100
AcDbArc
 50
74.5298139655
 51
101.0638267337
  0
CIRCLE
  5
CB
330
1F
100
AcDbEntity
  8
0
  6
Continuous
 62
     7
370
    15
100
AcDbCircle
 10
77.2208060172
 20
387.7763579327
 30
0.0
 40
1.5
  0
ARC
  5
CC
330
1F
100
AcDbEntity
  8
0
  6
Continuous
 62
     7
370
    15
100
AcDbCircle
 10
70.5618518228
 20
391.8381714484
 30
0.0
 40
0.3000000000002158
100
AcDbArc
 50
254.5298139655
 51
328.6177404528
  0
ARC
  5
CD
330
1F
100
AcDbEntity
  8
0
  6
Continuous
 62
     7
370
    15
100
AcDbCircle
 10
77.2208060172
 20
387.7763579327
 30
0.0
 40
7.500000000000022
100
AcDbArc
 50
143.1458801392
 51
148.6177404528
  0
ARC
  5
CE
330
1F
100
AcDbEntity
  8
0
  6
Continuous
 62
     7
370
    15
100
AcDbCircle
 10
70.9795175021
 20
392.4546394197
 30
0.0
 40
0.3000000000000095
100
AcDbArc
 50
323.1458801392
 51
37.2338066265
  0
ARC
  5
CF
330
1F
100
AcDbEntity
  8
0
  6
Continuous
 62
     7
370
    15
100
AcDbCircle
 10
76.1944509375
 20
396.4178413151
 30
0.0
 40
6.250000000000058
100
AcDbArc
 50
190.6997938583
 51
217.2338066265
  0
ARC
  5
D0
330
1F
100
AcDbEntity
  8
0
  6
Continuous
 62
     7
370
    15
100
AcDbCircle
 10
70.3479008235
 20
395.3131459886
 30
0.0
 40
0.2999999999999992
100
AcDbArc
 50
132.3621362785
 51
190.699793858
  0
ARC
  5
D1
330
1F
100
AcDbEntity
  8
0
  6
Continuous
 62
     7
370
    15
100
AcDbCircle
 10
77.2208060172
 20
387.7763579327
 30
0.0
 40
10.50000000000001
100
AcDbArc
 50
129.4014843135
 51
132.3621362785
  0
ARC
  5
D2
330
1F
100
AcDbEntity
  8
0
  6
Continuous
 62
     7
370
    15
100
AcDbCircle
 10
70.7463505954
 20
395.6580726568
 30
0.0
 40
0.3000000000000102
100
AcDbArc
 50
71.063826734
 51
129.4014843135
  0
ARC
  5
D3
330
1F
100
AcDbEntity
  8
0
  6
Continuous
 62
     7
370
    15
100
AcDbCircle
 10
68.8154883828
 20
390.0300826856
 30
0.0
 40
6.250000000000074
100
AcDbArc
 50
44.5298139655
 51
71.0638267337
  0
ARC
  5
D4
330
1F
100
AcDbEntity
  8
0
  6
Continuous
 62
     7
370
    15
100
AcDbCircle
 10
73.48488928
 20
394.62346872
 30
0.0
 40
0.3000000000000143
100
AcDbArc
 50
224.5298139655
 51
298.6177404528
  0
ARC
  5
D5
330
1F
100
AcDbEntity
  8
0
  6
Continuous
 62
     7
370
    15
100
AcDbCircle
 10
77.2208060172
 20
387.7763579327
 30
0.0
 40
7.500000000000008
100
AcDbArc
 50
113.1458801392
 51
118.6177404528
  0
ARC
  5
D6
330
1F
100
AcDbEntity
  8
0
  6
Continuous
 62
     7
370
    15
100
AcDbCircle
 10
74.1548323543
 20
394.948512804
 30
0.0
 40
0.3000000000000338
100
AcDbArc
 50
293.1458801392
 51
7.2338066265
  0
ARC
  5
D7
330
1F
100
AcDbEntity
  8
0
  6
Continuous
 62
     7
370
    15
100
AcDbCircle
 10
80.6526981361
 20
395.7732796081
 30
0.0
 40
6.250000000000053
100
AcDbArc
 50
160.6997938583
 51
187.2338066265
  0
ARC
  5
D8
330
1F
100
AcDbEntity
  8
0
  6
Continuous
 62
     7
370
    15
100
AcDbCircle
 10
75.0370895496
 20
397.7398604489
 30
0.0
 40
0.299999999999785
100
AcDbArc
 50
102.3621362785
 51
160.6997938581
  0
ARC
  5
D9
330
1F
100
AcDbEntity
  8
0
  6
Continuous
 62
     7
370
    15
100
AcDbCircle
 10
77.2208060172
 20
387.7763579327
 30
0.0
 40
10.50000000000036
100
AcDbArc
 50
99.4014843135
 51
102.3621362785
  0
ARC
  5
DA
330
1F
100
AcDbEntity
  8
0
  6
Continuous
 62
     7
370
    15
100
AcDbCircle
 10
75.5546205083
 20
397.83935082
 30
0.0
 40
0.2999999999999735
100
AcDbArc
 50
41.0638267339
 51
99.4014843135
  0
ARC
  5
DB
330
1F
100
AcDbEntity
  8
0
  6
Continuous
 62
     7
370
    15
100
AcDbCircle
 10
71.0684497953
 20
393.9307996391
 30
0.0
 40
6.250000000000015
100
AcDbArc
 50
14.5298139655
 51
41.0638267337
  0
ARC
  5
DC
330
1F
100
AcDbEntity
  8
0
  6
Continuous
 62
     7
370
    15
100
AcDbCircle
 10
77.40896261
 20
395.5740881856
 30
0.0
 40
0.2999999999999929
100
AcDbArc
 50
194.5298139655
 51
268.6177404528
  0
ARC
  5
DD
330
1F
100
AcDbEntity
  8
0
  6
Continuous
 62
     7
370
    15
100
AcDbCircle
 10
77.2208060172
 20
387.7763579327
 30
0.0
 40
7.50000000000018
100
AcDbArc
 50
83.1458801392
 51
88.6177404528
  0
ARC
  5
DE
330
1F
100
AcDbEntity
  8
0
  6
Continuous
 62
     7
370
    15
100
AcDbCircle
 10
78.1516723734
 20
395.5206130826
 30
0.0
 40
0.3000000000000566
100
AcDbArc
 50
263.1458801392
 51
337.2338066265
  0
ARC
  5
DF
330
1F
100
AcDbEntity
  8
0
  6
Continuous
 62
     7
370
    15
100
AcDbCircle
 10
84.1913726129
 20
392.9859491962
 30
0.0
 40
6.250000000000066
100
AcDbArc
 50
130.6997938583
 51
157.2338066265
  0
ARC
  5
E0
330
1F
100
AcDbEntity
  8
0
  6
Continuous
 62
     7
370
    15
100
AcDbCircle
 10
80.3114033397
 20
397.4968624562
 30
0.0
 40
0.2999999999995647
100
AcDbArc
 50
72.3621362785
 51
130.699793858
  0
ARC
  5
E1
330
1F
100
AcDbEntity
  8
0
  6
Continuous
 62
     7
370
    15
100
AcDbCircle
 10
77.2208060172
 20
387.7763579327
 30
0.0
 40
10.50000000000071
100
AcDbArc
 50
69.4014843135
 51
72.3621362785
  0
ARC
  5
E2
330
1F
100
AcDbEntity
  8
0
  6
Continuous
 62
     7
370
    15
100
AcDbCircle
 10
80.8093434827
 20
397.3242581657
 30
0.0
 40
0.3000000000001627
100
AcDbArc
 50
11.0638267336
 51
69.4014843135
  0
ARC
  5
E3
330
1F
100
AcDbEntity
  8
0
  6
Continuous
 62
     7
370
    15
100
AcDbCircle
 10
74.9699300891
 20
396.1824389075
 30
0.0
 40
6.250000000000046
100
AcDbArc
 50
344.5298139655
 51
11.0638267337
  0
ARC
  5
E4
330
1F
100
AcDbEntity
  8
0
  6
Continuous
 62
     7
370
    15
100
AcDbCircle
 10
81.2826195329
 20
394.4353121272
 30
0.0
 40
0.299999999999978
100
AcDbArc
 50
164.5298139655
 51
238.6177404529
  0
ARC
  5
E5
330
1F
100
AcDbEntity
  8
0
  6
Continuous
 62
     7
370
    15
100
AcDbCircle
 10
77.2208060172
 20
387.7763579327
 30
0.0
 40
7.500000000000212
100
AcDbArc
 50
53.1458801392
 51
58.6177404528
  0
ARC
  5
E6
330
1F
100
AcDbEntity
  8
0
  6
Continuous
 62
     7
370
    15
100
AcDbCircle
 10
81.8990875042
 20
394.0176464478
 30
0.0
 40
0.3000000000000322
100
AcDbArc
 50
233.1458801392
 51
307.2338066265
  0
ARC
  5
E7
330
1F
100
AcDbEntity
  8
0
  6
Continuous
 62
     7
370
    15
100
AcDbCircle
 10
85.8622893996
 20
388.8027130124
 30
0.0
 40
6.250000000000039
100
AcDbArc
 50
100.6997938583
 51
127.2338066265
  0
ARC
  5
E8
330
1F
100
AcDbEntity
  8
0
  6
Continuous
 62
     7
370
    15
100
AcDbCircle
 10
84.7575940731
 20
394.6492631264
 30
0.0
 40
0.2999999999993654
100
AcDbArc
 50
42.3621362785
 51
100.6997938583
  0
ARC
  5
E9
330
1F
100
AcDbEntity
  8
0
  6
Continuous
 62
     7
370
    15
100
AcDbCircle
 10
77.2208060172
 20
387.7763579327
 30
0.0
 40
10.50000000000089
100
AcDbArc
 50
39.4014843135
 51
42.3621362785
  0
ARC
  5
EA
330
1F
100
AcDbEntity
  8
0
  6
Continuous
 62
     7
370
    15
100
AcDbCircle
 10
85.1025207413
 20
394.2508133545
 30
0.0
 40
0.3000000000005664
100
AcDbArc
 50
341.0638267335
 51
39.4014843135
  0
ARC
  5
EB
330
1F
100
AcDbEntity
  8
0
  6
Continuous
 62
     7
370
    15
100
AcDbCircle
 10
79.4745307701
 20
396.1816755672
 30
0.0
 40
6.250000000000036
100
AcDbArc
 50
335.955514897
 51
341.0638267337
  0
ARC
  5
EC
330
1F
100
AcDbEntity
  8
0
  6
Continuous
 62
     7
370
    15
100
AcDbCircle
 10
85.456183257
 20
393.5129055272
 30
0.0
 40
0.3000000000000072
100
AcDbArc
 50
155.955514897
 51
279.9708005403
  0
LINE
  5
ED
330
1F
100
AcDbEntity
  8
0
  6
Continuous
 62
     7
370
    15
100
AcDbLine
 10
98.2777105035
 20
395.4623475328
 30
0.0
 11
85.5081306161
 21
393.2174354449
 31
0.0
  0
LINE
  5
EE
330
1F
100
AcDbEntity
  8
0
  6
Continuous
 62
     7
370
    15
100
AcDbLine
 10
112.6456112923
 20
385.4572385207
 30
0.0
 11
98.2777105035
 21
395.4623475328
 31
0.0
  0
ARC
  5
EF
330
1F
100
AcDbEntity
  8
0
  6
Continuous
 62
     7
370
    15
100
AcDbCircle
 10
112.4741759777
 20
385.2110476125
 30
0.0
 40
0.2999999999999945
100
AcDbArc
 50
277.9237660647
 51
55.1485160305
  0
LINE
  5
F0
330
1F
100
AcDbEntity
  8
0
  6
Continuous
 62
     7
370
    15
100
AcDbLine
 10
102.8115154566
 20
383.56326368
 30
0.0
 11
112.5155390562
 21
384.9139123812
 31
0.0
  0
LINE
  5
F1
330
1F
100
AcDbEntity
  8
0
  6
Continuous
 62
     7
370
    15
100
AcDbLine
 10
97.9487748207
 20
387.2377521947
 30
0.0
 11
102.8115154566
 21
383.56326368
 31
0.0
  0
LINE
  5
F2
330
1F
100
AcDbEntity
  8
0
  6
Continuous
 62
     7
370
    15
100
AcDbLine
 10
87.0361329378
 20
385.7188842848
 30
0.0
 11
97.9487748207
 21
387.2377521947
 31
0.0
  0
ARC
  5
F3
330
1F
100
AcDbEntity
  8
0
  6
Continuous
 62
     7
370
    15
100
AcDbCircle
 10
87.0774869125
 20
385.4217482209
 30
0.0
 40
0.2999999999999934
100
AcDbArc
 50
97.9237660647
 51
224.8074317835
  0
ARC
  5
F4
330
1F
100
AcDbEntity
  8
0
  6
Continuous
 62
     7
370
    15
100
AcDbCircle
 10
82.4303972807
 20
380.805791337
 30
0.0
 40
6.250000000000088
100
AcDbArc
 50
40.6997938583
 51
44.8074317835
  0
ARC
  5
F5
330
1F
100
AcDbEntity
  8
0
  6
Continuous
 62
     7
370
    15
100
AcDbCircle
 10
86.9413105407
 20
384.6857606102
 30
0.0
 40
0.3000000000000011
100
AcDbArc
 50
342.3621362785
 51
40.6997938583
  0
ARC
  5
F6
330
1F
100
AcDbEntity
  8
0
  6
Continuous
 62
     7
370
    15
100
AcDbCircle
 10
77.2208060172
 20
387.7763579327
 30
0.0
 40
10.49999999999998
100
AcDbArc
 50
339.4014843135
 51
342.3621362785
  0
ARC
  5
F7
330
1F
100
AcDbEntity
  8
0
  6
Continuous
 62
     7
370
    15
100
AcDbCircle
 10
86.7687062502
 20
384.1878204672
 30
0.0
 40
0.2999999999999573
100
AcDbArc
 50
281.0638267337
 51
339.4014843135
  0
ARC
  5
F8
330
1F
100
AcDbEntity
  8
0
  6
Continuous
 62
     7
370
    15
100
AcDbCircle
 10
85.626886992
 20
390.0272338608
 30
0.0
 40
6.250000000000015
100
AcDbArc
 50
254.5298139655
 51
281.0638267337
  0
ARC
  5
F9
330
1F
100
AcDbEntity
  8
0
  6
Continuous
 62
     7
370
    15
100
AcDbCircle
 10
83.8797602117
 20
383.714544417
 30
0.0
 40
0.3000000000000814
100
AcDbArc
 50
74.5298139655
 51
148.6177404528
  0
ARC
  5
FA
330
1F
100
AcDbEntity
  8
0
  6
Continuous
 62
     7
370
    15
100
AcDbCircle
 10
77.2208060172
 20
387.7763579327
 30
0.0
 40
7.500000000000007
100
AcDbArc
 50
323.1458801392
 51
328.6177404528
  0
ARC
  5
FB
330
1F
100
AcDbEntity
  8
0
  6
Continuous
 62
     7
370
    15
100
AcDbCircle
 10
83.4620945323
 20
383.0980764458
 30
0.0
 40
0.2999999999999982
100
AcDbArc
 50
143.1458801392
 51
217.2338066265
  0
ARC
  5
FC
330
1F
100
AcDbEntity
  8
0
  6
Continuous
 62
     7
370
    15
100
AcDbCircle
 10
78.2471610969
 20
379.1348745503
 30
0.0
 40
6.250000000000031
100
AcDbArc
 50
10.6997938583
 51
37.2338066265
  0
ARC
  5
FD
330
1F
100
AcDbEntity
  8
0
  6
Continuous
 62
     7
370
    15
100
AcDbCircle
 10
84.0937112109
 20
380.2395698769
 30
0.0
 40
0.2999999999999992
100
AcDbArc
 50
312.3621362785
 51
10.6997938583
  0
ARC
  5
FE
330
1F
100
AcDbEntity
  8
0
  6
Continuous
 62
     7
370
    15
100
AcDbCircle
 10
77.2208060172
 20
387.7763579327
 30
0.0
 40
10.5
100
AcDbArc
 50
309.4014843135
 51
312.3621362785
  0
ARC
  5
FF
330
1F
100
AcDbEntity
  8
0
  6
Continuous
 62
     7
370
    15
100
AcDbCircle
 10
83.695261439
 20
379.8946432087
 30
0.0
 40
0.3000000000000361
100
AcDbArc
 50
251.0638267337
 51
309.4014843135
  0
ARC
  5
100
330
1F
100
AcDbEntity
  8
0
  6
Continuous
 62
     7
370
    15
100
AcDbCircle
 10
85.6261236517
 20
385.5226331799
 30
0.0
 40
6.250000000000045
100
AcDbArc
 50
224.5298139655
 51
251.0638267337
  0
ARC
  5
101
330
1F
100
AcDbEntity
  8
0
  6
Continuous
 62
     7
370
    15
100
AcDbCircle
 10
80.9567227544
 20
380.9292471455
 30
0.0
 40
0.2999999999999786
100
AcDbArc
 50
44.5298139655
 51
118.6177404529
  0
ARC
  5
102
330
1F
100
AcDbEntity
  8
0
  6
Continuous
 62
     7
370
    15
100
AcDbCircle
 10
77.2208060172
 20
387.7763579327
 30
0.0
 40
7.499999999999991
100
AcDbArc
 50
293.1458801392
 51
298.6177404528
  0
ARC
  5
103
330
1F
100
AcDbEntity
  8
0
  6
Continuous
 62
     7
370
    15
100
AcDbCircle
 10
80.2867796802
 20
380.6042030614
 30
0.0
 40
0.3000000000000226
100
AcDbArc
 50
113.1458801392
 51
187.2338066265
  0
ARC
  5
104
330
1F
100
AcDbEntity
  8
0
  6
Continuous
 62
     7
370
    15
100
AcDbCircle
 10
73.7889138983
 20
379.7794362574
 30
0.0
 40
6.25000000000004
100
AcDbArc
 50
340.6997938583
 51
7.2338066265
  0
ARC
  5
105
330
1F
100
AcDbEntity
  8
0
  6
Continuous
 62
     7
370
    15
100
AcDbCircle
 10
79.4045224848
 20
377.8128554166
 30
0.0
 40
0.2999999999999607
100
AcDbArc
 50
282.3621362785
 51
340.6997938583
  0
ARC
  5
106
330
1F
100
AcDbEntity
  8
0
  6
Continuous
 62
     7
370
    15
100
AcDbCircle
 10
77.2208060172
 20
387.7763579327
 30
0.0
 40
10.49999999999998
100
AcDbArc
 50
279.4014843135
 51
282.3621362785
  0
ARC
  5
107
330
1F
100
AcDbEntity
  8
0
  6
Continuous
 62
     7
370
    15
100
AcDbCircle
 10
78.8869915261
 20
377.7133650454
 30
0.0
 40
0.2999999999999712
100
AcDbArc
 50
221.0638267337
 51
279.4014843135
  0
ARC
  5
108
330
1F
100
AcDbEntity
  8
0
  6
Continuous
 62
     7
370
    15
100
AcDbCircle
 10
83.3731622391
 20
381.6219162264
 30
0.0
 40
6.250000000000034
100
AcDbArc
 50
194.5298139655
 51
221.0638267337
  0
ARC
  5
109
330
1F
100
AcDbEntity
  8
0
  6
Continuous
 62
     7
370
    15
100
AcDbCircle
 10
77.0326494244
 20
379.9786276799
 30
0.0
 40
0.2999999999999977
100
AcDbArc
 50
14.5298139655
 51
88.6177404528
  0
ARC
  5
10A
330
1F
100
AcDbEntity
  8
0
  6
Continuous
 62
     7
370
    15
100
AcDbCircle
 10
77.2208060172
 20
387.7763579327
 30
0.0
 40
7.50000000000001
100
AcDbArc
 50
263.1458801392
 51
268.6177404528
  0
ARC
  5
10B
330
1F
100
AcDbEntity
  8
0
  6
Continuous
 62
     7
370
    15
100
AcDbCircle
 10
76.289939661
 20
380.0321027828
 30
0.0
 40
0.3000000000000002
100
AcDbArc
 50
83.1458801392
 51
157.2338066265
  0
ARC
  5
10C
330
1F
100
AcDbEntity
  8
0
  6
Continuous
 62
     7
370
    15
100
AcDbCircle
 10
70.2502394215
 20
382.5667666692
 30
0.0
 40
6.25000000000006
100
AcDbArc
 50
310.6997938583
 51
337.2338066265
  0
ARC
  5
10D
330
1F
100
AcDbEntity
  8
0
  6
Continuous
 62
     7
370
    15
100
AcDbCircle
 10
74.1302086947
 20
378.0558534093
 30
0.0
 40
0.2999999999999241
100
AcDbArc
 50
252.3621362785
 51
310.6997938583
  0
ARC
  5
10E
330
1F
100
AcDbEntity
  8
0
  6
Continuous
 62
     7
370
    15
100
AcDbCircle
 10
77.2208060172
 20
387.7763579327
 30
0.0
 40
10.49999999999997
100
AcDbArc
 50
249.4014843135
 51
252.3621362785
  0
ARC
  5
10F
330
1F
100
AcDbEntity
  8
0
  6
Continuous
 62
     7
370
    15
100
AcDbCircle
 10
73.6322685517
 20
378.2284576998
 30
0.0
 40
0.299999999999944
100
AcDbArc
 50
191.0638267337
 51
249.4014843135
  0
ARC
  5
110
330
1F
100
AcDbEntity
  8
0
  6
Continuous
 62
     7
370
    15
100
AcDbCircle
 10
79.4716819453
 20
379.370276958
 30
0.0
 40
6.250000000000046
100
AcDbArc
 50
164.5298139655
 51
191.0638267337
  0
ARC
  5
111
330
1F
100
AcDbEntity
  8
0
  6
Continuous
 62
     7
370
    15
100
AcDbCircle
 10
73.1589925015
 20
381.1174037383
 30
0.0
 40
0.3000000000000342
100
AcDbArc
 50
344.5298139655
 51
58.6177404528
  0
ARC
  5
112
330
1F
100
AcDbEntity
  8
0
  6
Continuous
 62
     7
370
    15
100
AcDbCircle
 10
77.2208060172
 20
387.7763579327
 30
0.0
 40
7.500000000000033
100
AcDbArc
 50
233.1458801392
 51
238.6177404528
  0
ARC
  5
113
330
1F
100
AcDbEntity
  8
0
  6
Continuous
 62
     7
370
    15
100
AcDbCircle
 10
72.5425245302
 20
381.5350694176
 30
0.0
 40
0.2999999999999782
100
AcDbArc
 50
53.1458801392
 51
127.2338066265
  0
ARC
  5
114
330
1F
100
AcDbEntity
  8
0
  6
Continuous
 62
     7
370
    15
100
AcDbCircle
 10
68.5793226348
 20
386.7500028531
 30
0.0
 40
6.250000000000083
100
AcDbArc
 50
280.6997938583
 51
307.2338066265
  0
ARC
  5
115
330
1F
100
AcDbEntity
  8
0
  6
Continuous
 62
     7
370
    15
100
AcDbCircle
 10
69.6840179614
 20
380.9034527391
 30
0.0
 40
0.3000000000000547
100
AcDbArc
 50
222.3621362785
 51
280.6997938581
  0
ARC
  5
116
330
1F
100
AcDbEntity
  8
0
  6
Continuous
 62
     7
370
    15
100
AcDbCircle
 10
77.2208060172
 20
387.7763579327
 30
0.0
 40
10.49999999999935
100
AcDbArc
 50
219.4014843135
 51
222.3621362785
  0
ARC
  5
117
330
1F
100
AcDbEntity
  8
0
  6
Continuous
 62
     7
370
    15
100
AcDbCircle
 10
69.3390912932
 20
381.3019025109
 30
0.0
 40
0.3000000000009555
100
AcDbArc
 50
161.0638267339
 51
219.4014843135
  0
ARC
  5
118
330
1F
100
AcDbEntity
  8
0
  6
Continuous
 62
     7
370
    15
100
AcDbCircle
 10
74.9670812643
 20
379.3710402983
 30
0.0
 40
6.250000000000023
100
AcDbArc
 50
134.5298139655
 51
161.0638267337
  0
ARC
  5
119
330
1F
100
AcDbEntity
  8
0
  6
Continuous
 62
     7
370
    15
100
AcDbCircle
 10
70.37369523
 20
384.0404411955
 30
0.0
 40
0.3000000000006063
100
AcDbArc
 50
314.5298139655
 51
28.6177404528
  0
ARC
  5
11A
330
1F
100
AcDbEntity
  8
0
  6
Continuous
 62
     7
370
    15
100
AcDbCircle
 10
77.2208060172
 20
387.7763579327
 30
0.0
 40
7.500000000000012
100
AcDbArc
 50
203.1458801392
 51
208.6177404528
  0
ARC
  5
11B
330
1F
100
AcDbEntity
  8
0
  6
Continuous
 62
     7
370
    15
100
AcDbCircle
 10
70.0486511459
 20
384.7103842698
 30
0.0
 40
0.2999999999999834
100
AcDbArc
 50
23.1458801392
 51
97.2338066265
  0
ARC
  5
11C
330
1F
100
AcDbEntity
  8
0
  6
Continuous
 62
     7
370
    15
100
AcDbCircle
 10
69.2238843418
 20
391.2082500516
 30
0.0
 40
6.249999999999999
100
AcDbArc
 50
250.6997938583
 51
277.2338066265
  0
ARC
  5
11D
330
1F
100
AcDbEntity
  8
0
  6
Continuous
 62
     7
370
    15
100
AcDbCircle
 10
67.2573035011
 20
385.5926414651
 30
0.0
 40
0.3000000000003032
100
AcDbArc
 50
192.3621362785
 51
250.6997938581
  0
ARC
  5
11E
330
1F
100
AcDbEntity
  8
0
  6
Continuous
 62
     7
370
    15
100
AcDbCircle
 10
77.2208060172
 20
387.7763579327
 30
0.0
 40
10.49999999999937
100
AcDbArc
 50
189.4014843135
 51
192.3621362785
  0
ARC
  5
11F
330
1F
100
AcDbEntity
  8
0
  6
Continuous
 62
     7
370
    15
100
AcDbCircle
 10
67.1578131299
 20
386.1101724238
 30
0.0
 40
0.300000000000458
100
AcDbArc
 50
131.0638267339
 51
189.4014843135
  0
ARC
  5
120
330
1F
100
AcDbEntity
  8
0
  6
Continuous
 62
     7
370
    15
100
AcDbCircle
 10
71.0663643109
 20
381.6240017109
 30
0.0
 40
6.250000000000021
100
AcDbArc
 50
104.5298139655
 51
131.0638267337
  0
ARC
  5
121
330
1F
100
AcDbEntity
  8
0
  6
Continuous
 62
     7
370
    15
100
AcDbCircle
 10
69.4230757643
 20
387.9645145255
 30
0.0
 40
0.3000000000004541
100
AcDbArc
 50
284.5298139655
 51
358.6177404528
  0
ARC
  5
122
330
1F
100
AcDbEntity
  8
0
  6
Continuous
 62
     7
370
    15
100
AcDbCircle
 10
77.2208060172
 20
387.7763579327
 30
0.0
 40
7.500000000000012
100
AcDbArc
 50
173.1458801392
 51
178.6177404528
  0
ARC
  5
123
330
1F
100
AcDbEntity
  8
0
  6
Continuous
 62
     7
370
    15
100
AcDbCircle
 10
69.4765508673
 20
388.7072242889
 30
0.0
 40
0.2999999999999878
100
AcDbArc
 50
353.1458801392
 51
67.2338066265
  0
ARC
  5
124
330
1F
100
AcDbEntity
  8
0
  6
Continuous
 62
     7
370
    15
100
AcDbCircle
 10
72.0112147537
 20
394.7469245284
 30
0.0
 40
6.250000000000064
100
AcDbArc
 50
220.6997938583
 51
247.2338066265
  0
ARC
  5
125
330
1F
100
AcDbEntity
  8
0
  6
Continuous
 62
     7
370
    15
100
AcDbCircle
 10
67.5003014938
 20
390.8669552552
 30
0.0
 40
0.3000000000003105
100
AcDbArc
 50
162.3621362785
 51
220.6997938579
  0
ARC
  5
126
330
1F
100
AcDbEntity
  8
0
  6
Continuous
 62
     7
370
    15
100
AcDbCircle
 10
77.2208060172
 20
387.7763579327
 30
0.0
 40
10.49999999999971
100
AcDbArc
 50
159.4014843135
 51
162.3621362785
  0
ARC
  5
127
330
1F
100
AcDbEntity
  8
0
  6
Continuous
 62
     7
370
    15
100
AcDbCircle
 10
67.6729057843
 20
391.3648953982
 30
0.0
 40
0.3000000000000951
100
AcDbArc
 50
101.0638267341
 51
159.4014843135
  0
ARC
  5
128
330
1F
100
AcDbEntity
  8
0
  6
Continuous
 62
     7
370
    15
100
AcDbCircle
 10
120.2489604327
 20
392.0313539532
 30
0.0
 40
0.3000000000000145
100
AcDbArc
 50
180.0
 51
225.0
  0
ARC
  5
129
330
1F
100
AcDbEntity
  8
0
  6
Continuous
 62
     7
370
    15
100
AcDbCircle
 10
120.2489604327
 20
401.4083271328
 30
0.0
 40
0.2999999999999972
100
AcDbArc
 50
45.0
 51
180.0
  0
ARC
  5
12A
330
1F
100
AcDbEntity
  8
0
  6
Continuous
 62
     7
370
    15
100
AcDbCircle
 10
132.6784206134
 20
388.9788669521
 30
0.0
 40
0.3000000000000145
100
AcDbArc
 50
0.0
 51
45.0
  0
ARC
  5
12B
330
1F
100
AcDbEntity
  8
0
  6
Continuous
 62
     7
370
    15
100
AcDbCircle
 10
135.4641062691
 20
371.4269708061
 30
0.0
 40
0.3000000000000601
100
AcDbArc
 50
137.8762198128
 51
212.7257764182
  0
CIRCLE
  5
12C
330
1F
100
AcDbEntity
  8
0
  6
Continuous
 62
     7
370
    15
100
AcDbCircle
 10
128.9442819688
 20
367.237174738
 30
0.0
 40
1.5
  0
CIRCLE
  5
12D
330
1F
100
AcDbEntity
  8
0
  6
Continuous
 62
     7
370
    15
100
AcDbCircle
 10
128.9442819688
 20
377.1330384428
 30
0.0
 40
1.500000000000014
  0
ARC
  5
12E
330
1F
100
AcDbEntity
  8
0
  6
Continuous
 62
     7
370
    15
100
AcDbCircle
 10
130.6059875033
 20
375.8202818647
 30
0.0
 40
6.249999999999988
100
AcDbArc
 50
317.8762198128
 51
344.1846615561
  0
ARC
  5
12F
330
1F
100
AcDbEntity
  8
0
  6
Continuous
 62
     7
370
    15
100
AcDbCircle
 10
136.3307506573
 20
374.1986817813
 30
0.0
 40
0.2999999999999899
100
AcDbArc
 50
344.1846615561
 51
43.3034963882
  0
ARC
  5
130
330
1F
100
AcDbEntity
  8
0
  6
Continuous
 62
     7
370
    15
100
AcDbCircle
 10
128.9442819688
 20
367.237174738
 30
0.0
 40
10.45000000004782
100
AcDbArc
 50
43.3034963882
 51
46.6965036118
  0
ARC
  5
131
330
1F
100
AcDbEntity
  8
0
  6
Continuous
 62
     7
370
    15
100
AcDbCircle
 10
135.905789012
 20
374.6236434266
 30
0.0
 40
0.3000000000000917
100
AcDbArc
 50
46.6965036118
 51
105.8153384441
  0
ARC
  5
132
330
1F
100
AcDbEntity
  8
0
  6
Continuous
 62
     7
370
    15
100
AcDbCircle
 10
137.5273890955
 20
368.8988802725
 30
0.0
 40
6.250000000101861
100
AcDbArc
 50
105.8153384441
 51
132.123780187
  0
ARC
  5
133
330
1F
100
AcDbEntity
  8
0
  6
Continuous
 62
     7
370
    15
100
AcDbCircle
 10
133.1340780369
 20
373.7569990384
 30
0.0
 40
0.3000000000000927
100
AcDbArc
 50
238.7443152244
 51
312.1237801868
  0
LINE
  5
134
330
1F
100
AcDbEntity
  8
0
  6
Continuous
 62
     7
370
    15
100
AcDbLine
 10
132.9784206134
 20
388.9788669521
 30
0.0
 11
132.9784206134
 21
373.5005409199
 31
0.0
  0
LINE
  5
135
330
1F
100
AcDbEntity
  8
0
  6
Continuous
 62
     7
370
    15
100
AcDbLine
 10
132.8905526477
 20
389.1909989865
 30
0.0
 11
120.4610924671
 21
401.6204591671
 31
0.0
  0
LINE
  5
136
330
1F
100
AcDbEntity
  8
0
  6
Continuous
 62
     7
370
    15
100
AcDbLine
 10
119.9489604327
 20
401.4083271328
 30
0.0
 11
119.9489604327
 21
392.0313539532
 31
0.0
  0
LINE
  5
137
330
1F
100
AcDbEntity
  8
0
  6
Continuous
 62
     7
370
    15
100
AcDbLine
 10
120.0368283984
 20
391.8192219189
 30
0.0
 11
124.9665981855
 21
386.8894521318
 31
0.0
  0
LINE
  5
138
330
1F
100
AcDbEntity
  8
0
  6
Continuous
 62
     7
370
    15
100
AcDbLine
 10
124.9665981855
 20
386.8894521318
 30
0.0
 11
124.9665981855
 21
373.5364232424
 31
0.0
  0
ARC
  5
139
330
1F
100
AcDbEntity
  8
0
  6
Continuous
 62
     7
370
    15
100
AcDbCircle
 10
128.9442819688
 20
367.237174738
 30
0.0
 40
7.449999999999971
100
AcDbArc
 50
122.2705141979
 51
122.7257764182
  0
ARC
  5
13A
330
1F
100
AcDbEntity
  8
0
  6
Continuous
 62
     7
370
    15
100
AcDbCircle
 10
124.7544859006
 20
373.7569990384
 30
0.0
 40
0.3000000000000315
100
AcDbArc
 50
227.8762198128
 51
302.7257764182
  0
ARC
  5
13B
330
1F
100
AcDbEntity
  8
0
  6
Continuous
 62
     7
370
    15
100
AcDbCircle
 10
120.3611748421
 20
368.8988802726
 30
0.0
 40
6.249999999999988
100
AcDbArc
 50
47.8762198128
 51
74.1846615561
  0
ARC
  5
13C
330
1F
100
AcDbEntity
  8
0
  6
Continuous
 62
     7
370
    15
100
AcDbCircle
 10
121.9827749255
 20
374.6236434266
 30
0.0
 40
0.2999999999999615
100
AcDbArc
 50
74.1846615561
 51
133.3034963882
  0
ARC
  5
13D
330
1F
100
AcDbEntity
  8
0
  6
Continuous
 62
     7
370
    15
100
AcDbCircle
 10
128.9442819688
 20
367.237174738
 30
0.0
 40
10.4500000000478
100
AcDbArc
 50
133.3034963882
 51
136.6965036118
  0
ARC
  5
13E
330
1F
100
AcDbEntity
  8
0
  6
Continuous
 62
     7
370
    15
100
AcDbCircle
 10
121.5578132802
 20
374.1986817813
 30
0.0
 40
0.3000000000000252
100
AcDbArc
 50
136.6965036118
 51
195.8153384442
  0
ARC
  5
13F
330
1F
100
AcDbEntity
  8
0
  6
Continuous
 62
     7
370
    15
100
AcDbCircle
 10
127.2825764343
 20
375.8202818647
 30
0.0
 40
6.250000000101879
100
AcDbArc
 50
195.8153384441
 51
222.123780187
  0
ARC
  5
140
330
1F
100
AcDbEntity
  8
0
  6
Continuous
 62
     7
370
    15
100
AcDbCircle
 10
122.4244576684
 20
371.4269708061
 30
0.0
 40
0.3000000000000573
100
AcDbArc
 50
327.2742235818
 51
42.123780187
  0
ARC
  5
141
330
1F
100
AcDbEntity
  8
0
  6
Continuous
 62
     7
370
    15
100
AcDbCircle
 10
128.9442819688
 20
367.237174738
 30
0.0
 40
7.449999999999954
100
AcDbArc
 50
147.2742235818
 51
152.7257764182
  0
ARC
  5
142
330
1F
100
AcDbEntity
  8
0
  6
Continuous
 62
     7
370
    15
100
AcDbCircle
 10
122.0558999869
 20
370.7886101763
 30
0.0
 40
0.3000000000000541
100
AcDbArc
 50
257.8762198128
 51
332.7257764182
  0
ARC
  5
143
330
1F
100
AcDbEntity
  8
0
  6
Continuous
 62
     7
370
    15
100
AcDbCircle
 10
120.6802403863
 20
364.3847003812
 30
0.0
 40
6.250000000000052
100
AcDbArc
 50
77.8762198128
 51
104.1846615561
  0
ARC
  5
144
330
1F
100
AcDbEntity
  8
0
  6
Continuous
 62
     7
370
    15
100
AcDbCircle
 10
119.2222056764
 20
370.1532907449
 30
0.0
 40
0.3000000000000088
100
AcDbArc
 50
104.1846615561
 51
163.3034963882
  0
ARC
  5
145
330
1F
100
AcDbEntity
  8
0
  6
Continuous
 62
     7
370
    15
100
AcDbCircle
 10
128.9442819688
 20
367.237174738
 30
0.0
 40
10.45000000004778
100
AcDbArc
 50
163.3034963882
 51
166.6965036118
  0
ARC
  5
146
330
1F
100
AcDbEntity
  8
0
  6
Continuous
 62
     7
370
    15
100
AcDbCircle
 10
119.0666589186
 20
369.5727823418
 30
0.0
 40
0.2999999999999961
100
AcDbArc
 50
166.6965036118
 51
225.8153384442
  0
ARC
  5
147
330
1F
100
AcDbEntity
  8
0
  6
Continuous
 62
     7
370
    15
100
AcDbCircle
 10
123.2136491989
 20
373.8395107859
 30
0.0
 40
6.250000000101794
100
AcDbArc
 50
225.8153384441
 51
252.123780187
  0
ARC
  5
148
330
1F
100
AcDbEntity
  8
0
  6
Continuous
 62
     7
370
    15
100
AcDbCircle
 10
121.2030504624
 20
367.6057324195
 30
0.0
 40
0.3000000000000759
100
AcDbArc
 50
357.2742235818
 51
72.123780187
  0
ARC
  5
149
330
1F
100
AcDbEntity
  8
0
  6
Continuous
 62
     7
370
    15
100
AcDbCircle
 10
128.9442819688
 20
367.237174738
 30
0.0
 40
7.44999999999999
100
AcDbArc
 50
177.2742235818
 51
182.7257764182
  0
ARC
  5
14A
330
1F
100
AcDbEntity
  8
0
  6
Continuous
 62
     7
370
    15
100
AcDbCircle
 10
121.2030504624
 20
366.8686170565
 30
0.0
 40
0.3000000000000018
100
AcDbArc
 50
287.8762198128
 51
2.7257764182
  0
ARC
  5
14B
330
1F
100
AcDbEntity
  8
0
  6
Continuous
 62
     7
370
    15
100
AcDbCircle
 10
123.2136491989
 20
360.6348386902
 30
0.0
 40
6.25000000000006
100
AcDbArc
 50
107.8762198128
 51
134.1846615561
  0
ARC
  5
14C
330
1F
100
AcDbEntity
  8
0
  6
Continuous
 62
     7
370
    15
100
AcDbCircle
 10
119.0666589185
 20
364.9015671342
 30
0.0
 40
0.299999999999999
100
AcDbArc
 50
134.1846615561
 51
193.3034963882
  0
ARC
  5
14D
330
1F
100
AcDbEntity
  8
0
  6
Continuous
 62
     7
370
    15
100
AcDbCircle
 10
128.9442819688
 20
367.237174738
 30
0.0
 40
10.45000000004782
100
AcDbArc
 50
193.3034963882
 51
196.6965036118
  0
ARC
  5
14E
330
1F
100
AcDbEntity
  8
0
  6
Continuous
 62
     7
370
    15
100
AcDbCircle
 10
119.2222056764
 20
364.3210587311
 30
0.0
 40
0.3000000000000163
100
AcDbArc
 50
196.6965036118
 51
255.8153384441
  0
ARC
  5
14F
330
1F
100
AcDbEntity
  8
0
  6
Continuous
 62
     7
370
    15
100
AcDbCircle
 10
120.6802403863
 20
370.0896490949
 30
0.0
 40
6.2500000001018
100
AcDbArc
 50
255.8153384441
 51
282.123780187
  0
ARC
  5
150
330
1F
100
AcDbEntity
  8
0
  6
Continuous
 62
     7
370
    15
100
AcDbCircle
 10
122.0558999869
 20
363.6857392997
 30
0.0
 40
0.3000000000000873
100
AcDbArc
 50
27.2742235818
 51
102.123780187
  0
ARC
  5
151
330
1F
100
AcDbEntity
  8
0
  6
Continuous
 62
     7
370
    15
100
AcDbCircle
 10
128.9442819688
 20
367.237174738
 30
0.0
 40
7.450000000000029
100
AcDbArc
 50
207.2742235818
 51
212.7257764182
  0
ARC
  5
152
330
1F
100
AcDbEntity
  8
0
  6
Continuous
 62
     7
370
    15
100
AcDbCircle
 10
122.4244576684
 20
363.0473786699
 30
0.0
 40
0.2999999999999994
100
AcDbArc
 50
317.8762198128
 51
32.7257764182
  0
ARC
  5
153
330
1F
100
AcDbEntity
  8
0
  6
Continuous
 62
     7
370
    15
100
AcDbCircle
 10
127.2825764342
 20
358.6540676113
 30
0.0
 40
6.250000000000016
100
AcDbArc
 50
137.8762198128
 51
164.1846615561
  0
ARC
  5
154
330
1F
100
AcDbEntity
  8
0
  6
Continuous
 62
     7
370
    15
100
AcDbCircle
 10
121.5578132802
 20
360.2756676947
 30
0.0
 40
0.2999999999999888
100
AcDbArc
 50
164.1846615561
 51
223.3034963882
  0
ARC
  5
155
330
1F
100
AcDbEntity
  8
0
  6
Continuous
 62
     7
370
    15
100
AcDbCircle
 10
128.9442819688
 20
367.237174738
 30
0.0
 40
10.45000000004785
100
AcDbArc
 50
223.3034963882
 51
226.6965036118
  0
ARC
  5
156
330
1F
100
AcDbEntity
  8
0
  6
Continuous
 62
     7
370
    15
100
AcDbCircle
 10
121.9827749255
 20
359.8507060494
 30
0.0
 40
0.299999999999994
100
AcDbArc
 50
226.6965036118
 51
285.8153384442
  0
ARC
  5
157
330
1F
100
AcDbEntity
  8
0
  6
Continuous
 62
     7
370
    15
100
AcDbCircle
 10
120.361174842
 20
365.5754692035
 30
0.0
 40
6.25000000010183
100
AcDbArc
 50
285.8153384441
 51
312.123780187
  0
ARC
  5
158
330
1F
100
AcDbEntity
  8
0
  6
Continuous
 62
     7
370
    15
100
AcDbCircle
 10
124.7544859006
 20
360.7173504376
 30
0.0
 40
0.3000000000000689
100
AcDbArc
 50
57.2742235818
 51
132.123780187
  0
ARC
  5
159
330
1F
100
AcDbEntity
  8
0
  6
Continuous
 62
     7
370
    15
100
AcDbCircle
 10
128.9442819688
 20
367.237174738
 30
0.0
 40
7.450000000000011
100
AcDbArc
 50
237.2742235818
 51
242.7257764182
  0
ARC
  5
15A
330
1F
100
AcDbEntity
  8
0
  6
Continuous
 62
     7
370
    15
100
AcDbCircle
 10
125.3928465305
 20
360.3487927561
 30
0.0
 40
0.3000000000000263
100
AcDbArc
 50
347.8762198128
 51
62.7257764182
  0
ARC
  5
15B
330
1F
100
AcDbEntity
  8
0
  6
Continuous
 62
     7
370
    15
100
AcDbCircle
 10
131.7967563255
 20
358.9731331556
 30
0.0
 40
6.250000000000045
100
AcDbArc
 50
167.8762198128
 51
194.1846615561
  0
ARC
  5
15C
330
1F
100
AcDbEntity
  8
0
  6
Continuous
 62
     7
370
    15
100
AcDbCircle
 10
126.0281659618
 20
357.5150984456
 30
0.0
 40
0.3000000000000088
100
AcDbArc
 50
194.1846615561
 51
253.3034963882
  0
ARC
  5
15D
330
1F
100
AcDbEntity
  8
0
  6
Continuous
 62
     7
370
    15
100
AcDbCircle
 10
128.9442819688
 20
367.237174738
 30
0.0
 40
10.45000000004788
100
AcDbArc
 50
253.3034963882
 51
256.6965036118
  0
ARC
  5
15E
330
1F
100
AcDbEntity
  8
0
  6
Continuous
 62
     7
370
    15
100
AcDbCircle
 10
126.6086743649
 20
357.3595516878
 30
0.0
 40
0.2999999999999731
100
AcDbArc
 50
256.6965036118
 51
315.8153384442
  0
ARC
  5
15F
330
1F
100
AcDbEntity
  8
0
  6
Continuous
 62
     7
370
    15
100
AcDbCircle
 10
122.3419459208
 20
361.5065419681
 30
0.0
 40
6.250000000101856
100
AcDbArc
 50
315.8153384441
 51
342.123780187
  0
ARC
  5
160
330
1F
100
AcDbEntity
  8
0
  6
Continuous
 62
     7
370
    15
100
AcDbCircle
 10
128.5757242873
 20
359.4959432316
 30
0.0
 40
0.3000000000000803
100
AcDbArc
 50
87.2742235818
 51
162.123780187
  0
ARC
  5
161
330
1F
100
AcDbEntity
  8
0
  6
Continuous
 62
     7
370
    15
100
AcDbCircle
 10
128.9442819688
 20
367.237174738
 30
0.0
 40
7.450000000000029
100
AcDbArc
 50
267.2742235818
 51
272.7257764182
  0
ARC
  5
162
330
1F
100
AcDbEntity
  8
0
  6
Continuous
 62
     7
370
    15
100
AcDbCircle
 10
129.3128396502
 20
359.4959432316
 30
0.0
 40
0.3000000000000787
100
AcDbArc
 50
17.8762198128
 51
92.7257764182
  0
ARC
  5
163
330
1F
100
AcDbEntity
  8
0
  6
Continuous
 62
     7
370
    15
100
AcDbCircle
 10
135.5466180166
 20
361.5065419681
 30
0.0
 40
6.250000000000044
100
AcDbArc
 50
197.8762198128
 51
224.1846615561
  0
ARC
  5
164
330
1F
100
AcDbEntity
  8
0
  6
Continuous
 62
     7
370
    15
100
AcDbCircle
 10
131.2798895726
 20
357.3595516878
 30
0.0
 40
0.300000000000039
100
AcDbArc
 50
224.1846615561
 51
283.3034963882
  0
ARC
  5
165
330
1F
100
AcDbEntity
  8
0
  6
Continuous
 62
     7
370
    15
100
AcDbCircle
 10
128.9442819688
 20
367.237174738
 30
0.0
 40
10.45000000004789
100
AcDbArc
 50
283.3034963882
 51
286.6965036118
  0
ARC
  5
166
330
1F
100
AcDbEntity
  8
0
  6
Continuous
 62
     7
370
    15
100
AcDbCircle
 10
131.8603979757
 20
357.5150984456
 30
0.0
 40
0.2999999999999938
100
AcDbArc
 50
286.6965036118
 51
345.8153384442
  0
ARC
  5
167
330
1F
100
AcDbEntity
  8
0
  6
Continuous
 62
     7
370
    15
100
AcDbCircle
 10
126.0918076119
 20
358.9731331556
 30
0.0
 40
6.250000000101806
100
AcDbArc
 50
345.8153384441
 51
12.123780187
  0
ARC
  5
168
330
1F
100
AcDbEntity
  8
0
  6
Continuous
 62
     7
370
    15
100
AcDbCircle
 10
132.495717407
 20
360.3487927561
 30
0.0
 40
0.3000000000000773
100
AcDbArc
 50
117.2742235818
 51
192.123780187
  0
ARC
  5
169
330
1F
100
AcDbEntity
  8
0
  6
Continuous
 62
     7
370
    15
100
AcDbCircle
 10
128.9442819688
 20
367.237174738
 30
0.0
 40
7.450000000000035
100
AcDbArc
 50
297.2742235818
 51
302.7257764182
  0
ARC
  5
16A
330
1F
100
AcDbEntity
  8
0
  6
Continuous
 62
     7
370
    15
100
AcDbCircle
 10
133.1340780369
 20
360.7173504376
 30
0.0
 40
0.3000000000000352
100
AcDbArc
 50
47.8762198128
 51
122.7257764182
  0
ARC
  5
16B
330
1F
100
AcDbEntity
  8
0
  6
Continuous
 62
     7
370
    15
100
AcDbCircle
 10
137.5273890955
 20
365.5754692034
 30
0.0
 40
6.249999999999988
100
AcDbArc
 50
227.8762198128
 51
254.1846615561
  0
ARC
  5
16C
330
1F
100
AcDbEntity
  8
0
  6
Continuous
 62
     7
370
    15
100
AcDbCircle
 10
135.905789012
 20
359.8507060494
 30
0.0
 40
0.3000000000000084
100
AcDbArc
 50
254.1846615561
 51
313.3034963882
  0
ARC
  5
16D
330
1F
100
AcDbEntity
  8
0
  6
Continuous
 62
     7
370
    15
100
AcDbCircle
 10
128.9442819688
 20
367.237174738
 30
0.0
 40
10.45000000004789
100
AcDbArc
 50
313.3034963882
 51
316.6965036118
  0
ARC
  5
16E
330
1F
100
AcDbEntity
  8
0
  6
Continuous
 62
     7
370
    15
100
AcDbCircle
 10
136.3307506573
 20
360.2756676947
 30
0.0
 40
0.3000000000000265
100
AcDbArc
 50
316.6965036118
 51
15.8153384442
  0
ARC
  5
16F
330
1F
100
AcDbEntity
  8
0
  6
Continuous
 62
     7
370
    15
100
AcDbCircle
 10
130.6059875032
 20
358.6540676112
 30
0.0
 40
6.250000000101841
100
AcDbArc
 50
15.8153384441
 51
42.123780187
  0
ARC
  5
170
330
1F
100
AcDbEntity
  8
0
  6
Continuous
 62
     7
370
    15
100
AcDbCircle
 10
135.4641062691
 20
363.0473786699
 30
0.0
 40
0.3000000000000573
100
AcDbArc
 50
147.2742235818
 51
222.123780187
  0
ARC
  5
171
330
1F
100
AcDbEntity
  8
0
  6
Continuous
 62
     7
370
    15
100
AcDbCircle
 10
128.9442819688
 20
367.237174738
 30
0.0
 40
7.45000000000003
100
AcDbArc
 50
327.2742235818
 51
332.7257764182
  0
ARC
  5
172
330
1F
100
AcDbEntity
  8
0
  6
Continuous
 62
     7
370
    15
100
AcDbCircle
 10
135.8326639506
 20
363.6857392997
 30
0.0
 40
0.3000000000000007
100
AcDbArc
 50
77.8762198128
 51
152.7257764182
  0
ARC
  5
173
330
1F
100
AcDbEntity
  8
0
  6
Continuous
 62
     7
370
    15
100
AcDbCircle
 10
137.2083235512
 20
370.0896490948
 30
0.0
 40
6.250000000000052
100
AcDbArc
 50
257.8762198128
 51
284.1846615561
  0
ARC
  5
174
330
1F
100
AcDbEntity
  8
0
  6
Continuous
 62
     7
370
    15
100
AcDbCircle
 10
138.6663582611
 20
364.3210587311
 30
0.0
 40
0.3000000000000088
100
AcDbArc
 50
284.1846615561
 51
343.3034963882
  0
ARC
  5
175
330
1F
100
AcDbEntity
  8
0
  6
Continuous
 62
     7
370
    15
100
AcDbCircle
 10
128.9442819688
 20
367.237174738
 30
0.0
 40
10.45000000004784
100
AcDbArc
 50
343.3034963882
 51
346.6965036118
  0
ARC
  5
176
330
1F
100
AcDbEntity
  8
0
  6
Continuous
 62
     7
370
    15
100
AcDbCircle
 10
138.821905019
 20
364.9015671342
 30
0.0
 40
0.2999999999999961
100
AcDbArc
 50
346.6965036118
 51
45.8153384442
  0
ARC
  5
177
330
1F
100
AcDbEntity
  8
0
  6
Continuous
 62
     7
370
    15
100
AcDbCircle
 10
134.6749147386
 20
360.6348386901
 30
0.0
 40
6.250000000101785
100
AcDbArc
 50
45.8153384441
 51
72.123780187
  0
ARC
  5
178
330
1F
100
AcDbEntity
  8
0
  6
Continuous
 62
     7
370
    15
100
AcDbCircle
 10
136.6855134751
 20
366.8686170565
 30
0.0
 40
0.2999999999999807
100
AcDbArc
 50
177.2742235817
 51
252.123780187
  0
ARC
  5
179
330
1F
100
AcDbEntity
  8
0
  6
Continuous
 62
     7
370
    15
100
AcDbCircle
 10
128.9442819688
 20
367.237174738
 30
0.0
 40
7.45000000000008
100
AcDbArc
 50
357.2742235818
 51
2.7257764182
  0
ARC
  5
17A
330
1F
100
AcDbEntity
  8
0
  6
Continuous
 62
     7
370
    15
100
AcDbCircle
 10
136.6855134751
 20
367.6057324195
 30
0.0
 40
0.300000000000022
100
AcDbArc
 50
107.8762198128
 51
182.7257764182
  0
ARC
  5
17B
330
1F
100
AcDbEntity
  8
0
  6
Continuous
 62
     7
370
    15
100
AcDbCircle
 10
134.6749147387
 20
373.8395107858
 30
0.0
 40
6.250000000000052
100
AcDbArc
 50
287.8762198128
 51
314.1846615561
  0
ARC
  5
17C
330
1F
100
AcDbEntity
  8
0
  6
Continuous
 62
     7
370
    15
100
AcDbCircle
 10
138.821905019
 20
369.5727823418
 30
0.0
 40
0.2999999999999801
100
AcDbArc
 50
314.1846615561
 51
13.3034963882
  0
ARC
  5
17D
330
1F
100
AcDbEntity
  8
0
  6
Continuous
 62
     7
370
    15
100
AcDbCircle
 10
128.9442819688
 20
367.237174738
 30
0.0
 40
10.45000000004782
100
AcDbArc
 50
13.3034963882
 51
16.6965036118
  0
ARC
  5
17E
330
1F
100
AcDbEntity
  8
0
  6
Continuous
 62
     7
370
    15
100
AcDbCircle
 10
138.6663582611
 20
370.1532907449
 30
0.0
 40
0.3000000000000128
100
AcDbArc
 50
16.6965036118
 51
75.8153384442
  0
ARC
  5
17F
330
1F
100
AcDbEntity
  8
0
  6
Continuous
 62
     7
370
    15
100
AcDbCircle
 10
137.2083235512
 20
364.3847003811
 30
0.0
 40
6.250000000101798
100
AcDbArc
 50
75.8153384441
 51
102.123780187
  0
ARC
  5
180
330
1F
100
AcDbEntity
  8
0
  6
Continuous
 62
     7
370
    15
100
AcDbCircle
 10
135.8326639506
 20
370.7886101763
 30
0.0
 40
0.300000000000163
100
AcDbArc
 50
207.2742235818
 51
282.1237801871
  0
ARC
  5
181
330
1F
100
AcDbEntity
  8
0
  6
Continuous
 62
     7
370
    15
100
AcDbCircle
 10
128.9442819688
 20
367.237174738
 30
0.0
 40
7.449999999999981
100
AcDbArc
 50
27.2742235818
 51
32.7257764182
  0
CIRCLE
  5
182
330
1F
100
AcDbEntity
  8
0
  6
Continuous
 62
     7
370
    15
100
AcDbCircle
 10
177.9055224388
 20
334.2168145565
 30
0.0
 40
1.5
  0
CIRCLE
  5
183
330
1F
100
AcDbEntity
  8
0
  6
Continuous
 62
     7
370
    15
100
AcDbCircle
 10
177.9055224388
 20
334.2168145565
 30
0.0
 40
5.0
  0
CIRCLE
  5
184
330
1F
100
AcDbEntity
  8
0
  6
Continuous
 62
     7
370
    15
100
AcDbCircle
 10
188.0834102812
 20
315.3740197348
 30
0.0
 40
1.5
  0
LINE
  5
185
330
1F
100
AcDbEntity
  8
0
  6
Continuous
 62
     7
370
    15
100
AcDbLine
 10
188.0834102812
 20
317.7740197348
 30
0.0
 11
170.8837488769
 21
317.7740197348
 31
0.0
  0
ARC
  5
186
330
1F
100
AcDbEntity
  8
0
  6
Continuous
 62
     7
370
    15
100
AcDbCircle
 10
188.0834102812
 20
315.3740197348
 30
0.0
 40
2.400000000000034
100
AcDbArc
 50
270.0
 51
90.0
  0
LINE
  5
187
330
1F
100
AcDbEntity
  8
0
  6
Continuous
 62
     7
370
    15
100
AcDbLine
 10
170.8837488769
 20
312.9740197348
 30
0.0
 11
188.0834102812
 21
312.9740197348
 31
0.0
  0
ARC
  5
188
330
1F
100
AcDbEntity
  8
0
  6
Continuous
 62
     7
370
    15
100
AcDbCircle
 10
170.8837488769
 20
315.3740197348
 30
0.0
 40
2.400000000000034
100
AcDbArc
 50
90.0
 51
270.0
  0
CIRCLE
  5
189
330
1F
100
AcDbEntity
  8
0
  6
Continuous
 62
     7
370
    15
100
AcDbCircle
 10
170.8837488769
 20
315.3740197348
 30
0.0
 40
1.5
  0
ARC
  5
18A
330
1F
100
AcDbEntity
  8
0
  6
Continuous
 62
     7
370
    15
100
AcDbCircle
 10
224.7575071424
 20
331.1040083504
 30
0.0
 40
1.100000000000023
100
AcDbArc
 50
270.0
 51
90.0
  0
LINE
  5
18B
330
1F
100
AcDbEntity
  8
0
  6
Continuous
 62
     7
370
    15
100
AcDbLine
 10
224.7575071424
 20
332.2040083504
 30
0.0
 11
219.9039125464
 21
332.2040083504
 31
0.0
  0
ARC
  5
18C
330
1F
100
AcDbEntity
  8
0
  6
Continuous
 62
     7
370
    15
100
AcDbCircle
 10
219.9039125464
 20
331.1040083504
 30
0.0
 40
1.100000000000023
100
AcDbArc
 50
90.0
 51
270.0
  0
LINE
  5
18D
330
1F
100
AcDbEntity
  8
0
  6
Continuous
 62
     7
370
    15
100
AcDbLine
 10
219.9039125464
 20
330.0040083504
 30
0.0
 11
224.7575071424
 21
330.0040083504
 31
0.0
  0
CIRCLE
  5
18E
330
1F
100
AcDbEntity
  8
0
  6
Continuous
 62
     7
370
    15
100
AcDbCircle
 10
231.8378854565
 20
331.1040083504
 30
0.0
 40
1.350000000000023
  0
LINE
  5
18F
330
1F
100
AcDbEntity
  8
0
  6
Continuous
 62
     7
370
    15
100
AcDbLine
 10
215.8848941027
 20
328.1010678069
 30
0.0
 11
231.8378854565
 21
328.1040083504
 31
0.0
  0
ARC
  5
190
330
1F
100
AcDbEntity
  8
0
  6
Continuous
 62
     7
370
    15
100
AcDbCircle
 10
215.8854470792
 20
325.1010678579
 30
0.0
 40
3.000000000000026
100
AcDbArc
 50
90.0105610744
 51
135.0711383889
  0
ARC
  5
191
330
1F
100
AcDbEntity
  8
0
  6
Continuous
 62
     7
370
    15
100
AcDbCircle
 10
209.867581557
 20
331.1040083504
 30
0.0
 40
5.500000000000039
100
AcDbArc
 50
44.8725910874
 51
315.0711383889
  0
ARC
  5
192
330
1F
100
AcDbEntity
  8
0
  6
Continuous
 62
     7
370
    15
100
AcDbCircle
 10
215.8913396994
 20
337.1010357675
 30
0.0
 40
2.999999999999991
100
AcDbArc
 50
224.8725910874
 51
269.8845735075
  0
LINE
  5
193
330
1F
100
AcDbEntity
  8
0
  6
Continuous
 62
     7
370
    15
100
AcDbLine
 10
231.3862258039
 20
334.0698140686
 30
0.0
 11
215.8852959865
 21
334.1010418553
 31
0.0
  0
ARC
  5
194
330
1F
100
AcDbEntity
  8
0
  6
Continuous
 62
     7
370
    15
100
AcDbCircle
 10
231.8378854565
 20
331.1040083504
 30
0.0
 40
3.000000000000009
100
AcDbArc
 50
270.0
 51
98.6589876748
  0
CIRCLE
  5
195
330
1F
100
AcDbEntity
  8
0
  6
Continuous
 62
     7
370
    15
100
AcDbCircle
 10
209.867581557
 20
331.1040083504
 30
0.0
 40
3.75
  0
CIRCLE
  5
196
330
1F
100
AcDbEntity
  8
0
  6
Continuous
 62
     7
370
    15
100
AcDbCircle
 10
167.1967956481
 20
356.095661095
 30
0.0
 40
3.450000000000017
  0
CIRCLE
  5
197
330
1F
100
AcDbEntity
  8
0
  6
Continuous
 62
     7
370
    15
100
AcDbCircle
 10
167.1967956481
 20
356.095661095
 30
0.0
 40
3.75
  0
CIRCLE
  5
198
330
1F
100
AcDbEntity
  8
0
  6
Continuous
 62
     7
370
    15
100
AcDbCircle
 10
167.1967956481
 20
356.095661095
 30
0.0
 40
2.275000000000006
  0
CIRCLE
  5
199
330
1F
100
AcDbEntity
  8
0
  6
Continuous
 62
     7
370
    15
100
AcDbCircle
 10
167.1967956481
 20
356.095661095
 30
0.0
 40
0.75
  0
ARC
  5
19A
330
1F
100
AcDbEntity
  8
0
  6
Continuous
 62
     7
370
    15
100
AcDbCircle
 10
167.1967956481
 20
371.095661095
 30
0.0
 40
2.250000000000018
100
AcDbArc
 50
5.7391704773
 51
174.2608295227
  0
CIRCLE
  5
19B
330
1F
100
AcDbEntity
  8
0
  6
Continuous
 62
     7
370
    15
100
AcDbCircle
 10
167.1967956481
 20
360.7678905485
 30
0.0
 40
0.75
  0
CIRCLE
  5
19C
330
1F
100
AcDbEntity
  8
0
  6
Continuous
 62
     7
370
    15
100
AcDbCircle
 10
167.1967956481
 20
362.7678905485
 30
0.0
 40
0.75
  0
CIRCLE
  5
19D
330
1F
100
AcDbEntity
  8
0
  6
Continuous
 62
     7
370
    15
100
AcDbCircle
 10
167.1967956481
 20
364.7678905485
 30
0.0
 40
0.7499999999999716
  0
CIRCLE
  5
19E
330
1F
100
AcDbEntity
  8
0
  6
Continuous
 62
     7
370
    15
100
AcDbCircle
 10
167.1967956481
 20
366.7678905485
 30
0.0
 40
0.75
  0
CIRCLE
  5
19F
330
1F
100
AcDbEntity
  8
0
  6
Continuous
 62
     7
370
    15
100
AcDbCircle
 10
167.1967956481
 20
368.7678905485
 30
0.0
 40
0.75
  0
CIRCLE
  5
1A0
330
1F
100
AcDbEntity
  8
0
  6
Continuous
 62
     7
370
    15
100
AcDbCircle
 10
167.1967956481
 20
370.7678905485
 30
0.0
 40
0.75
  0
LINE
  5
1A1
330
1F
100
AcDbEntity
  8
0
  6
Continuous
 62
     7
370
    15
100
AcDbLine
 10
170.9279985372
 20
356.470661095
 30
0.0
 11
169.4355173816
 21
371.320661095
 31
0.0
  0
LINE
  5
1A2
330
1F
100
AcDbEntity
  8
0
  6
Continuous
 62
     7
370
    15
100
AcDbLine
 10
164.9580739146
 20
371.320661095
 30
0.0
 11
163.4655927589
 21
356.470661095
 31
0.0
  0
CIRCLE
  5
1A3
330
1F
100
AcDbEntity
  8
0
  6
Continuous
 62
     7
370
    15
100
AcDbCircle
 10
206.5599430478
 20
353.2308714231
 30
0.0
 40
1.5
  0
CIRCLE
  5
1A4
330
1F
100
AcDbEntity
  8
0
  6
Continuous
 62
     7
370
    15
100
AcDbCircle
 10
196.5437574219
 20
353.2308714231
 30
0.0
 40
1.5
  0
CIRCLE
  5
1A5
330
1F
100
AcDbEntity
  8
0
  6
Continuous
 62
     7
370
    15
100
AcDbCircle
 10
233.5599430478
 20
371.2308714231
 30
0.0
 40
1.5
  0
LINE
  5
1A6
330
1F
100
AcDbEntity
  8
0
  6
Continuous
 62
     7
370
    15
100
AcDbLine
 10
208.5599430478
 20
356.2308714231
 30
0.0
 11
214.0599430478
 21
356.2308714231
 31
0.0
  0
LINE
  5
1A7
330
1F
100
AcDbEntity
  8
0
  6
Continuous
 62
     7
370
    15
100
AcDbLine
 10
214.0599430478
 20
356.2308714231
 30
0.0
 11
214.0599430478
 21
353.2308714231
 31
0.0
  0
LINE
  5
1A8
330
1F
100
AcDbEntity
  8
0
  6
Continuous
 62
     7
370
    15
100
AcDbLine
 10
214.0599430478
 20
353.2308714231
 30
0.0
 11
226.0599430478
 21
353.2308714231
 31
0.0
  0
LINE
  5
1A9
330
1F
100
AcDbEntity
  8
0
  6
Continuous
 62
     7
370
    15
100
AcDbLine
 10
226.0599430478
 20
353.2308714231
 30
0.0
 11
226.0599430478
 21
356.2308714231
 31
0.0
  0
LINE
  5
1AA
330
1F
100
AcDbEntity
  8
0
  6
Continuous
 62
     7
370
    15
100
AcDbLine
 10
226.0599430478
 20
356.2308714231
 30
0.0
 11
231.5599430478
 21
356.2308714231
 31
0.0
  0
LINE
  5
1AB
330
1F
100
AcDbEntity
  8
0
  6
Continuous
 62
     7
370
    15
100
AcDbLine
 10
231.5599430478
 20
356.2308714231
 30
0.0
 11
231.5599430478
 21
368.2308714231
 31
0.0
  0
LINE
  5
1AC
330
1F
100
AcDbEntity
  8
0
  6
Continuous
 62
     7
370
    15
100
AcDbLine
 10
231.5599430478
 20
368.2308714231
 30
0.0
 11
226.0599430478
 21
368.2308714231
 31
0.0
  0
LINE
  5
1AD
330
1F
100
AcDbEntity
  8
0
  6
Continuous
 62
     7
370
    15
100
AcDbLine
 10
226.0599430478
 20
368.2308714231
 30
0.0
 11
226.0599430478
 21
371.2308714231
 31
0.0
  0
LINE
  5
1AE
330
1F
100
AcDbEntity
  8
0
  6
Continuous
 62
     7
370
    15
100
AcDbLine
 10
226.0599430478
 20
371.2308714231
 30
0.0
 11
214.0599430478
 21
371.2308714231
 31
0.0
  0
LINE
  5
1AF
330
1F
100
AcDbEntity
  8
0
  6
Continuous
 62
     7
370
    15
100
AcDbLine
 10
214.0599430478
 20
371.2308714231
 30
0.0
 11
214.0599430478
 21
368.2308714231
 31
0.0
  0
LINE
  5
1B0
330
1F
100
AcDbEntity
  8
0
  6
Continuous
 62
     7
370
    15
100
AcDbLine
 10
214.0599430478
 20
368.2308714231
 30
0.0
 11
208.5599430478
 21
368.2308714231
 31
0.0
  0
LINE
  5
1B1
330
1F
100
AcDbEntity
  8
0
  6
Continuous
 62
     7
370
    15
100
AcDbLine
 10
208.5599430478
 20
368.2308714231
 30
0.0
 11
208.5599430478
 21
356.2308714231
 31
0.0
  0
LINE
  5
1B2
330
1F
100
AcDbEntity
  8
0
  6
Continuous
 62
     7
370
    15
100
AcDbLine
 10
236.5599430478
 20
353.2308714231
 30
0.0
 11
236.5599430478
 21
371.2308714231
 31
0.0
  0
ARC
  5
1B3
330
1F
100
AcDbEntity
  8
0
  6
Continuous
 62
     7
370
    15
100
AcDbCircle
 10
233.5599430478
 20
353.2308714231
 30
0.0
 40
3.0
100
AcDbArc
 50
270.0
 51
0.0
  0
LINE
  5
1B4
330
1F
100
AcDbEntity
  8
0
  6
Continuous
 62
     7
370
    15
100
AcDbLine
 10
196.5437574219
 20
350.2308714231
 30
0.0
 11
233.5599430478
 21
350.2308714231
 31
0.0
  0
ARC
  5
1B5
330
1F
100
AcDbEntity
  8
0
  6
Continuous
 62
     7
370
    15
100
AcDbCircle
 10
196.5437574219
 20
353.2308714231
 30
0.0
 40
3.0
100
AcDbArc
 50
180.0
 51
270.0
  0
LINE
  5
1B6
330
1F
100
AcDbEntity
  8
0
  6
Continuous
 62
     7
370
    15
100
AcDbLine
 10
193.5437574219
 20
371.2308714231
 30
0.0
 11
193.5437574219
 21
353.2308714231
 31
0.0
  0
ARC
  5
1B7
330
1F
100
AcDbEntity
  8
0
  6
Continuous
 62
     7
370
    15
100
AcDbCircle
 10
196.5437574219
 20
371.2308714231
 30
0.0
 40
3.0
100
AcDbArc
 50
90.0
 51
180.0
  0
LINE
  5
1B8
330
1F
100
AcDbEntity
  8
0
  6
Continuous
 62
     7
370
    15
100
AcDbLine
 10
233.5599430478
 20
374.2308714231
 30
0.0
 11
196.5437574219
 21
374.2308714231
 31
0.0
  0
ARC
  5
1B9
330
1F
100
AcDbEntity
  8
0
  6
Continuous
 62
     7
370
    15
100
AcDbCircle
 10
233.5599430478
 20
371.2308714231
 30
0.0
 40
3.0
100
AcDbArc
 50
0.0
 51
90.0
  0
CIRCLE
  5
1BA
330
1F
100
AcDbEntity
  8
0
  6
Continuous
 62
     7
370
    15
100
AcDbCircle
 10
196.5437574219
 20
371.2308714231
 30
0.0
 40
1.5
  0
CIRCLE
  5
1BB
330
1F
100
AcDbEntity
  8
0
  6
Continuous
 62
     7
370
    15
100
AcDbCircle
 10
233.5599430478
 20
353.2308714231
 30
0.0
 40
1.5
  0
CIRCLE
  5
1BC
330
1F
100
AcDbEntity
  8
0
  6
Continuous
 62
     7
370
    15
100
AcDbCircle
 10
206.5599430478
 20
371.2308714231
 30
0.0
 40
1.5
  0
CIRCLE
  5
1BD
330
1F
100
AcDbEntity
  8
0
  6
Continuous
 62
     7
370
    15
100
AcDbCircle
 10
259.7339478514
 20
354.2001509841
 30
0.0
 40
1.5
  0
CIRCLE
  5
1BE
330
1F
100
AcDbEntity
  8
0
  6
Continuous
 62
     7
370
    15
100
AcDbCircle
 10
286.7339478514
 20
372.2001509841
 30
0.0
 40
1.5
  0
LINE
  5
1BF
330
1F
100
AcDbEntity
  8
0
  6
Continuous
 62
     7
370
    15
100
AcDbLine
 10
267.2339478514
 20
357.2001509841
 30
0.0
 11
267.2339478514
 21
354.2001509841
 31
0.0
  0
LINE
  5
1C0
330
1F
100
AcDbEntity
  8
0
  6
Continuous
 62
     7
370
    15
100
AcDbLine
 10
267.2339478514
 20
354.2001509841
 30
0.0
 11
279.2339478514
 21
354.2001509841
 31
0.0
  0
LINE
  5
1C1
330
1F
100
AcDbEntity
  8
0
  6
Continuous
 62
     7
370
    15
100
AcDbLine
 10
279.2339478514
 20
354.2001509841
 30
0.0
 11
279.2339478514
 21
357.2001509841
 31
0.0
  0
LINE
  5
1C2
330
1F
100
AcDbEntity
  8
0
  6
Continuous
 62
     7
370
    15
100
AcDbLine
 10
279.2339478514
 20
357.2001509841
 30
0.0
 11
284.7339478514
 21
357.2001509841
 31
0.0
  0
LINE
  5
1C3
330
1F
100
AcDbEntity
  8
0
  6
Continuous
 62
     7
370
    15
100
AcDbLine
 10
284.7339478514
 20
357.2001509841
 30
0.0
 11
284.7339478514
 21
360.7001509841
 31
0.0
  0
LINE
  5
1C4
330
1F
100
AcDbEntity
  8
0
  6
Continuous
 62
     7
370
    15
100
AcDbLine
 10
284.7339478514
 20
360.7001509841
 30
0.0
 11
286.2339478514
 21
360.7001509841
 31
0.0
  0
LINE
  5
1C5
330
1F
100
AcDbEntity
  8
0
  6
Continuous
 62
     7
370
    15
100
AcDbLine
 10
286.2339478514
 20
360.7001509841
 30
0.0
 11
286.2339478514
 21
365.7001509841
 31
0.0
  0
LINE
  5
1C6
330
1F
100
AcDbEntity
  8
0
  6
Continuous
 62
     7
370
    15
100
AcDbLine
 10
286.2339478514
 20
365.7001509841
 30
0.0
 11
284.7339478514
 21
365.7001509841
 31
0.0
  0
LINE
  5
1C7
330
1F
100
AcDbEntity
  8
0
  6
Continuous
 62
     7
370
    15
100
AcDbLine
 10
284.7339478514
 20
365.7001509841
 30
0.0
 11
284.7339478514
 21
369.2001509841
 31
0.0
  0
LINE
  5
1C8
330
1F
100
AcDbEntity
  8
0
  6
Continuous
 62
     7
370
    15
100
AcDbLine
 10
284.7339478514
 20
369.2001509841
 30
0.0
 11
279.2339478514
 21
369.2001509841
 31
0.0
  0
LINE
  5
1C9
330
1F
100
AcDbEntity
  8
0
  6
Continuous
 62
     7
370
    15
100
AcDbLine
 10
279.2339478514
 20
369.2001509841
 30
0.0
 11
279.2339478514
 21
372.2001509841
 31
0.0
  0
LINE
  5
1CA
330
1F
100
AcDbEntity
  8
0
  6
Continuous
 62
     7
370
    15
100
AcDbLine
 10
279.2339478514
 20
372.2001509841
 30
0.0
 11
267.2339478514
 21
372.2001509841
 31
0.0
  0
LINE
  5
1CB
330
1F
100
AcDbEntity
  8
0
  6
Continuous
 62
     7
370
    15
100
AcDbLine
 10
267.2339478514
 20
372.2001509841
 30
0.0
 11
267.2339478514
 21
369.2001509841
 31
0.0
  0
LINE
  5
1CC
330
1F
100
AcDbEntity
  8
0
  6
Continuous
 62
     7
370
    15
100
AcDbLine
 10
267.2339478514
 20
369.2001509841
 30
0.0
 11
261.7339478514
 21
369.2001509841
 31
0.0
  0
LINE
  5
1CD
330
1F
100
AcDbEntity
  8
0
  6
Continuous
 62
     7
370
    15
100
AcDbLine
 10
261.7339478514
 20
369.2001509841
 30
0.0
 11
261.7339478514
 21
365.7001509841
 31
0.0
  0
LINE
  5
1CE
330
1F
100
AcDbEntity
  8
0
  6
Continuous
 62
     7
370
    15
100
AcDbLine
 10
261.7339478514
 20
365.7001509841
 30
0.0
 11
260.2339478514
 21
365.7001509841
 31
0.0
  0
LINE
  5
1CF
330
1F
100
AcDbEntity
  8
0
  6
Continuous
 62
     7
370
    15
100
AcDbLine
 10
260.2339478514
 20
365.7001509841
 30
0.0
 11
260.2339478514
 21
360.7001509841
 31
0.0
  0
LINE
  5
1D0
330
1F
100
AcDbEntity
  8
0
  6
Continuous
 62
     7
370
    15
100
AcDbLine
 10
260.2339478514
 20
360.7001509841
 30
0.0
 11
261.7339478514
 21
360.7001509841
 31
0.0
  0
LINE
  5
1D1
330
1F
100
AcDbEntity
  8
0
  6
Continuous
 62
     7
370
    15
100
AcDbLine
 10
261.7339478514
 20
360.7001509841
 30
0.0
 11
261.7339478514
 21
357.2001509841
 31
0.0
  0
LINE
  5
1D2
330
1F
100
AcDbEntity
  8
0
  6
Continuous
 62
     7
370
    15
100
AcDbLine
 10
261.7339478514
 20
357.2001509841
 30
0.0
 11
267.2339478514
 21
357.2001509841
 31
0.0
  0
LINE
  5
1D3
330
1F
100
AcDbEntity
  8
0
  6
Continuous
 62
     7
370
    15
100
AcDbLine
 10
256.7339478514
 20
372.2001509841
 30
0.0
 11
256.7339478514
 21
354.2001509841
 31
0.0
  0
ARC
  5
1D4
330
1F
100
AcDbEntity
  8
0
  6
Continuous
 62
     7
370
    15
100
AcDbCircle
 10
259.7339478514
 20
372.2001509841
 30
0.0
 40
3.0
100
AcDbArc
 50
90.0
 51
180.0
  0
LINE
  5
1D5
330
1F
100
AcDbEntity
  8
0
  6
Continuous
 62
     7
370
    15
100
AcDbLine
 10
286.7339478514
 20
375.2001509841
 30
0.0
 11
259.7339478514
 21
375.2001509841
 31
0.0
  0
ARC
  5
1D6
330
1F
100
AcDbEntity
  8
0
  6
Continuous
 62
     7
370
    15
100
AcDbCircle
 10
286.7339478514
 20
372.2001509841
 30
0.0
 40
3.0
100
AcDbArc
 50
0.0
 51
90.0
  0
LINE
  5
1D7
330
1F
100
AcDbEntity
  8
0
  6
Continuous
 62
     7
370
    15
100
AcDbLine
 10
289.7339478514
 20
354.2001509841
 30
0.0
 11
289.7339478514
 21
372.2001509841
 31
0.0
  0
ARC
  5
1D8
330
1F
100
AcDbEntity
  8
0
  6
Continuous
 62
     7
370
    15
100
AcDbCircle
 10
286.7339478514
 20
354.2001509841
 30
0.0
 40
3.0
100
AcDbArc
 50
270.0
 51
0.0
  0
LINE
  5
1D9
330
1F
100
AcDbEntity
  8
0
  6
Continuous
 62
     7
370
    15
100
AcDbLine
 10
259.7339478514
 20
351.2001509841
 30
0.0
 11
286.7339478514
 21
351.2001509841
 31
0.0
  0
ARC
  5
1DA
330
1F
100
AcDbEntity
  8
0
  6
Continuous
 62
     7
370
    15
100
AcDbCircle
 10
259.7339478514
 20
354.2001509841
 30
0.0
 40
3.0
100
AcDbArc
 50
180.0
 51
270.0
  0
CIRCLE
  5
1DB
330
1F
100
AcDbEntity
  8
0
  6
Continuous
 62
     7
370
    15
100
AcDbCircle
 10
259.7339478514
 20
372.2001509841
 30
0.0
 40
1.5
  0
CIRCLE
  5
1DC
330
1F
100
AcDbEntity
  8
0
  6
Continuous
 62
     7
370
    15
100
AcDbCircle
 10
286.7339478514
 20
354.2001509841
 30
0.0
 40
1.5
  0
CIRCLE
  5
1DD
330
1F
100
AcDbEntity
  8
0
  6
Continuous
 62
     7
370
    15
100
AcDbCircle
 10
70.3965021313
 20
354.7016487796
 30
0.0
 40
1.499999999996874
  0
LINE
  5
1DE
330
1F
100
AcDbEntity
  8
0
  6
Continuous
 62
     7
370
    15
100
AcDbLine
 10
71.5828329518
 20
362.1072290529
 30
0.0
 11
62.9549724392
 21
353.7669638908
 31
0.0
  0
LINE
  5
1DF
330
1F
100
AcDbEntity
  8
0
  6
Continuous
 62
     7
370
    15
100
AcDbLine
 10
73.6678992423
 20
359.9502639248
 30
0.0
 11
71.5828329518
 21
362.1072290529
 31
0.0
  0
LINE
  5
1E0
330
1F
100
AcDbEntity
  8
0
  6
Continuous
 62
     7
370
    15
100
AcDbLine
 10
77.9818294986
 20
364.1203965059
 30
0.0
 11
73.6678992423
 21
359.9502639248
 31
0.0
  0
LINE
  5
1E1
330
1F
100
AcDbEntity
  8
0
  6
Continuous
 62
     7
370
    15
100
AcDbLine
 10
80.0668957891
 20
361.9634313777
 30
0.0
 11
77.9818294986
 21
364.1203965059
 31
0.0
  0
LINE
  5
1E2
330
1F
100
AcDbEntity
  8
0
  6
Continuous
 62
     7
370
    15
100
AcDbLine
 10
75.7529655328
 20
357.7932987966
 30
0.0
 11
80.0668957891
 21
361.9634313777
 31
0.0
  0
LINE
  5
1E3
330
1F
100
AcDbEntity
  8
0
  6
Continuous
 62
     7
370
    15
100
AcDbLine
 10
77.8380318234
 20
355.6363336685
 30
0.0
 11
75.7529655328
 21
357.7932987966
 31
0.0
  0
LINE
  5
1E4
330
1F
100
AcDbEntity
  8
0
  6
Continuous
 62
     7
370
    15
100
AcDbLine
 10
69.2101713108
 20
347.2960685063
 30
0.0
 11
77.8380318234
 21
355.6363336685
 31
0.0
  0
LINE
  5
1E5
330
1F
100
AcDbEntity
  8
0
  6
Continuous
 62
     7
370
    15
100
AcDbLine
 10
67.1251050202
 20
349.4530336345
 30
0.0
 11
69.2101713108
 21
347.2960685063
 31
0.0
  0
LINE
  5
1E6
330
1F
100
AcDbEntity
  8
0
  6
Continuous
 62
     7
370
    15
100
AcDbLine
 10
62.8111747639
 20
345.2829010534
 30
0.0
 11
67.1251050202
 21
349.4530336345
 31
0.0
  0
LINE
  5
1E7
330
1F
100
AcDbEntity
  8
0
  6
Continuous
 62
     7
370
    15
100
AcDbLine
 10
60.7261084734
 20
347.4398661815
 30
0.0
 11
62.8111747639
 21
345.2829010534
 31
0.0
  0
LINE
  5
1E8
330
1F
100
AcDbEntity
  8
0
  6
Continuous
 62
     7
370
    15
100
AcDbLine
 10
65.0400387297
 20
351.6099987626
 30
0.0
 11
60.7261084734
 21
347.4398661815
 31
0.0
  0
LINE
  5
1E9
330
1F
100
AcDbEntity
  8
0
  6
Continuous
 62
     7
370
    15
100
AcDbLine
 10
62.9549724392
 20
353.7669638908
 30
0.0
 11
65.0400387297
 21
351.6099987626
 31
0.0
  0
CIRCLE
  5
1EA
330
1F
100
AcDbEntity
  8
0
  6
Continuous
 62
     7
370
    15
100
AcDbCircle
 10
106.3048172817
 20
339.2369951867
 30
0.0
 40
1.500000000000014
  0
LINE
  5
1EB
330
1F
100
AcDbEntity
  8
0
  6
Continuous
 62
     7
370
    15
100
AcDbLine
 10
93.7352782499
 20
357.8434771979
 30
0.0
 11
95.8488707272
 21
355.7144570383
 31
0.0
  0
LINE
  5
1EC
330
1F
100
AcDbEntity
  8
0
  6
Continuous
 62
     7
370
    15
100
AcDbLine
 10
102.2513588883
 20
366.297847107
 30
0.0
 11
93.7352782499
 21
357.8434771979
 31
0.0
  0
LINE
  5
1ED
330
1F
100
AcDbEntity
  8
0
  6
Continuous
 62
     7
370
    15
100
AcDbLine
 10
104.3649513656
 20
364.1688269474
 30
0.0
 11
102.2513588883
 21
366.297847107
 31
0.0
  0
LINE
  5
1EE
330
1F
100
AcDbEntity
  8
0
  6
Continuous
 62
     7
370
    15
100
AcDbLine
 10
108.6229916848
 20
368.396011902
 30
0.0
 11
104.3649513656
 21
364.1688269474
 31
0.0
  0
LINE
  5
1EF
330
1F
100
AcDbEntity
  8
0
  6
Continuous
 62
     7
370
    15
100
AcDbLine
 10
110.7365841621
 20
366.2669917424
 30
0.0
 11
108.6229916848
 21
368.396011902
 31
0.0
  0
LINE
  5
1F0
330
1F
100
AcDbEntity
  8
0
  6
Continuous
 62
     7
370
    15
100
AcDbLine
 10
106.4785438429
 20
362.0398067878
 30
0.0
 11
110.7365841621
 21
366.2669917424
 31
0.0
  0
LINE
  5
1F1
330
1F
100
AcDbEntity
  8
0
  6
Continuous
 62
     7
370
    15
100
AcDbLine
 10
108.5921363202
 20
359.9107866282
 30
0.0
 11
106.4785438429
 21
362.0398067878
 31
0.0
  0
LINE
  5
1F2
330
1F
100
AcDbEntity
  8
0
  6
Continuous
 62
     7
370
    15
100
AcDbLine
 10
106.9554181779
 20
358.2859287624
 30
0.0
 11
108.5921363202
 21
359.9107866282
 31
0.0
  0
ARC
  5
1F3
330
1F
100
AcDbEntity
  8
0
  6
Continuous
 62
     7
370
    15
100
AcDbCircle
 10
109.0690106552
 20
356.1569086028
 30
0.0
 40
3.000000000000036
100
AcDbArc
 50
134.7916526292
 51
193.7761370363
  0
LINE
  5
1F4
330
1F
100
AcDbEntity
  8
0
  6
Continuous
 62
     7
370
    15
100
AcDbLine
 10
109.4400172029
 20
342.0455051157
 30
0.0
 11
106.1553100297
 21
355.4425216874
 31
0.0
  0
ARC
  5
1F5
330
1F
100
AcDbEntity
  8
0
  6
Continuous
 62
     7
370
    15
100
AcDbCircle
 10
112.3537178284
 20
342.7598920311
 30
0.0
 40
3.000000000000004
100
AcDbArc
 50
193.7761370363
 51
210.2166431339
  0
ARC
  5
1F6
330
1F
100
AcDbEntity
  8
0
  6
Continuous
 62
     7
370
    15
100
AcDbCircle
 10
106.3048172817
 20
339.2369951867
 30
0.0
 40
4.000000000000005
100
AcDbArc
 50
142.4068335798
 51
30.2166431339
  0
ARC
  5
1F7
330
1F
100
AcDbEntity
  8
0
  6
Continuous
 62
     7
370
    15
100
AcDbCircle
 10
100.7582804201
 20
343.5073498375
 30
0.0
 40
3.000000000000017
100
AcDbArc
 50
322.4068335798
 51
13.772017569
  0
LINE
  5
1F8
330
1F
100
AcDbEntity
  8
0
  6
Continuous
 62
     7
370
    15
100
AcDbLine
 10
101.9629456659
 20
351.1943812
 30
0.0
 11
103.6720324013
 21
344.221527261
 31
0.0
  0
ARC
  5
1F9
330
1F
100
AcDbEntity
  8
0
  6
Continuous
 62
     7
370
    15
100
AcDbCircle
 10
100.9916950055
 20
350.9563220588
 30
0.0
 40
1.000000000000024
100
AcDbArc
 50
13.772017569
 51
134.7916526292
  0
LINE
  5
1FA
330
1F
100
AcDbEntity
  8
0
  6
Continuous
 62
     7
370
    15
100
AcDbLine
 10
100.0760556818
 20
351.4564167191
 30
0.0
 11
100.2871641797
 21
351.6659954454
 31
0.0
  0
LINE
  5
1FB
330
1F
100
AcDbEntity
  8
0
  6
Continuous
 62
     7
370
    15
100
AcDbLine
 10
97.9624632045
 20
353.5854368787
 30
0.0
 11
100.0760556818
 21
351.4564167191
 31
0.0
  0
LINE
  5
1FC
330
1F
100
AcDbEntity
  8
0
  6
Continuous
 62
     7
370
    15
100
AcDbLine
 10
93.7044228853
 20
349.3582519241
 30
0.0
 11
97.9624632045
 21
353.5854368787
 31
0.0
  0
LINE
  5
1FD
330
1F
100
AcDbEntity
  8
0
  6
Continuous
 62
     7
370
    15
100
AcDbLine
 10
91.590830408
 20
351.4872720837
 30
0.0
 11
93.7044228853
 21
349.3582519241
 31
0.0
  0
LINE
  5
1FE
330
1F
100
AcDbEntity
  8
0
  6
Continuous
 62
     7
370
    15
100
AcDbLine
 10
95.8488707272
 20
355.7144570383
 30
0.0
 11
91.590830408
 21
351.4872720837
 31
0.0
  0
CIRCLE
  5
1FF
330
1F
100
AcDbEntity
  8
0
  6
Continuous
 62
     7
370
    15
100
AcDbCircle
 10
101.163707285
 20
358.8771319131
 30
0.0
 40
1.499999999999929
  0
CIRCLE
  5
200
330
1F
100
AcDbEntity
  8
0
  6
Continuous
 62
     7
370
    15
100
AcDbCircle
 10
145.6967466983
 20
341.2460101949
 30
0.0
 40
1.5
  0
CIRCLE
  5
201
330
1F
100
AcDbEntity
  8
0
  6
Continuous
 62
     7
370
    15
100
AcDbCircle
 10
145.6967466983
 20
341.2460101949
 30
0.0
 40
5.0
  0
CIRCLE
  5
202
330
1F
100
AcDbEntity
  8
0
  6
Continuous
 62
     7
370
    15
100
AcDbCircle
 10
240.2799537306
 20
391.886891123
 30
0.0
 40
1.5
  0
LINE
  5
203
330
1F
100
AcDbEntity
  8
0
  6
Continuous
 62
     7
370
    15
100
AcDbLine
 10
240.2799537306
 20
395.886891123
 30
0.0
 11
160.2799537306
 21
395.886891123
 31
0.0
  0
ARC
  5
204
330
1F
100
AcDbEntity
  8
0
  6
Continuous
 62
     7
370
    15
100
AcDbCircle
 10
240.2799537306
 20
391.886891123
 30
0.0
 40
4.000000000000057
100
AcDbArc
 50
270.0
 51
90.0
  0
LINE
  5
205
330
1F
100
AcDbEntity
  8
0
  6
Continuous
 62
     7
370
    15
100
AcDbLine
 10
160.2799537306
 20
387.886891123
 30
0.0
 11
240.2799537306
 21
387.886891123
 31
0.0
  0
ARC
  5
206
330
1F
100
AcDbEntity
  8
0
  6
Continuous
 62
     7
370
    15
100
AcDbCircle
 10
160.2799537306
 20
391.886891123
 30
0.0
 40
4.000000000000057
100
AcDbArc
 50
90.0
 51
270.0
  0
CIRCLE
  5
207
330
1F
100
AcDbEntity
  8
0
  6
Continuous
 62
     7
370
    15
100
AcDbCircle
 10
160.2799537306
 20
391.886891123
 30
0.0
 40
1.5
  0
CIRCLE
  5
208
330
1F
100
AcDbEntity
  8
0
  6
Continuous
 62
     7
370
    15
100
AcDbCircle
 10
149.4224484396
 20
323.4407337538
 30
0.0
 40
1.5
  0
ARC
  5
209
330
1F
100
AcDbEntity
  8
0
  6
Continuous
 62
     7
370
    15
100
AcDbCircle
 10
69.4224484396
 20
323.4407337538
 30
0.0
 40
6.000000000000006
100
AcDbArc
 50
61.0449756281
 51
298.9550243719
  0
ARC
  5
20A
330
1F
100
AcDbEntity
  8
0
  6
Continuous
 62
     7
370
    15
100
AcDbCircle
 10
77.168415132
 20
337.4407337538
 30
0.0
 40
10.0
100
AcDbArc
 50
241.0449756281
 51
270.0
  0
LINE
  5
20B
330
1F
100
AcDbEntity
  8
0
  6
Continuous
 62
     7
370
    15
100
AcDbLine
 10
149.4224484396
 20
327.4407337538
 30
0.0
 11
77.168415132
 21
327.4407337538
 31
0.0
  0
ARC
  5
20C
330
1F
100
AcDbEntity
  8
0
  6
Continuous
 62
     7
370
    15
100
AcDbCircle
 10
149.4224484396
 20
323.4407337538
 30
0.0
 40
4.0
100
AcDbArc
 50
270.0
 51
90.0
  0
LINE
  5
20D
330
1F
100
AcDbEntity
  8
0
  6
Continuous
 62
     7
370
    15
100
AcDbLine
 10
77.168415132
 20
319.4407337538
 30
0.0
 11
149.4224484396
 21
319.4407337538
 31
0.0
  0
ARC
  5
20E
330
1F
100
AcDbEntity
  8
0
  6
Continuous
 62
     7
370
    15
100
AcDbCircle
 10
77.168415132
 20
309.4407337538
 30
0.0
 40
10.0
100
AcDbArc
 50
90.0
 51
118.9550243719
  0
CIRCLE
  5
20F
330
1F
100
AcDbEntity
  8
0
  6
Continuous
 62
     7
370
    15
100
AcDbCircle
 10
69.4224484396
 20
323.4407337538
 30
0.0
 40
1.5
  0
CIRCLE
  5
210
330
1F
100
AcDbEntity
  8
0
  6
Continuous
 62
     7
370
    15
100
AcDbCircle
 10
306.9827472032
 20
350.3271439586
 30
0.0
 40
1.499999999999943
  0
CIRCLE
  5
211
330
1F
100
AcDbEntity
  8
0
  6
Continuous
 62
     7
370
    15
100
AcDbCircle
 10
306.9827472032
 20
396.5598338133
 30
0.0
 40
1.499999999999943
  0
ARC
  5
212
330
1F
100
AcDbEntity
  8
0
  6
Continuous
 62
     7
370
    15
100
AcDbCircle
 10
306.9827472032
 20
350.3271439586
 30
0.0
 40
4.000000000000021
100
AcDbArc
 50
167.2756443146
 51
348.8015004335
  0
SPLINE
  5
213
330
1F
100
AcDbEntity
  8
0
  6
Continuous
 62
     7
370
    15
100
AcDbSpline
210
0.0
220
0.0
230
1.0
 70
     8
 71
     3
 72
    10
 73
     6
 74
     0
 42
0.000000001
 43
0.00000001
 40
0.0
 40
0.0
 40
0.0
 40
0.0
 40
0.3234265045228029
 40
0.4234265045228028
 40
1.0
 40
1.0
 40
1.0
 40
1.0
 10
303.2597412294796
 20
395.0972243236461
 30
0.0
 10
305.0788318309248
 20
390.4668118836038
 30
0.0
 10
305.8662880817311
 20
384.8417182601708
 30
0.0
 10
307.5985405696
 20
369.939126180788
 30
0.0
 10
305.0155780963806
 20
359.7756791505742
 30
0.0
 10
303.0809831949702
 20
351.2081874443278
 30
0.0
  0
ARC
  5
214
330
1F
100
AcDbEntity
  8
0
  6
Continuous
 62
     7
370
    15
100
AcDbCircle
 10
306.9827472032
 20
396.5598338133
 30
0.0
 40
4.000000000000036
100
AcDbArc
 50
26.871523514
 51
201.4477363271
  0
SPLINE
  5
215
330
1F
100
AcDbEntity
  8
0
  6
Continuous
 62
     7
370
    15
100
AcDbSpline
210
0.0
220
0.0
230
1.0
 70
     8
 71
     3
 72
    10
 73
     6
 74
     0
 42
0.000000001
 43
0.00000001
 40
0.0
 40
0.0
 40
0.0
 40
0.0
 40
0.4438997851835592
 40
0.5438997851835592
 40
1.0
 40
1.0
 40
1.0
 40
1.0
 10
323.4818689412109
 20
390.4602629996475
 30
0.0
 10
321.6279969326631
 20
390.1081432341409
 30
0.0
 10
318.6448496761754
 20
390.6919274578738
 30
0.0
 10
313.2197993414875
 20
393.0496677497802
 30
0.0
 10
311.7008241999202
 20
396.0982546659252
 30
0.0
 10
310.5508363365225
 20
398.3677995035432
 30
0.0
  0
ARC
  5
216
330
1F
100
AcDbEntity
  8
0
  6
Continuous
 62
     7
370
    15
100
AcDbCircle
 10
324.2282743713
 20
386.5305201411
 30
0.0
 40
3.999999999999984
100
AcDbArc
 50
317.4309939214
 51
100.7545093668
  0
SPLINE
  5
217
330
1F
100
AcDbEntity
  8
0
  6
Continuous
 62
     7
370
    15
100
AcDbSpline
210
0.0
220
0.0
230
1.0
 70
     8
 71
     3
 72
    10
 73
     6
 74
     0
 42
0.000000001
 43
0.00000001
 40
0.0
 40
0.0
 40
0.0
 40
0.0
 40
0.5883588465239147
 40
0.6883588465239145
 40
1.0
 40
1.0
 40
1.0
 40
1.0
 10
310.9065881693442
 20
349.550309309046
 30
0.0
 10
312.4638941661678
 20
357.4163604316213
 30
0.0
 10
314.1626051837062
 20
365.8705149442274
 30
0.0
 10
320.834889394842
 20
376.568992613094
 30
0.0
 10
324.3115816721972
 20
380.708233095301
 30
0.0
 10
327.1741269022205
 20
383.8246094135025
 30
0.0
  0
CIRCLE
  5
218
330
1F
100
AcDbEntity
  8
0
  6
Continuous
 62
     7
370
    15
100
AcDbCircle
 10
324.2282743713
 20
386.5305201411
 30
0.0
 40
1.5
  0
CIRCLE
  5
219
330
1F
100
AcDbEntity
  8
0
  6
Continuous
 62
     7
370
    15
100
AcDbCircle
 10
100.9510263833
 20
299.0223379611
 30
0.0
 40
1.5
  0
CIRCLE
  5
21A
330
1F
100
AcDbEntity
  8
0
  6
Continuous
 62
     7
370
    15
100
AcDbCircle
 10
65.9510263833
 20
298.9926842995
 30
0.0
 40
1.5
  0
LINE
  5
21B
330
1F
100
AcDbEntity
  8
0
  6
Continuous
 62
     7
370
    15
100
AcDbLine
 10
95.2576730725
 20
302.9926842995
 30
0.0
 11
65.9510263833
 21
302.9926842995
 31
0.0
  0
ARC
  5
21C
330
1F
100
AcDbEntity
  8
0
  6
Continuous
 62
     7
370
    15
100
AcDbCircle
 10
95.2576730725
 20
305.9926842995
 30
0.0
 40
3.000000000000006
100
AcDbArc
 50
270.0
 51
309.2418235983
  0
ARC
  5
21D
330
1F
100
AcDbEntity
  8
0
  6
Continuous
 62
     7
370
    15
100
AcDbCircle
 10
100.9510263833
 20
299.0223379611
 30
0.0
 40
6.000000000000028
100
AcDbArc
 50
50.7581764017
 51
129.2418235983
  0
ARC
  5
21E
330
1F
100
AcDbEntity
  8
0
  6
Continuous
 62
     7
370
    15
100
AcDbCircle
 10
106.6443796942
 20
305.9926842995
 30
0.0
 40
3.0
100
AcDbArc
 50
230.7581764017
 51
270.0
  0
LINE
  5
21F
330
1F
100
AcDbEntity
  8
0
  6
Continuous
 62
     7
370
    15
100
AcDbLine
 10
180.9510263833
 20
302.9926842995
 30
0.0
 11
106.6443796942
 21
302.9926842995
 31
0.0
  0
ARC
  5
220
330
1F
100
AcDbEntity
  8
0
  6
Continuous
 62
     7
370
    15
100
AcDbCircle
 10
180.9510263833
 20
298.9926842995
 30
0.0
 40
4.0
100
AcDbArc
 50
270.0
 51
90.0
  0
LINE
  5
221
330
1F
100
AcDbEntity
  8
0
  6
Continuous
 62
     7
370
    15
100
AcDbLine
 10
106.5709880735
 20
294.9926842995
 30
0.0
 11
180.9510263833
 21
294.9926842995
 31
0.0
  0
ARC
  5
222
330
1F
100
AcDbEntity
  8
0
  6
Continuous
 62
     7
370
    15
100
AcDbCircle
 10
106.5709880735
 20
291.9926842995
 30
0.0
 40
3.000000000000057
100
AcDbArc
 50
90.0
 51
128.6411105126
  0
ARC
  5
223
330
1F
100
AcDbEntity
  8
0
  6
Continuous
 62
     7
370
    15
100
AcDbCircle
 10
100.9510263833
 20
299.0223379611
 30
0.0
 40
6.000000000000008
100
AcDbArc
 50
231.3588894874
 51
308.6411105126
  0
ARC
  5
224
330
1F
100
AcDbEntity
  8
0
  6
Continuous
 62
     7
370
    15
100
AcDbCircle
 10
95.3310646932
 20
291.9926842995
 30
0.0
 40
3.000000000000004
100
AcDbArc
 50
51.3588894874
 51
90.0
  0
LINE
  5
225
330
1F
100
AcDbEntity
  8
0
  6
Continuous
 62
     7
370
    15
100
AcDbLine
 10
65.9510263833
 20
294.9926842995
 30
0.0
 11
95.3310646932
 21
294.9926842995
 31
0.0
  0
ARC
  5
226
330
1F
100
AcDbEntity
  8
0
  6
Continuous
 62
     7
370
    15
100
AcDbCircle
 10
65.9510263833
 20
298.9926842995
 30
0.0
 40
4.0
100
AcDbArc
 50
90.0
 51
270.0
  0
CIRCLE
  5
227
330
1F
100
AcDbEntity
  8
0
  6
Continuous
 62
     7
370
    15
100
AcDbCircle
 10
180.9510263833
 20
298.9926842995
 30
0.0
 40
1.5
  0
CIRCLE
  5
228
330
1F
100
AcDbEntity
  8
0
  6
Continuous
 62
     7
370
    15
100
AcDbCircle
 10
246.224539311
 20
340.8253697937
 30
0.0
 40
1.5
  0
CIRCLE
  5
229
330
1F
100
AcDbEntity
  8
0
  6
Continuous
 62
     7
370
    15
100
AcDbCircle
 10
246.224539311
 20
340.8253697937
 30
0.0
 40
5.0
  0
CIRCLE
  5
22A
330
1F
100
AcDbEntity
  8
0
  6
Continuous
 62
     7
370
    15
100
AcDbCircle
 10
281.6965626005
 20
315.1016038001
 30
0.0
 40
1.500000000000057
  0
LINE
  5
22B
330
1F
100
AcDbEntity
  8
0
  6
Continuous
 62
     7
370
    15
100
AcDbLine
 10
281.6965626005
 20
319.1016038001
 30
0.0
 11
201.6965626005
 21
319.1016038001
 31
0.0
  0
ARC
  5
22C
330
1F
100
AcDbEntity
  8
0
  6
Continuous
 62
     7
370
    15
100
AcDbCircle
 10
281.6965626005
 20
315.1016038001
 30
0.0
 40
4.0
100
AcDbArc
 50
270.0
 51
90.0
  0
LINE
  5
22D
330
1F
100
AcDbEntity
  8
0
  6
Continuous
 62
     7
370
    15
100
AcDbLine
 10
201.6965626005
 20
311.1016038001
 30
0.0
 11
281.6965626005
 21
311.1016038001
 31
0.0
  0
ARC
  5
22E
330
1F
100
AcDbEntity
  8
0
  6
Continuous
 62
     7
370
    15
100
AcDbCircle
 10
201.6965626005
 20
315.1016038001
 30
0.0
 40
4.0
100
AcDbArc
 50
90.0
 51
270.0
  0
CIRCLE
  5
22F
330
1F
100
AcDbEntity
  8
0
  6
Continuous
 62
     7
370
    15
100
AcDbCircle
 10
201.6965626005
 20
315.1016038001
 30
0.0
 40
1.5
  0
LINE
  5
230
330
1F
100
AcDbEntity
  8
0
  6
Continuous
 62
     7
370
    15
100
AcDbLine
 10
270.0905148138
 20
295.7049072733
 30
0.0
 11
270.0905148138
 21
298.7049072733
 31
0.0
  0
LINE
  5
231
330
1F
100
AcDbEntity
  8
0
  6
Continuous
 62
     7
370
    15
100
AcDbLine
 10
270.0905148138
 20
298.7049072733
 30
0.0
 11
265.0905148138
 21
298.7049072733
 31
0.0
  0
LINE
  5
232
330
1F
100
AcDbEntity
  8
0
  6
Continuous
 62
     7
370
    15
100
AcDbLine
 10
265.0905148138
 20
298.7049072733
 30
0.0
 11
265.0905148138
 21
295.7049072733
 31
0.0
  0
LINE
  5
233
330
1F
100
AcDbEntity
  8
0
  6
Continuous
 62
     7
370
    15
100
AcDbLine
 10
265.0905148138
 20
295.7049072733
 30
0.0
 11
270.0905148138
 21
295.7049072733
 31
0.0
  0
CIRCLE
  5
234
330
1F
100
AcDbEntity
  8
0
  6
Continuous
 62
     7
370
    15
100
AcDbCircle
 10
280.0905148138
 20
297.2049072733
 30
0.0
 40
1.5
  0
CIRCLE
  5
235
330
1F
100
AcDbEntity
  8
0
  6
Continuous
 62
     7
370
    15
100
AcDbCircle
 10
200.0905148138
 20
297.2049072733
 30
0.0
 40
1.5
  0
LINE
  5
236
330
1F
100
AcDbEntity
  8
0
  6
Continuous
 62
     7
370
    15
100
AcDbLine
 10
280.0905148138
 20
303.2049072733
 30
0.0
 11
200.0905148138
 21
303.2049072733
 31
0.0
  0
ARC
  5
237
330
1F
100
AcDbEntity
  8
0
  6
Continuous
 62
     7
370
    15
100
AcDbCircle
 10
280.0905148138
 20
297.2049072733
 30
0.0
 40
6.000000000000057
100
AcDbArc
 50
270.0
 51
90.0
  0
LINE
  5
238
330
1F
100
AcDbEntity
  8
0
  6
Continuous
 62
     7
370
    15
100
AcDbLine
 10
200.0905148138
 20
291.2049072733
 30
0.0
 11
280.0905148138
 21
291.2049072733
 31
0.0
  0
ARC
  5
239
330
1F
100
AcDbEntity
  8
0
  6
Continuous
 62
     7
370
    15
100
AcDbCircle
 10
200.0905148138
 20
297.2049072733
 30
0.0
 40
6.000000000000057
100
AcDbArc
 50
90.0
 51
270.0
  0
CIRCLE
  5
23A
330
1F
100
AcDbEntity
  8
0
  6
Continuous
 62
     7
370
    15
100
AcDbCircle
 10
232.0905148138
 20
297.2990527884
 30
0.0
 40
1.5
  0
LINE
  5
23B
330
1F
100
AcDbEntity
  8
0
  6
Continuous
 62
     7
370
    15
100
AcDbLine
 10
218.0905148138
 20
295.7049072733
 30
0.0
 11
218.0905148138
 21
298.7049072733
 31
0.0
  0
LINE
  5
23C
330
1F
100
AcDbEntity
  8
0
  6
Continuous
 62
     7
370
    15
100
AcDbLine
 10
218.0905148138
 20
298.7049072733
 30
0.0
 11
210.0905148138
 21
298.7049072733
 31
0.0
  0
LINE
  5
23D
330
1F
100
AcDbEntity
  8
0
  6
Continuous
 62
     7
370
    15
100
AcDbLine
 10
210.0905148138
 20
298.7049072733
 30
0.0
 11
210.0905148138
 21
295.7049072733
 31
0.0
  0
LINE
  5
23E
330
1F
100
AcDbEntity
  8
0
  6
Continuous
 62
     7
370
    15
100
AcDbLine
 10
210.0905148138
 20
295.7049072733
 30
0.0
 11
218.0905148138
 21
295.7049072733
 31
0.0
  0
LINE
  5
23F
330
1F
100
AcDbEntity
  8
0
  6
Continuous
 62
     7
370
    15
100
AcDbLine
 10
76.0120191957
 20
261.2400474985
 30
0.0
 11
76.0120191957
 21
264.2400474985
 31
0.0
  0
LINE
  5
240
330
1F
100
AcDbEntity
  8
0
  6
Continuous
 62
     7
370
    15
100
AcDbLine
 10
68.0120191957
 20
261.2400474985
 30
0.0
 11
76.0120191957
 21
261.2400474985
 31
0.0
  0
LINE
  5
241
330
1F
100
AcDbEntity
  8
0
  6
Continuous
 62
     7
370
    15
100
AcDbLine
 10
68.0120191957
 20
278.2400474985
 30
0.0
 11
68.0120191957
 21
261.2400474985
 31
0.0
  0
LINE
  5
242
330
1F
100
AcDbEntity
  8
0
  6
Continuous
 62
     7
370
    15
100
AcDbLine
 10
77.0120191957
 20
278.2400474985
 30
0.0
 11
68.0120191957
 21
278.2400474985
 31
0.0
  0
ARC
  5
243
330
1F
100
AcDbEntity
  8
0
  6
Continuous
 62
     7
370
    15
100
AcDbCircle
 10
77.0120191957
 20
282.2400474985
 30
0.0
 40
4.0
100
AcDbArc
 50
270.0
 51
0.0
  0
LINE
  5
244
330
1F
100
AcDbEntity
  8
0
  6
Continuous
 62
     7
370
    15
100
AcDbLine
 10
81.0120191957
 20
285.2400474985
 30
0.0
 11
81.0120191957
 21
282.2400474985
 31
0.0
  0
LINE
  5
245
330
1F
100
AcDbEntity
  8
0
  6
Continuous
 62
     7
370
    15
100
AcDbLine
 10
90.0120191957
 20
285.2400474985
 30
0.0
 11
81.0120191957
 21
285.2400474985
 31
0.0
  0
LINE
  5
246
330
1F
100
AcDbEntity
  8
0
  6
Continuous
 62
     7
370
    15
100
AcDbLine
 10
90.0120191957
 20
282.2400474985
 30
0.0
 11
90.0120191957
 21
285.2400474985
 31
0.0
  0
LINE
  5
247
330
1F
100
AcDbEntity
  8
0
  6
Continuous
 62
     7
370
    15
100
AcDbLine
 10
104.5120191957
 20
282.2400474985
 30
0.0
 11
90.0120191957
 21
282.2400474985
 31
0.0
  0
LINE
  5
248
330
1F
100
AcDbEntity
  8
0
  6
Continuous
 62
     7
370
    15
100
AcDbLine
 10
104.5120191957
 20
278.2400474985
 30
0.0
 11
104.5120191957
 21
282.2400474985
 31
0.0
  0
LINE
  5
249
330
1F
100
AcDbEntity
  8
0
  6
Continuous
 62
     7
370
    15
100
AcDbLine
 10
103.0120191957
 20
278.2400474985
 30
0.0
 11
104.5120191957
 21
278.2400474985
 31
0.0
  0
LINE
  5
24A
330
1F
100
AcDbEntity
  8
0
  6
Continuous
 62
     7
370
    15
100
AcDbLine
 10
103.0120191957
 20
275.2400474985
 30
0.0
 11
103.0120191957
 21
278.2400474985
 31
0.0
  0
LINE
  5
24B
330
1F
100
AcDbEntity
  8
0
  6
Continuous
 62
     7
370
    15
100
AcDbLine
 10
104.5120191957
 20
275.2400474985
 30
0.0
 11
103.0120191957
 21
275.2400474985
 31
0.0
  0
LINE
  5
24C
330
1F
100
AcDbEntity
  8
0
  6
Continuous
 62
     7
370
    15
100
AcDbLine
 10
104.5120191957
 20
271.2400474985
 30
0.0
 11
104.5120191957
 21
275.2400474985
 31
0.0
  0
LINE
  5
24D
330
1F
100
AcDbEntity
  8
0
  6
Continuous
 62
     7
370
    15
100
AcDbLine
 10
107.5120191957
 20
271.2400474985
 30
0.0
 11
104.5120191957
 21
271.2400474985
 31
0.0
  0
LINE
  5
24E
330
1F
100
AcDbEntity
  8
0
  6
Continuous
 62
     7
370
    15
100
AcDbLine
 10
107.5120191957
 20
275.2400474985
 30
0.0
 11
107.5120191957
 21
271.2400474985
 31
0.0
  0
LINE
  5
24F
330
1F
100
AcDbEntity
  8
0
  6
Continuous
 62
     7
370
    15
100
AcDbLine
 10
109.0120191957
 20
275.2400474985
 30
0.0
 11
107.5120191957
 21
275.2400474985
 31
0.0
  0
LINE
  5
250
330
1F
100
AcDbEntity
  8
0
  6
Continuous
 62
     7
370
    15
100
AcDbLine
 10
109.0120191957
 20
278.2400474985
 30
0.0
 11
109.0120191957
 21
275.2400474985
 31
0.0
  0
LINE
  5
251
330
1F
100
AcDbEntity
  8
0
  6
Continuous
 62
     7
370
    15
100
AcDbLine
 10
107.5120191957
 20
278.2400474985
 30
0.0
 11
109.0120191957
 21
278.2400474985
 31
0.0
  0
LINE
  5
252
330
1F
100
AcDbEntity
  8
0
  6
Continuous
 62
     7
370
    15
100
AcDbLine
 10
107.5120191957
 20
282.2400474985
 30
0.0
 11
107.5120191957
 21
278.2400474985
 31
0.0
  0
LINE
  5
253
330
1F
100
AcDbEntity
  8
0
  6
Continuous
 62
     7
370
    15
100
AcDbLine
 10
120.0120191957
 20
282.2400474985
 30
0.0
 11
107.5120191957
 21
282.2400474985
 31
0.0
  0
LINE
  5
254
330
1F
100
AcDbEntity
  8
0
  6
Continuous
 62
     7
370
    15
100
AcDbLine
 10
120.0120191957
 20
285.2400474985
 30
0.0
 11
120.0120191957
 21
282.2400474985
 31
0.0
  0
LINE
  5
255
330
1F
100
AcDbEntity
  8
0
  6
Continuous
 62
     7
370
    15
100
AcDbLine
 10
128.0120191957
 20
285.2400474985
 30
0.0
 11
120.0120191957
 21
285.2400474985
 31
0.0
  0
LINE
  5
256
330
1F
100
AcDbEntity
  8
0
  6
Continuous
 62
     7
370
    15
100
AcDbLine
 10
128.0120191957
 20
261.2400474985
 30
0.0
 11
128.0120191957
 21
285.2400474985
 31
0.0
  0
LINE
  5
257
330
1F
100
AcDbEntity
  8
0
  6
Continuous
 62
     7
370
    15
100
AcDbLine
 10
123.0120191957
 20
261.2400474985
 30
0.0
 11
128.0120191957
 21
261.2400474985
 31
0.0
  0
LINE
  5
258
330
1F
100
AcDbEntity
  8
0
  6
Continuous
 62
     7
370
    15
100
AcDbLine
 10
123.0120191957
 20
264.2400474985
 30
0.0
 11
123.0120191957
 21
261.2400474985
 31
0.0
  0
LINE
  5
259
330
1F
100
AcDbEntity
  8
0
  6
Continuous
 62
     7
370
    15
100
AcDbLine
 10
91.5120191957
 20
264.2400474985
 30
0.0
 11
123.0120191957
 21
264.2400474985
 31
0.0
  0
LINE
  5
25A
330
1F
100
AcDbEntity
  8
0
  6
Continuous
 62
     7
370
    15
100
AcDbLine
 10
91.5120191957
 20
268.2400474985
 30
0.0
 11
91.5120191957
 21
264.2400474985
 31
0.0
  0
LINE
  5
25B
330
1F
100
AcDbEntity
  8
0
  6
Continuous
 62
     7
370
    15
100
AcDbLine
 10
93.0120191957
 20
268.2400474985
 30
0.0
 11
91.5120191957
 21
268.2400474985
 31
0.0
  0
LINE
  5
25C
330
1F
100
AcDbEntity
  8
0
  6
Continuous
 62
     7
370
    15
100
AcDbLine
 10
93.0120191957
 20
271.2400474985
 30
0.0
 11
93.0120191957
 21
268.2400474985
 31
0.0
  0
LINE
  5
25D
330
1F
100
AcDbEntity
  8
0
  6
Continuous
 62
     7
370
    15
100
AcDbLine
 10
91.5120191957
 20
271.2400474985
 30
0.0
 11
93.0120191957
 21
271.2400474985
 31
0.0
  0
LINE
  5
25E
330
1F
100
AcDbEntity
  8
0
  6
Continuous
 62
     7
370
    15
100
AcDbLine
 10
91.5120191957
 20
275.2400474985
 30
0.0
 11
91.5120191957
 21
271.2400474985
 31
0.0
  0
LINE
  5
25F
330
1F
100
AcDbEntity
  8
0
  6
Continuous
 62
     7
370
    15
100
AcDbLine
 10
88.5120191957
 20
275.2400474985
 30
0.0
 11
91.5120191957
 21
275.2400474985
 31
0.0
  0
LINE
  5
260
330
1F
100
AcDbEntity
  8
0
  6
Continuous
 62
     7
370
    15
100
AcDbLine
 10
88.5120191957
 20
271.2400474985
 30
0.0
 11
88.5120191957
 21
275.2400474985
 31
0.0
  0
LINE
  5
261
330
1F
100
AcDbEntity
  8
0
  6
Continuous
 62
     7
370
    15
100
AcDbLine
 10
87.0120191957
 20
271.2400474985
 30
0.0
 11
88.5120191957
 21
271.2400474985
 31
0.0
  0
LINE
  5
262
330
1F
100
AcDbEntity
  8
0
  6
Continuous
 62
     7
370
    15
100
AcDbLine
 10
87.0120191957
 20
268.2400474985
 30
0.0
 11
87.0120191957
 21
271.2400474985
 31
0.0
  0
LINE
  5
263
330
1F
100
AcDbEntity
  8
0
  6
Continuous
 62
     7
370
    15
100
AcDbLine
 10
88.5120191957
 20
268.2400474985
 30
0.0
 11
87.0120191957
 21
268.2400474985
 31
0.0
  0
LINE
  5
264
330
1F
100
AcDbEntity
  8
0
  6
Continuous
 62
     7
370
    15
100
AcDbLine
 10
88.5120191957
 20
264.2400474985
 30
0.0
 11
88.5120191957
 21
268.2400474985
 31
0.0
  0
LINE
  5
265
330
1F
100
AcDbEntity
  8
0
  6
Continuous
 62
     7
370
    15
100
AcDbLine
 10
76.0120191957
 20
264.2400474985
 30
0.0
 11
88.5120191957
 21
264.2400474985
 31
0.0
  0
ARC
  5
266
330
1F
100
AcDbEntity
  8
0
  6
Continuous
 62
     7
370
    15
100
AcDbCircle
 10
157.5270451761
 20
276.8204700159
 30
0.0
 40
1.0
100
AcDbArc
 50
270.0
 51
90.0
  0
LINE
  5
267
330
1F
100
AcDbEntity
  8
0
  6
Continuous
 62
     7
370
    15
100
AcDbLine
 10
157.5270451761
 20
277.8204700159
 30
0.0
 11
152.5270451761
 21
277.8204700159
 31
0.0
  0
ARC
  5
268
330
1F
100
AcDbEntity
  8
0
  6
Continuous
 62
     7
370
    15
100
AcDbCircle
 10
152.5270451761
 20
276.8204700159
 30
0.0
 40
1.0
100
AcDbArc
 50
90.0
 51
270.0
  0
LINE
  5
269
330
1F
100
AcDbEntity
  8
0
  6
Continuous
 62
     7
370
    15
100
AcDbLine
 10
152.5270451761
 20
275.8204700159
 30
0.0
 11
157.5270451761
 21
275.8204700159
 31
0.0
  0
LINE
  5
26A
330
1F
100
AcDbEntity
  8
0
  6
Continuous
 62
     7
370
    15
100
AcDbLine
 10
165.5270451761
 20
278.3204700159
 30
0.0
 11
165.5270451761
 21
275.3204700159
 31
0.0
  0
LINE
  5
26B
330
1F
100
AcDbEntity
  8
0
  6
Continuous
 62
     7
370
    15
100
AcDbLine
 10
165.5270451761
 20
275.3204700159
 30
0.0
 11
174.5270451761
 21
275.3204700159
 31
0.0
  0
LINE
  5
26C
330
1F
100
AcDbEntity
  8
0
  6
Continuous
 62
     7
370
    15
100
AcDbLine
 10
174.5270451761
 20
275.3204700159
 30
0.0
 11
174.5270451761
 21
278.3204700159
 31
0.0
  0
LINE
  5
26D
330
1F
100
AcDbEntity
  8
0
  6
Continuous
 62
     7
370
    15
100
AcDbLine
 10
174.5270451761
 20
278.3204700159
 30
0.0
 11
165.5270451761
 21
278.3204700159
 31
0.0
  0
CIRCLE
  5
26E
330
1F
100
AcDbEntity
  8
0
  6
Continuous
 62
     7
370
    15
100
AcDbCircle
 10
222.5270451761
 20
276.8204700159
 30
0.0
 40
1.5
  0
LINE
  5
26F
330
1F
100
AcDbEntity
  8
0
  6
Continuous
 62
     7
370
    15
100
AcDbLine
 10
222.5270451761
 20
282.8204700159
 30
0.0
 11
142.5270451761
 21
282.8204700159
 31
0.0
  0
ARC
  5
270
330
1F
100
AcDbEntity
  8
0
  6
Continuous
 62
     7
370
    15
100
AcDbCircle
 10
222.5270451761
 20
276.8204700159
 30
0.0
 40
6.000000000000057
100
AcDbArc
 50
270.0
 51
90.0
  0
LINE
  5
271
330
1F
100
AcDbEntity
  8
0
  6
Continuous
 62
     7
370
    15
100
AcDbLine
 10
142.5270451761
 20
270.8204700159
 30
0.0
 11
222.5270451761
 21
270.8204700159
 31
0.0
  0
ARC
  5
272
330
1F
100
AcDbEntity
  8
0
  6
Continuous
 62
     7
370
    15
100
AcDbCircle
 10
142.5270451761
 20
276.8204700159
 30
0.0
 40
6.000000000000057
100
AcDbArc
 50
90.0
 51
270.0
  0
CIRCLE
  5
273
330
1F
100
AcDbEntity
  8
0
  6
Continuous
 62
     7
370
    15
100
AcDbCircle
 10
190.5270451761
 20
276.8204700159
 30
0.0
 40
1.499999999999972
  0
CIRCLE
  5
274
330
1F
100
AcDbEntity
  8
0
  6
Continuous
 62
     7
370
    15
100
AcDbCircle
 10
142.5270451761
 20
276.8204700159
 30
0.0
 40
3.750000000000028
  0
LINE
  5
275
330
1F
100
AcDbEntity
  8
0
  6
Continuous
 62
     7
370
    15
100
AcDbLine
 10
204.5270451761
 20
278.3204700159
 30
0.0
 11
204.5270451761
 21
275.3204700159
 31
0.0
  0
LINE
  5
276
330
1F
100
AcDbEntity
  8
0
  6
Continuous
 62
     7
370
    15
100
AcDbLine
 10
204.5270451761
 20
275.3204700159
 30
0.0
 11
212.5270451761
 21
275.3204700159
 31
0.0
  0
LINE
  5
277
330
1F
100
AcDbEntity
  8
0
  6
Continuous
 62
     7
370
    15
100
AcDbLine
 10
212.5270451761
 20
275.3204700159
 30
0.0
 11
212.5270451761
 21
278.3204700159
 31
0.0
  0
LINE
  5
278
330
1F
100
AcDbEntity
  8
0
  6
Continuous
 62
     7
370
    15
100
AcDbLine
 10
212.5270451761
 20
278.3204700159
 30
0.0
 11
204.5270451761
 21
278.3204700159
 31
0.0
  0
CIRCLE
  5
279
330
1F
100
AcDbEntity
  8
0
  6
Continuous
 62
     7
370
    15
100
AcDbCircle
 10
146.2646945301
 20
248.7965850119
 30
0.0
 40
1.5
  0
LINE
  5
27A
330
1F
100
AcDbEntity
  8
0
  6
Continuous
 62
     7
370
    15
100
AcDbLine
 10
146.2646945301
 20
252.7965850119
 30
0.0
 11
66.2646945301
 21
252.7965850119
 31
0.0
  0
ARC
  5
27B
330
1F
100
AcDbEntity
  8
0
  6
Continuous
 62
     7
370
    15
100
AcDbCircle
 10
146.2646945301
 20
248.7965850119
 30
0.0
 40
4.0
100
AcDbArc
 50
270.0
 51
90.0
  0
LINE
  5
27C
330
1F
100
AcDbEntity
  8
0
  6
Continuous
 62
     7
370
    15
100
AcDbLine
 10
66.2646945301
 20
244.7965850119
 30
0.0
 11
146.2646945301
 21
244.7965850119
 31
0.0
  0
ARC
  5
27D
330
1F
100
AcDbEntity
  8
0
  6
Continuous
 62
     7
370
    15
100
AcDbCircle
 10
66.2646945301
 20
248.7965850119
 30
0.0
 40
4.0
100
AcDbArc
 50
90.0
 51
270.0
  0
CIRCLE
  5
27E
330
1F
100
AcDbEntity
  8
0
  6
Continuous
 62
     7
370
    15
100
AcDbCircle
 10
66.2646945301
 20
248.7965850119
 30
0.0
 40
1.5
  0
CIRCLE
  5
27F
330
1F
100
AcDbEntity
  8
0
  6
Continuous
 62
     7
370
    15
100
AcDbCircle
 10
161.7984067713
 20
248.2335622021
 30
0.0
 40
3.450000000000017
  0
CIRCLE
  5
280
330
1F
100
AcDbEntity
  8
0
  6
Continuous
 62
     7
370
    15
100
AcDbCircle
 10
161.7984067713
 20
248.2335622021
 30
0.0
 40
3.75
  0
CIRCLE
  5
281
330
1F
100
AcDbEntity
  8
0
  6
Continuous
 62
     7
370
    15
100
AcDbCircle
 10
161.7984067713
 20
248.2335622021
 30
0.0
 40
2.275000000000006
  0
CIRCLE
  5
282
330
1F
100
AcDbEntity
  8
0
  6
Continuous
 62
     7
370
    15
100
AcDbCircle
 10
161.7984067713
 20
248.2335622021
 30
0.0
 40
0.75
  0
ARC
  5
283
330
1F
100
AcDbEntity
  8
0
  6
Continuous
 62
     7
370
    15
100
AcDbCircle
 10
161.7984067713
 20
263.2335622021
 30
0.0
 40
2.250000000000018
100
AcDbArc
 50
5.7391704773
 51
174.2608295227
  0
CIRCLE
  5
284
330
1F
100
AcDbEntity
  8
0
  6
Continuous
 62
     7
370
    15
100
AcDbCircle
 10
161.7984067713
 20
252.9057916556
 30
0.0
 40
0.75
  0
CIRCLE
  5
285
330
1F
100
AcDbEntity
  8
0
  6
Continuous
 62
     7
370
    15
100
AcDbCircle
 10
161.7984067713
 20
254.9057916556
 30
0.0
 40
0.75
  0
CIRCLE
  5
286
330
1F
100
AcDbEntity
  8
0
  6
Continuous
 62
     7
370
    15
100
AcDbCircle
 10
161.7984067713
 20
256.9057916556
 30
0.0
 40
0.7499999999999716
  0
CIRCLE
  5
287
330
1F
100
AcDbEntity
  8
0
  6
Continuous
 62
     7
370
    15
100
AcDbCircle
 10
161.7984067713
 20
258.9057916556
 30
0.0
 40
0.75
  0
CIRCLE
  5
288
330
1F
100
AcDbEntity
  8
0
  6
Continuous
 62
     7
370
    15
100
AcDbCircle
 10
161.7984067713
 20
260.9057916556
 30
0.0
 40
0.75
  0
CIRCLE
  5
289
330
1F
100
AcDbEntity
  8
0
  6
Continuous
 62
     7
370
    15
100
AcDbCircle
 10
161.7984067713
 20
262.9057916556
 30
0.0
 40
0.75
  0
LINE
  5
28A
330
1F
100
AcDbEntity
  8
0
  6
Continuous
 62
     7
370
    15
100
AcDbLine
 10
165.5296096605
 20
248.6085622021
 30
0.0
 11
164.0371285048
 21
263.4585622021
 31
0.0
  0
LINE
  5
28B
330
1F
100
AcDbEntity
  8
0
  6
Continuous
 62
     7
370
    15
100
AcDbLine
 10
159.5596850378
 20
263.4585622021
 30
0.0
 11
158.0672038822
 21
248.6085622021
 31
0.0
  0
CIRCLE
  5
28C
330
1F
100
AcDbEntity
  8
0
  6
Continuous
 62
     7
370
    15
100
AcDbCircle
 10
192.8685715317
 20
244.2319911496
 30
0.0
 40
1.5
  0
LINE
  5
28D
330
1F
100
AcDbEntity
  8
0
  6
Continuous
 62
     7
370
    15
100
AcDbLine
 10
204.3419208509
 20
251.2319911496
 30
0.0
 11
206.2821785246
 21
251.2319911496
 31
0.0
  0
LINE
  5
28E
330
1F
100
AcDbEntity
  8
0
  6
Continuous
 62
     7
370
    15
100
AcDbLine
 10
206.2821785246
 20
251.2319911496
 30
0.0
 11
206.2821785246
 21
256.2319911496
 31
0.0
  0
LINE
  5
28F
330
1F
100
AcDbEntity
  8
0
  6
Continuous
 62
     7
370
    15
100
AcDbLine
 10
206.2821785246
 20
256.2319911496
 30
0.0
 11
204.3419208509
 21
256.2319911496
 31
0.0
  0
LINE
  5
290
330
1F
100
AcDbEntity
  8
0
  6
Continuous
 62
     7
370
    15
100
AcDbLine
 10
204.3419208509
 20
256.2319911496
 30
0.0
 11
204.3419208509
 21
259.6319911496
 31
0.0
  0
LINE
  5
291
330
1F
100
AcDbEntity
  8
0
  6
Continuous
 62
     7
370
    15
100
AcDbLine
 10
204.3419208509
 20
259.6319911496
 30
0.0
 11
181.3419208509
 21
259.6319911496
 31
0.0
  0
LINE
  5
292
330
1F
100
AcDbEntity
  8
0
  6
Continuous
 62
     7
370
    15
100
AcDbLine
 10
181.3419208509
 20
259.6319911496
 30
0.0
 11
181.3419208509
 21
247.8319911496
 31
0.0
  0
LINE
  5
293
330
1F
100
AcDbEntity
  8
0
  6
Continuous
 62
     7
370
    15
100
AcDbLine
 10
181.3419208509
 20
247.8319911496
 30
0.0
 11
204.3419208509
 21
247.8319911496
 31
0.0
  0
LINE
  5
294
330
1F
100
AcDbEntity
  8
0
  6
Continuous
 62
     7
370
    15
100
AcDbLine
 10
204.3419208509
 20
247.8319911496
 30
0.0
 11
204.3419208509
 21
251.2319911496
 31
0.0
  0
LINE
  5
295
330
1F
100
AcDbEntity
  8
0
  6
Continuous
 62
     7
370
    15
100
AcDbLine
 10
199.8685715317
 20
266.2319911496
 30
0.0
 11
185.8685715317
 21
266.2319911496
 31
0.0
  0
ARC
  5
296
330
1F
100
AcDbEntity
  8
0
  6
Continuous
 62
     7
370
    15
100
AcDbCircle
 10
199.8685715317
 20
253.7319911496
 30
0.0
 40
12.50000000000003
100
AcDbArc
 50
270.0
 51
90.0
  0
LINE
  5
297
330
1F
100
AcDbEntity
  8
0
  6
Continuous
 62
     7
370
    15
100
AcDbLine
 10
185.8685715317
 20
241.2319911496
 30
0.0
 11
199.8685715317
 21
241.2319911496
 31
0.0
  0
ARC
  5
298
330
1F
100
AcDbEntity
  8
0
  6
Continuous
 62
     7
370
    15
100
AcDbCircle
 10
185.8685715317
 20
253.7319911496
 30
0.0
 40
12.50000000000003
100
AcDbArc
 50
90.0
 51
270.0
  0
CIRCLE
  5
299
330
1F
100
AcDbEntity
  8
0
  6
Continuous
 62
     7
370
    15
100
AcDbCircle
 10
192.8685715317
 20
263.2319911496
 30
0.0
 40
1.5
  0
LINE
  5
29A
330
1F
100
AcDbEntity
  8
0
  6
Continuous
 62
     7
370
    15
100
AcDbLine
 10
75.7725612571
 20
216.1591859311
 30
0.0
 11
98.7725612571
 21
216.1591859311
 31
0.0
  0
LINE
  5
29B
330
1F
100
AcDbEntity
  8
0
  6
Continuous
 62
     7
370
    15
100
AcDbLine
 10
98.7725612571
 20
216.1591859311
 30
0.0
 11
98.7725612571
 21
227.9591859311
 31
0.0
  0
LINE
  5
29C
330
1F
100
AcDbEntity
  8
0
  6
Continuous
 62
     7
370
    15
100
AcDbLine
 10
98.7725612571
 20
227.9591859311
 30
0.0
 11
75.7725612571
 21
227.9591859311
 31
0.0
  0
LINE
  5
29D
330
1F
100
AcDbEntity
  8
0
  6
Continuous
 62
     7
370
    15
100
AcDbLine
 10
75.7725612571
 20
227.9591859311
 30
0.0
 11
75.7725612571
 21
216.1591859311
 31
0.0
  0
LINE
  5
29E
330
1F
100
AcDbEntity
  8
0
  6
Continuous
 62
     7
370
    15
100
AcDbLine
 10
69.7725612571
 20
205.1591859311
 30
0.0
 11
72.7725612571
 21
205.1591859311
 31
0.0
  0
LINE
  5
29F
330
1F
100
AcDbEntity
  8
0
  6
Continuous
 62
     7
370
    15
100
AcDbLine
 10
72.7725612571
 20
205.1591859311
 30
0.0
 11
72.7725612571
 21
211.1591859311
 31
0.0
  0
LINE
  5
2A0
330
1F
100
AcDbEntity
  8
0
  6
Continuous
 62
     7
370
    15
100
AcDbLine
 10
72.7725612571
 20
211.1591859311
 30
0.0
 11
69.7725612571
 21
211.1591859311
 31
0.0
  0
LINE
  5
2A1
330
1F
100
AcDbEntity
  8
0
  6
Continuous
 62
     7
370
    15
100
AcDbLine
 10
69.7725612571
 20
211.1591859311
 30
0.0
 11
69.7725612571
 21
205.1591859311
 31
0.0
  0
CIRCLE
  5
2A2
330
1F
100
AcDbEntity
  8
0
  6
Continuous
 62
     7
370
    15
100
AcDbCircle
 10
122.2725612571
 20
201.6591859311
 30
0.0
 40
1.5
  0
CIRCLE
  5
2A3
330
1F
100
AcDbEntity
  8
0
  6
Continuous
 62
     7
370
    15
100
AcDbCircle
 10
87.2725612571
 20
212.5591859311
 30
0.0
 40
1.5
  0
LINE
  5
2A4
330
1F
100
AcDbEntity
  8
0
  6
Continuous
 62
     7
370
    15
100
AcDbLine
 10
119.2725612571
 20
195.1591859311
 30
0.0
 11
109.2725612571
 21
195.1591859311
 31
0.0
  0
LINE
  5
2A5
330
1F
100
AcDbEntity
  8
0
  6
Continuous
 62
     7
370
    15
100
AcDbLine
 10
109.2725612571
 20
195.1591859311
 30
0.0
 11
109.2725612571
 21
192.1591859311
 31
0.0
  0
LINE
  5
2A6
330
1F
100
AcDbEntity
  8
0
  6
Continuous
 62
     7
370
    15
100
AcDbLine
 10
109.2725612571
 20
192.1591859311
 30
0.0
 11
119.2725612571
 21
192.1591859311
 31
0.0
  0
LINE
  5
2A7
330
1F
100
AcDbEntity
  8
0
  6
Continuous
 62
     7
370
    15
100
AcDbLine
 10
119.2725612571
 20
192.1591859311
 30
0.0
 11
119.2725612571
 21
195.1591859311
 31
0.0
  0
LINE
  5
2A8
330
1F
100
AcDbEntity
  8
0
  6
Continuous
 62
     7
370
    15
100
AcDbLine
 10
69.7725612571
 20
192.1591859311
 30
0.0
 11
72.7725612571
 21
192.1591859311
 31
0.0
  0
LINE
  5
2A9
330
1F
100
AcDbEntity
  8
0
  6
Continuous
 62
     7
370
    15
100
AcDbLine
 10
72.7725612571
 20
192.1591859311
 30
0.0
 11
72.7725612571
 21
198.1591859311
 31
0.0
  0
LINE
  5
2AA
330
1F
100
AcDbEntity
  8
0
  6
Continuous
 62
     7
370
    15
100
AcDbLine
 10
72.7725612571
 20
198.1591859311
 30
0.0
 11
69.7725612571
 21
198.1591859311
 31
0.0
  0
LINE
  5
2AB
330
1F
100
AcDbEntity
  8
0
  6
Continuous
 62
     7
370
    15
100
AcDbLine
 10
69.7725612571
 20
198.1591859311
 30
0.0
 11
69.7725612571
 21
192.1591859311
 31
0.0
  0
LINE
  5
2AC
330
1F
100
AcDbEntity
  8
0
  6
Continuous
 62
     7
370
    15
100
AcDbLine
 10
66.7725612571
 20
231.1591859311
 30
0.0
 11
66.7725612571
 21
192.1591859311
 31
0.0
  0
ARC
  5
2AD
330
1F
100
AcDbEntity
  8
0
  6
Continuous
 62
     7
370
    15
100
AcDbCircle
 10
69.7725612571
 20
231.1591859311
 30
0.0
 40
3.0
100
AcDbArc
 50
90.0
 51
180.0
  0
LINE
  5
2AE
330
1F
100
AcDbEntity
  8
0
  6
Continuous
 62
     7
370
    15
100
AcDbLine
 10
123.7725612571
 20
234.1591859311
 30
0.0
 11
69.7725612571
 21
234.1591859311
 31
0.0
  0
ARC
  5
2AF
330
1F
100
AcDbEntity
  8
0
  6
Continuous
 62
     7
370
    15
100
AcDbCircle
 10
123.7725612571
 20
231.1591859311
 30
0.0
 40
3.000000000000014
100
AcDbArc
 50
0.0
 51
90.0
  0
LINE
  5
2B0
330
1F
100
AcDbEntity
  8
0
  6
Continuous
 62
     7
370
    15
100
AcDbLine
 10
126.7725612571
 20
192.1591859311
 30
0.0
 11
126.7725612571
 21
231.1591859311
 31
0.0
  0
ARC
  5
2B1
330
1F
100
AcDbEntity
  8
0
  6
Continuous
 62
     7
370
    15
100
AcDbCircle
 10
123.7725612571
 20
192.1591859311
 30
0.0
 40
3.000000000000014
100
AcDbArc
 50
270.0
 51
0.0
  0
LINE
  5
2B2
330
1F
100
AcDbEntity
  8
0
  6
Continuous
 62
     7
370
    15
100
AcDbLine
 10
69.7725612571
 20
189.1591859311
 30
0.0
 11
123.7725612571
 21
189.1591859311
 31
0.0
  0
ARC
  5
2B3
330
1F
100
AcDbEntity
  8
0
  6
Continuous
 62
     7
370
    15
100
AcDbCircle
 10
69.7725612571
 20
192.1591859311
 30
0.0
 40
3.0
100
AcDbArc
 50
180.0
 51
270.0
  0
LINE
  5
2B4
330
1F
100
AcDbEntity
  8
0
  6
Continuous
 62
     7
370
    15
100
AcDbLine
 10
123.7725612571
 20
198.1591859311
 30
0.0
 11
120.7725612571
 21
198.1591859311
 31
0.0
  0
LINE
  5
2B5
330
1F
100
AcDbEntity
  8
0
  6
Continuous
 62
     7
370
    15
100
AcDbLine
 10
120.7725612571
 20
198.1591859311
 30
0.0
 11
120.7725612571
 21
192.1591859311
 31
0.0
  0
LINE
  5
2B6
330
1F
100
AcDbEntity
  8
0
  6
Continuous
 62
     7
370
    15
100
AcDbLine
 10
120.7725612571
 20
192.1591859311
 30
0.0
 11
123.7725612571
 21
192.1591859311
 31
0.0
  0
LINE
  5
2B7
330
1F
100
AcDbEntity
  8
0
  6
Continuous
 62
     7
370
    15
100
AcDbLine
 10
123.7725612571
 20
192.1591859311
 30
0.0
 11
123.7725612571
 21
198.1591859311
 31
0.0
  0
LINE
  5
2B8
330
1F
100
AcDbEntity
  8
0
  6
Continuous
 62
     7
370
    15
100
AcDbLine
 10
84.2725612571
 20
195.1591859311
 30
0.0
 11
74.2725612571
 21
195.1591859311
 31
0.0
  0
LINE
  5
2B9
330
1F
100
AcDbEntity
  8
0
  6
Continuous
 62
     7
370
    15
100
AcDbLine
 10
74.2725612571
 20
195.1591859311
 30
0.0
 11
74.2725612571
 21
192.1591859311
 31
0.0
  0
LINE
  5
2BA
330
1F
100
AcDbEntity
  8
0
  6
Continuous
 62
     7
370
    15
100
AcDbLine
 10
74.2725612571
 20
192.1591859311
 30
0.0
 11
84.2725612571
 21
192.1591859311
 31
0.0
  0
LINE
  5
2BB
330
1F
100
AcDbEntity
  8
0
  6
Continuous
 62
     7
370
    15
100
AcDbLine
 10
84.2725612571
 20
192.1591859311
 30
0.0
 11
84.2725612571
 21
195.1591859311
 31
0.0
  0
CIRCLE
  5
2BC
330
1F
100
AcDbEntity
  8
0
  6
Continuous
 62
     7
370
    15
100
AcDbCircle
 10
96.7725612571
 20
193.6591859311
 30
0.0
 40
1.5
  0
CIRCLE
  5
2BD
330
1F
100
AcDbEntity
  8
0
  6
Continuous
 62
     7
370
    15
100
AcDbCircle
 10
87.2725612571
 20
231.5591859311
 30
0.0
 40
1.5
  0
CIRCLE
  5
2BE
330
1F
100
AcDbEntity
  8
0
  6
Continuous
 62
     7
370
    15
100
AcDbCircle
 10
71.2725612571
 20
201.6591859311
 30
0.0
 40
1.5
  0
LINE
  5
2BF
330
1F
100
AcDbEntity
  8
0
  6
Continuous
 62
     7
370
    15
100
AcDbLine
 10
120.7725612571
 20
205.1591859311
 30
0.0
 11
123.7725612571
 21
205.1591859311
 31
0.0
  0
LINE
  5
2C0
330
1F
100
AcDbEntity
  8
0
  6
Continuous
 62
     7
370
    15
100
AcDbLine
 10
123.7725612571
 20
205.1591859311
 30
0.0
 11
123.7725612571
 21
211.1591859311
 31
0.0
  0
LINE
  5
2C1
330
1F
100
AcDbEntity
  8
0
  6
Continuous
 62
     7
370
    15
100
AcDbLine
 10
123.7725612571
 20
211.1591859311
 30
0.0
 11
120.7725612571
 21
211.1591859311
 31
0.0
  0
LINE
  5
2C2
330
1F
100
AcDbEntity
  8
0
  6
Continuous
 62
     7
370
    15
100
AcDbLine
 10
120.7725612571
 20
211.1591859311
 30
0.0
 11
120.7725612571
 21
205.1591859311
 31
0.0
  0
LINE
  5
2C3
330
1F
100
AcDbEntity
  8
0
  6
Continuous
 62
     7
370
    15
100
AcDbLine
 10
144.459307034
 20
212.2848696911
 30
0.0
 11
154.459307034
 21
212.2848696911
 31
0.0
  0
LINE
  5
2C4
330
1F
100
AcDbEntity
  8
0
  6
Continuous
 62
     7
370
    15
100
AcDbLine
 10
154.459307034
 20
212.2848696911
 30
0.0
 11
154.459307034
 21
215.2848696911
 31
0.0
  0
LINE
  5
2C5
330
1F
100
AcDbEntity
  8
0
  6
Continuous
 62
     7
370
    15
100
AcDbLine
 10
154.459307034
 20
215.2848696911
 30
0.0
 11
144.459307034
 21
215.2848696911
 31
0.0
  0
LINE
  5
2C6
330
1F
100
AcDbEntity
  8
0
  6
Continuous
 62
     7
370
    15
100
AcDbLine
 10
144.459307034
 20
215.2848696911
 30
0.0
 11
144.459307034
 21
212.2848696911
 31
0.0
  0
LINE
  5
2C7
330
1F
100
AcDbEntity
  8
0
  6
Continuous
 62
     7
370
    15
100
AcDbLine
 10
145.959307034
 20
235.2848696911
 30
0.0
 11
139.959307034
 21
235.2848696911
 31
0.0
  0
LINE
  5
2C8
330
1F
100
AcDbEntity
  8
0
  6
Continuous
 62
     7
370
    15
100
AcDbLine
 10
145.959307034
 20
232.2848696911
 30
0.0
 11
145.959307034
 21
235.2848696911
 31
0.0
  0
LINE
  5
2C9
330
1F
100
AcDbEntity
  8
0
  6
Continuous
 62
     7
370
    15
100
AcDbLine
 10
147.959307034
 20
232.2848696911
 30
0.0
 11
145.959307034
 21
232.2848696911
 31
0.0
  0
LINE
  5
2CA
330
1F
100
AcDbEntity
  8
0
  6
Continuous
 62
     7
370
    15
100
AcDbLine
 10
147.959307034
 20
228.2848696911
 30
0.0
 11
147.959307034
 21
232.2848696911
 31
0.0
  0
LINE
  5
2CB
330
1F
100
AcDbEntity
  8
0
  6
Continuous
 62
     7
370
    15
100
AcDbLine
 10
146.459307034
 20
228.2848696911
 30
0.0
 11
147.959307034
 21
228.2848696911
 31
0.0
  0
LINE
  5
2CC
330
1F
100
AcDbEntity
  8
0
  6
Continuous
 62
     7
370
    15
100
AcDbLine
 10
146.459307034
 20
225.7848696911
 30
0.0
 11
146.459307034
 21
228.2848696911
 31
0.0
  0
LINE
  5
2CD
330
1F
100
AcDbEntity
  8
0
  6
Continuous
 62
     7
370
    15
100
AcDbLine
 10
147.959307034
 20
225.7848696911
 30
0.0
 11
146.459307034
 21
225.7848696911
 31
0.0
  0
LINE
  5
2CE
330
1F
100
AcDbEntity
  8
0
  6
Continuous
 62
     7
370
    15
100
AcDbLine
 10
147.959307034
 20
222.2848696911
 30
0.0
 11
147.959307034
 21
225.7848696911
 31
0.0
  0
LINE
  5
2CF
330
1F
100
AcDbEntity
  8
0
  6
Continuous
 62
     7
370
    15
100
AcDbLine
 10
150.959307034
 20
222.2848696911
 30
0.0
 11
147.959307034
 21
222.2848696911
 31
0.0
  0
LINE
  5
2D0
330
1F
100
AcDbEntity
  8
0
  6
Continuous
 62
     7
370
    15
100
AcDbLine
 10
150.959307034
 20
225.7848696911
 30
0.0
 11
150.959307034
 21
222.2848696911
 31
0.0
  0
LINE
  5
2D1
330
1F
100
AcDbEntity
  8
0
  6
Continuous
 62
     7
370
    15
100
AcDbLine
 10
152.459307034
 20
225.7848696911
 30
0.0
 11
150.959307034
 21
225.7848696911
 31
0.0
  0
LINE
  5
2D2
330
1F
100
AcDbEntity
  8
0
  6
Continuous
 62
     7
370
    15
100
AcDbLine
 10
152.459307034
 20
228.2848696911
 30
0.0
 11
152.459307034
 21
225.7848696911
 31
0.0
  0
LINE
  5
2D3
330
1F
100
AcDbEntity
  8
0
  6
Continuous
 62
     7
370
    15
100
AcDbLine
 10
150.959307034
 20
228.2848696911
 30
0.0
 11
152.459307034
 21
228.2848696911
 31
0.0
  0
LINE
  5
2D4
330
1F
100
AcDbEntity
  8
0
  6
Continuous
 62
     7
370
    15
100
AcDbLine
 10
150.959307034
 20
232.2848696911
 30
0.0
 11
150.959307034
 21
228.2848696911
 31
0.0
  0
LINE
  5
2D5
330
1F
100
AcDbEntity
  8
0
  6
Continuous
 62
     7
370
    15
100
AcDbLine
 10
152.959307034
 20
232.2848696911
 30
0.0
 11
150.959307034
 21
232.2848696911
 31
0.0
  0
LINE
  5
2D6
330
1F
100
AcDbEntity
  8
0
  6
Continuous
 62
     7
370
    15
100
AcDbLine
 10
152.959307034
 20
235.2848696911
 30
0.0
 11
152.959307034
 21
232.2848696911
 31
0.0
  0
LINE
  5
2D7
330
1F
100
AcDbEntity
  8
0
  6
Continuous
 62
     7
370
    15
100
AcDbLine
 10
158.959307034
 20
235.2848696911
 30
0.0
 11
152.959307034
 21
235.2848696911
 31
0.0
  0
LINE
  5
2D8
330
1F
100
AcDbEntity
  8
0
  6
Continuous
 62
     7
370
    15
100
AcDbLine
 10
158.959307034
 20
185.2848696911
 30
0.0
 11
158.959307034
 21
235.2848696911
 31
0.0
  0
LINE
  5
2D9
330
1F
100
AcDbEntity
  8
0
  6
Continuous
 62
     7
370
    15
100
AcDbLine
 10
152.959307034
 20
185.2848696911
 30
0.0
 11
158.959307034
 21
185.2848696911
 31
0.0
  0
LINE
  5
2DA
330
1F
100
AcDbEntity
  8
0
  6
Continuous
 62
     7
370
    15
100
AcDbLine
 10
152.959307034
 20
188.2848696911
 30
0.0
 11
152.959307034
 21
185.2848696911
 31
0.0
  0
LINE
  5
2DB
330
1F
100
AcDbEntity
  8
0
  6
Continuous
 62
     7
370
    15
100
AcDbLine
 10
150.959307034
 20
188.2848696911
 30
0.0
 11
152.959307034
 21
188.2848696911
 31
0.0
  0
LINE
  5
2DC
330
1F
100
AcDbEntity
  8
0
  6
Continuous
 62
     7
370
    15
100
AcDbLine
 10
150.959307034
 20
192.2848696911
 30
0.0
 11
150.959307034
 21
188.2848696911
 31
0.0
  0
LINE
  5
2DD
330
1F
100
AcDbEntity
  8
0
  6
Continuous
 62
     7
370
    15
100
AcDbLine
 10
152.459307034
 20
192.2848696911
 30
0.0
 11
150.959307034
 21
192.2848696911
 31
0.0
  0
LINE
  5
2DE
330
1F
100
AcDbEntity
  8
0
  6
Continuous
 62
     7
370
    15
100
AcDbLine
 10
152.459307034
 20
194.7848696911
 30
0.0
 11
152.459307034
 21
192.2848696911
 31
0.0
  0
LINE
  5
2DF
330
1F
100
AcDbEntity
  8
0
  6
Continuous
 62
     7
370
    15
100
AcDbLine
 10
150.959307034
 20
194.7848696911
 30
0.0
 11
152.459307034
 21
194.7848696911
 31
0.0
  0
LINE
  5
2E0
330
1F
100
AcDbEntity
  8
0
  6
Continuous
 62
     7
370
    15
100
AcDbLine
 10
150.959307034
 20
198.2848696911
 30
0.0
 11
150.959307034
 21
194.7848696911
 31
0.0
  0
LINE
  5
2E1
330
1F
100
AcDbEntity
  8
0
  6
Continuous
 62
     7
370
    15
100
AcDbLine
 10
147.959307034
 20
198.2848696911
 30
0.0
 11
150.959307034
 21
198.2848696911
 31
0.0
  0
LINE
  5
2E2
330
1F
100
AcDbEntity
  8
0
  6
Continuous
 62
     7
370
    15
100
AcDbLine
 10
147.959307034
 20
194.7848696911
 30
0.0
 11
147.959307034
 21
198.2848696911
 31
0.0
  0
LINE
  5
2E3
330
1F
100
AcDbEntity
  8
0
  6
Continuous
 62
     7
370
    15
100
AcDbLine
 10
146.459307034
 20
194.7848696911
 30
0.0
 11
147.959307034
 21
194.7848696911
 31
0.0
  0
LINE
  5
2E4
330
1F
100
AcDbEntity
  8
0
  6
Continuous
 62
     7
370
    15
100
AcDbLine
 10
146.459307034
 20
192.2848696911
 30
0.0
 11
146.459307034
 21
194.7848696911
 31
0.0
  0
LINE
  5
2E5
330
1F
100
AcDbEntity
  8
0
  6
Continuous
 62
     7
370
    15
100
AcDbLine
 10
147.959307034
 20
192.2848696911
 30
0.0
 11
146.459307034
 21
192.2848696911
 31
0.0
  0
LINE
  5
2E6
330
1F
100
AcDbEntity
  8
0
  6
Continuous
 62
     7
370
    15
100
AcDbLine
 10
147.959307034
 20
188.2848696911
 30
0.0
 11
147.959307034
 21
192.2848696911
 31
0.0
  0
LINE
  5
2E7
330
1F
100
AcDbEntity
  8
0
  6
Continuous
 62
     7
370
    15
100
AcDbLine
 10
145.959307034
 20
188.2848696911
 30
0.0
 11
147.959307034
 21
188.2848696911
 31
0.0
  0
LINE
  5
2E8
330
1F
100
AcDbEntity
  8
0
  6
Continuous
 62
     7
370
    15
100
AcDbLine
 10
145.959307034
 20
185.2848696911
 30
0.0
 11
145.959307034
 21
188.2848696911
 31
0.0
  0
LINE
  5
2E9
330
1F
100
AcDbEntity
  8
0
  6
Continuous
 62
     7
370
    15
100
AcDbLine
 10
139.959307034
 20
185.2848696911
 30
0.0
 11
145.959307034
 21
185.2848696911
 31
0.0
  0
LINE
  5
2EA
330
1F
100
AcDbEntity
  8
0
  6
Continuous
 62
     7
370
    15
100
AcDbLine
 10
139.959307034
 20
235.2848696911
 30
0.0
 11
139.959307034
 21
185.2848696911
 31
0.0
  0
LINE
  5
2EB
330
1F
100
AcDbEntity
  8
0
  6
Continuous
 62
     7
370
    15
100
AcDbLine
 10
174.3495536322
 20
212.2848696911
 30
0.0
 11
184.3495536322
 21
212.2848696911
 31
0.0
  0
LINE
  5
2EC
330
1F
100
AcDbEntity
  8
0
  6
Continuous
 62
     7
370
    15
100
AcDbLine
 10
184.3495536322
 20
212.2848696911
 30
0.0
 11
184.3495536322
 21
215.2848696911
 31
0.0
  0
LINE
  5
2ED
330
1F
100
AcDbEntity
  8
0
  6
Continuous
 62
     7
370
    15
100
AcDbLine
 10
184.3495536322
 20
215.2848696911
 30
0.0
 11
174.3495536322
 21
215.2848696911
 31
0.0
  0
LINE
  5
2EE
330
1F
100
AcDbEntity
  8
0
  6
Continuous
 62
     7
370
    15
100
AcDbLine
 10
174.3495536322
 20
215.2848696911
 30
0.0
 11
174.3495536322
 21
212.2848696911
 31
0.0
  0
LINE
  5
2EF
330
1F
100
AcDbEntity
  8
0
  6
Continuous
 62
     7
370
    15
100
AcDbLine
 10
175.8495536322
 20
235.2848696911
 30
0.0
 11
169.8495536322
 21
235.2848696911
 31
0.0
  0
LINE
  5
2F0
330
1F
100
AcDbEntity
  8
0
  6
Continuous
 62
     7
370
    15
100
AcDbLine
 10
175.8495536322
 20
232.2848696911
 30
0.0
 11
175.8495536322
 21
235.2848696911
 31
0.0
  0
LINE
  5
2F1
330
1F
100
AcDbEntity
  8
0
  6
Continuous
 62
     7
370
    15
100
AcDbLine
 10
177.8495536322
 20
232.2848696911
 30
0.0
 11
175.8495536322
 21
232.2848696911
 31
0.0
  0
LINE
  5
2F2
330
1F
100
AcDbEntity
  8
0
  6
Continuous
 62
     7
370
    15
100
AcDbLine
 10
177.8495536322
 20
228.2848696911
 30
0.0
 11
177.8495536322
 21
232.2848696911
 31
0.0
  0
LINE
  5
2F3
330
1F
100
AcDbEntity
  8
0
  6
Continuous
 62
     7
370
    15
100
AcDbLine
 10
176.3495536322
 20
228.2848696911
 30
0.0
 11
177.8495536322
 21
228.2848696911
 31
0.0
  0
LINE
  5
2F4
330
1F
100
AcDbEntity
  8
0
  6
Continuous
 62
     7
370
    15
100
AcDbLine
 10
176.3495536322
 20
225.7848696911
 30
0.0
 11
176.3495536322
 21
228.2848696911
 31
0.0
  0
LINE
  5
2F5
330
1F
100
AcDbEntity
  8
0
  6
Continuous
 62
     7
370
    15
100
AcDbLine
 10
177.8495536322
 20
225.7848696911
 30
0.0
 11
176.3495536322
 21
225.7848696911
 31
0.0
  0
LINE
  5
2F6
330
1F
100
AcDbEntity
  8
0
  6
Continuous
 62
     7
370
    15
100
AcDbLine
 10
177.8495536322
 20
222.2848696911
 30
0.0
 11
177.8495536322
 21
225.7848696911
 31
0.0
  0
LINE
  5
2F7
330
1F
100
AcDbEntity
  8
0
  6
Continuous
 62
     7
370
    15
100
AcDbLine
 10
180.8495536322
 20
222.2848696911
 30
0.0
 11
177.8495536322
 21
222.2848696911
 31
0.0
  0
LINE
  5
2F8
330
1F
100
AcDbEntity
  8
0
  6
Continuous
 62
     7
370
    15
100
AcDbLine
 10
180.8495536322
 20
225.7848696911
 30
0.0
 11
180.8495536322
 21
222.2848696911
 31
0.0
  0
LINE
  5
2F9
330
1F
100
AcDbEntity
  8
0
  6
Continuous
 62
     7
370
    15
100
AcDbLine
 10
182.3495536322
 20
225.7848696911
 30
0.0
 11
180.8495536322
 21
225.7848696911
 31
0.0
  0
LINE
  5
2FA
330
1F
100
AcDbEntity
  8
0
  6
Continuous
 62
     7
370
    15
100
AcDbLine
 10
182.3495536322
 20
228.2848696911
 30
0.0
 11
182.3495536322
 21
225.7848696911
 31
0.0
  0
LINE
  5
2FB
330
1F
100
AcDbEntity
  8
0
  6
Continuous
 62
     7
370
    15
100
AcDbLine
 10
180.8495536322
 20
228.2848696911
 30
0.0
 11
182.3495536322
 21
228.2848696911
 31
0.0
  0
LINE
  5
2FC
330
1F
100
AcDbEntity
  8
0
  6
Continuous
 62
     7
370
    15
100
AcDbLine
 10
180.8495536322
 20
232.2848696911
 30
0.0
 11
180.8495536322
 21
228.2848696911
 31
0.0
  0
LINE
  5
2FD
330
1F
100
AcDbEntity
  8
0
  6
Continuous
 62
     7
370
    15
100
AcDbLine
 10
182.8495536322
 20
232.2848696911
 30
0.0
 11
180.8495536322
 21
232.2848696911
 31
0.0
  0
LINE
  5
2FE
330
1F
100
AcDbEntity
  8
0
  6
Continuous
 62
     7
370
    15
100
AcDbLine
 10
182.8495536322
 20
235.2848696911
 30
0.0
 11
182.8495536322
 21
232.2848696911
 31
0.0
  0
LINE
  5
2FF
330
1F
100
AcDbEntity
  8
0
  6
Continuous
 62
     7
370
    15
100
AcDbLine
 10
188.8495536322
 20
235.2848696911
 30
0.0
 11
182.8495536322
 21
235.2848696911
 31
0.0
  0
LINE
  5
300
330
1F
100
AcDbEntity
  8
0
  6
Continuous
 62
     7
370
    15
100
AcDbLine
 10
188.8495536322
 20
185.2848696911
 30
0.0
 11
188.8495536322
 21
235.2848696911
 31
0.0
  0
LINE
  5
301
330
1F
100
AcDbEntity
  8
0
  6
Continuous
 62
     7
370
    15
100
AcDbLine
 10
182.8495536322
 20
185.2848696911
 30
0.0
 11
188.8495536322
 21
185.2848696911
 31
0.0
  0
LINE
  5
302
330
1F
100
AcDbEntity
  8
0
  6
Continuous
 62
     7
370
    15
100
AcDbLine
 10
182.8495536322
 20
188.2848696911
 30
0.0
 11
182.8495536322
 21
185.2848696911
 31
0.0
  0
LINE
  5
303
330
1F
100
AcDbEntity
  8
0
  6
Continuous
 62
     7
370
    15
100
AcDbLine
 10
180.8495536322
 20
188.2848696911
 30
0.0
 11
182.8495536322
 21
188.2848696911
 31
0.0
  0
LINE
  5
304
330
1F
100
AcDbEntity
  8
0
  6
Continuous
 62
     7
370
    15
100
AcDbLine
 10
180.8495536322
 20
192.2848696911
 30
0.0
 11
180.8495536322
 21
188.2848696911
 31
0.0
  0
LINE
  5
305
330
1F
100
AcDbEntity
  8
0
  6
Continuous
 62
     7
370
    15
100
AcDbLine
 10
182.3495536322
 20
192.2848696911
 30
0.0
 11
180.8495536322
 21
192.2848696911
 31
0.0
  0
LINE
  5
306
330
1F
100
AcDbEntity
  8
0
  6
Continuous
 62
     7
370
    15
100
AcDbLine
 10
182.3495536322
 20
194.7848696911
 30
0.0
 11
182.3495536322
 21
192.2848696911
 31
0.0
  0
LINE
  5
307
330
1F
100
AcDbEntity
  8
0
  6
Continuous
 62
     7
370
    15
100
AcDbLine
 10
180.8495536322
 20
194.7848696911
 30
0.0
 11
182.3495536322
 21
194.7848696911
 31
0.0
  0
LINE
  5
308
330
1F
100
AcDbEntity
  8
0
  6
Continuous
 62
     7
370
    15
100
AcDbLine
 10
180.8495536322
 20
198.2848696911
 30
0.0
 11
180.8495536322
 21
194.7848696911
 31
0.0
  0
LINE
  5
309
330
1F
100
AcDbEntity
  8
0
  6
Continuous
 62
     7
370
    15
100
AcDbLine
 10
177.8495536322
 20
198.2848696911
 30
0.0
 11
180.8495536322
 21
198.2848696911
 31
0.0
  0
LINE
  5
30A
330
1F
100
AcDbEntity
  8
0
  6
Continuous
 62
     7
370
    15
100
AcDbLine
 10
177.8495536322
 20
194.7848696911
 30
0.0
 11
177.8495536322
 21
198.2848696911
 31
0.0
  0
LINE
  5
30B
330
1F
100
AcDbEntity
  8
0
  6
Continuous
 62
     7
370
    15
100
AcDbLine
 10
176.3495536322
 20
194.7848696911
 30
0.0
 11
177.8495536322
 21
194.7848696911
 31
0.0
  0
LINE
  5
30C
330
1F
100
AcDbEntity
  8
0
  6
Continuous
 62
     7
370
    15
100
AcDbLine
 10
176.3495536322
 20
192.2848696911
 30
0.0
 11
176.3495536322
 21
194.7848696911
 31
0.0
  0
LINE
  5
30D
330
1F
100
AcDbEntity
  8
0
  6
Continuous
 62
     7
370
    15
100
AcDbLine
 10
177.8495536322
 20
192.2848696911
 30
0.0
 11
176.3495536322
 21
192.2848696911
 31
0.0
  0
LINE
  5
30E
330
1F
100
AcDbEntity
  8
0
  6
Continuous
 62
     7
370
    15
100
AcDbLine
 10
177.8495536322
 20
188.2848696911
 30
0.0
 11
177.8495536322
 21
192.2848696911
 31
0.0
  0
LINE
  5
30F
330
1F
100
AcDbEntity
  8
0
  6
Continuous
 62
     7
370
    15
100
AcDbLine
 10
175.8495536322
 20
188.2848696911
 30
0.0
 11
177.8495536322
 21
188.2848696911
 31
0.0
  0
LINE
  5
310
330
1F
100
AcDbEntity
  8
0
  6
Continuous
 62
     7
370
    15
100
AcDbLine
 10
175.8495536322
 20
185.2848696911
 30
0.0
 11
175.8495536322
 21
188.2848696911
 31
0.0
  0
LINE
  5
311
330
1F
100
AcDbEntity
  8
0
  6
Continuous
 62
     7
370
    15
100
AcDbLine
 10
169.8495536322
 20
185.2848696911
 30
0.0
 11
175.8495536322
 21
185.2848696911
 31
0.0
  0
LINE
  5
312
330
1F
100
AcDbEntity
  8
0
  6
Continuous
 62
     7
370
    15
100
AcDbLine
 10
169.8495536322
 20
235.2848696911
 30
0.0
 11
169.8495536322
 21
185.2848696911
 31
0.0
  0
LINE
  5
313
330
1F
100
AcDbEntity
  8
0
  6
Continuous
 62
     7
370
    15
100
AcDbLine
 10
238.6929556821
 20
246.6085070589
 30
0.0
 11
261.6929556821
 21
246.6085070589
 31
0.0
  0
LINE
  5
314
330
1F
100
AcDbEntity
  8
0
  6
Continuous
 62
     7
370
    15
100
AcDbLine
 10
261.6929556821
 20
246.6085070589
 30
0.0
 11
261.6929556821
 21
258.4085070589
 31
0.0
  0
LINE
  5
315
330
1F
100
AcDbEntity
  8
0
  6
Continuous
 62
     7
370
    15
100
AcDbLine
 10
261.6929556821
 20
258.4085070589
 30
0.0
 11
238.6929556821
 21
258.4085070589
 31
0.0
  0
LINE
  5
316
330
1F
100
AcDbEntity
  8
0
  6
Continuous
 62
     7
370
    15
100
AcDbLine
 10
238.6929556821
 20
258.4085070589
 30
0.0
 11
238.6929556821
 21
246.6085070589
 31
0.0
  0
LINE
  5
317
330
1F
100
AcDbEntity
  8
0
  6
Continuous
 62
     7
370
    15
100
AcDbLine
 10
232.6929556821
 20
235.6085070589
 30
0.0
 11
235.6929556821
 21
235.6085070589
 31
0.0
  0
LINE
  5
318
330
1F
100
AcDbEntity
  8
0
  6
Continuous
 62
     7
370
    15
100
AcDbLine
 10
235.6929556821
 20
235.6085070589
 30
0.0
 11
235.6929556821
 21
241.6085070589
 31
0.0
  0
LINE
  5
319
330
1F
100
AcDbEntity
  8
0
  6
Continuous
 62
     7
370
    15
100
AcDbLine
 10
235.6929556821
 20
241.6085070589
 30
0.0
 11
232.6929556821
 21
241.6085070589
 31
0.0
  0
LINE
  5
31A
330
1F
100
AcDbEntity
  8
0
  6
Continuous
 62
     7
370
    15
100
AcDbLine
 10
232.6929556821
 20
241.6085070589
 30
0.0
 11
232.6929556821
 21
235.6085070589
 31
0.0
  0
CIRCLE
  5
31B
330
1F
100
AcDbEntity
  8
0
  6
Continuous
 62
     7
370
    15
100
AcDbCircle
 10
285.1929556821
 20
232.1085070589
 30
0.0
 40
1.500000000000057
  0
CIRCLE
  5
31C
330
1F
100
AcDbEntity
  8
0
  6
Continuous
 62
     7
370
    15
100
AcDbCircle
 10
250.1929556821
 20
243.0085070589
 30
0.0
 40
1.5
  0
LINE
  5
31D
330
1F
100
AcDbEntity
  8
0
  6
Continuous
 62
     7
370
    15
100
AcDbLine
 10
282.1929556821
 20
225.6085070589
 30
0.0
 11
272.1929556821
 21
225.6085070589
 31
0.0
  0
LINE
  5
31E
330
1F
100
AcDbEntity
  8
0
  6
Continuous
 62
     7
370
    15
100
AcDbLine
 10
272.1929556821
 20
225.6085070589
 30
0.0
 11
272.1929556821
 21
222.6085070589
 31
0.0
  0
LINE
  5
31F
330
1F
100
AcDbEntity
  8
0
  6
Continuous
 62
     7
370
    15
100
AcDbLine
 10
272.1929556821
 20
222.6085070589
 30
0.0
 11
282.1929556821
 21
222.6085070589
 31
0.0
  0
LINE
  5
320
330
1F
100
AcDbEntity
  8
0
  6
Continuous
 62
     7
370
    15
100
AcDbLine
 10
282.1929556821
 20
222.6085070589
 30
0.0
 11
282.1929556821
 21
225.6085070589
 31
0.0
  0
CIRCLE
  5
321
330
1F
100
AcDbEntity
  8
0
  6
Continuous
 62
     7
370
    15
100
AcDbCircle
 10
280.7725661312
 20
269.2501213543
 30
0.0
 40
1.499999999999943
  0
LINE
  5
322
330
1F
100
AcDbEntity
  8
0
  6
Continuous
 62
     7
370
    15
100
AcDbLine
 10
286.6929556821
 20
228.6085070589
 30
0.0
 11
283.6929556821
 21
228.6085070589
 31
0.0
  0
LINE
  5
323
330
1F
100
AcDbEntity
  8
0
  6
Continuous
 62
     7
370
    15
100
AcDbLine
 10
283.6929556821
 20
228.6085070589
 30
0.0
 11
283.6929556821
 21
222.6085070589
 31
0.0
  0
LINE
  5
324
330
1F
100
AcDbEntity
  8
0
  6
Continuous
 62
     7
370
    15
100
AcDbLine
 10
283.6929556821
 20
222.6085070589
 30
0.0
 11
286.6929556821
 21
222.6085070589
 31
0.0
  0
LINE
  5
325
330
1F
100
AcDbEntity
  8
0
  6
Continuous
 62
     7
370
    15
100
AcDbLine
 10
286.6929556821
 20
222.6085070589
 30
0.0
 11
286.6929556821
 21
228.6085070589
 31
0.0
  0
LINE
  5
326
330
1F
100
AcDbEntity
  8
0
  6
Continuous
 62
     7
370
    15
100
AcDbLine
 10
229.6929556821
 20
261.8153828715
 30
0.0
 11
229.6929556821
 21
222.6085070589
 31
0.0
  0
ARC
  5
327
330
1F
100
AcDbEntity
  8
0
  6
Continuous
 62
     7
370
    15
100
AcDbCircle
 10
232.6929556821
 20
261.8153828715
 30
0.0
 40
3.000000000000048
100
AcDbArc
 50
99.9680204188
 51
180.0
  0
LINE
  5
328
330
1F
100
AcDbEntity
  8
0
  6
Continuous
 62
     7
370
    15
100
AcDbLine
 10
280.0801722064
 20
273.1897394389
 30
0.0
 11
232.1736602385
 21
264.7700964349
 31
0.0
  0
ARC
  5
329
330
1F
100
AcDbEntity
  8
0
  6
Continuous
 62
     7
370
    15
100
AcDbCircle
 10
280.7725661312
 20
269.2501213543
 30
0.0
 40
4.000000000000016
100
AcDbArc
 50
29.5051929637
 51
99.9680204188
  0
LINE
  5
32A
330
1F
100
AcDbEntity
  8
0
  6
Continuous
 62
     7
370
    15
100
AcDbLine
 10
289.3038888678
 20
262.2960349234
 30
0.0
 11
284.2538103787
 21
271.2201311229
 31
0.0
  0
ARC
  5
32B
330
1F
100
AcDbEntity
  8
0
  6
Continuous
 62
     7
370
    15
100
AcDbCircle
 10
286.6929556821
 20
260.8185275969
 30
0.0
 40
3.0
100
AcDbArc
 50
360.0
 51
29.5051929637
  0
LINE
  5
32C
330
1F
100
AcDbEntity
  8
0
  6
Continuous
 62
     7
370
    15
100
AcDbLine
 10
289.6929556821
 20
222.6085070589
 30
0.0
 11
289.6929556821
 21
260.8185275969
 31
0.0
  0
ARC
  5
32D
330
1F
100
AcDbEntity
  8
0
  6
Continuous
 62
     7
370
    15
100
AcDbCircle
 10
286.6929556821
 20
222.6085070589
 30
0.0
 40
3.0
100
AcDbArc
 50
270.0
 51
0.0
  0
LINE
  5
32E
330
1F
100
AcDbEntity
  8
0
  6
Continuous
 62
     7
370
    15
100
AcDbLine
 10
232.6929556821
 20
219.6085070589
 30
0.0
 11
286.6929556821
 21
219.6085070589
 31
0.0
  0
ARC
  5
32F
330
1F
100
AcDbEntity
  8
0
  6
Continuous
 62
     7
370
    15
100
AcDbCircle
 10
232.6929556821
 20
222.6085070589
 30
0.0
 40
3.0
100
AcDbArc
 50
180.0
 51
270.0
  0
LINE
  5
330
330
1F
100
AcDbEntity
  8
0
  6
Continuous
 62
     7
370
    15
100
AcDbLine
 10
232.6929556821
 20
222.6085070589
 30
0.0
 11
235.6929556821
 21
222.6085070589
 31
0.0
  0
LINE
  5
331
330
1F
100
AcDbEntity
  8
0
  6
Continuous
 62
     7
370
    15
100
AcDbLine
 10
235.6929556821
 20
222.6085070589
 30
0.0
 11
235.6929556821
 21
228.6085070589
 31
0.0
  0
LINE
  5
332
330
1F
100
AcDbEntity
  8
0
  6
Continuous
 62
     7
370
    15
100
AcDbLine
 10
235.6929556821
 20
228.6085070589
 30
0.0
 11
232.6929556821
 21
228.6085070589
 31
0.0
  0
LINE
  5
333
330
1F
100
AcDbEntity
  8
0
  6
Continuous
 62
     7
370
    15
100
AcDbLine
 10
232.6929556821
 20
228.6085070589
 30
0.0
 11
232.6929556821
 21
222.6085070589
 31
0.0
  0
LINE
  5
334
330
1F
100
AcDbEntity
  8
0
  6
Continuous
 62
     7
370
    15
100
AcDbLine
 10
247.1929556821
 20
225.6085070589
 30
0.0
 11
237.1929556821
 21
225.6085070589
 31
0.0
  0
LINE
  5
335
330
1F
100
AcDbEntity
  8
0
  6
Continuous
 62
     7
370
    15
100
AcDbLine
 10
237.1929556821
 20
225.6085070589
 30
0.0
 11
237.1929556821
 21
222.6085070589
 31
0.0
  0
LINE
  5
336
330
1F
100
AcDbEntity
  8
0
  6
Continuous
 62
     7
370
    15
100
AcDbLine
 10
237.1929556821
 20
222.6085070589
 30
0.0
 11
247.1929556821
 21
222.6085070589
 31
0.0
  0
LINE
  5
337
330
1F
100
AcDbEntity
  8
0
  6
Continuous
 62
     7
370
    15
100
AcDbLine
 10
247.1929556821
 20
222.6085070589
 30
0.0
 11
247.1929556821
 21
225.6085070589
 31
0.0
  0
CIRCLE
  5
338
330
1F
100
AcDbEntity
  8
0
  6
Continuous
 62
     7
370
    15
100
AcDbCircle
 10
259.6929556821
 20
224.1085070589
 30
0.0
 40
1.5
  0
CIRCLE
  5
339
330
1F
100
AcDbEntity
  8
0
  6
Continuous
 62
     7
370
    15
100
AcDbCircle
 10
250.1929556821
 20
262.0085070589
 30
0.0
 40
1.5
  0
CIRCLE
  5
33A
330
1F
100
AcDbEntity
  8
0
  6
Continuous
 62
     7
370
    15
100
AcDbCircle
 10
234.1929556821
 20
232.1085070589
 30
0.0
 40
1.5
  0
LINE
  5
33B
330
1F
100
AcDbEntity
  8
0
  6
Continuous
 62
     7
370
    15
100
AcDbLine
 10
283.6929556821
 20
235.6085070589
 30
0.0
 11
286.6929556821
 21
235.6085070589
 31
0.0
  0
LINE
  5
33C
330
1F
100
AcDbEntity
  8
0
  6
Continuous
 62
     7
370
    15
100
AcDbLine
 10
286.6929556821
 20
235.6085070589
 30
0.0
 11
286.6929556821
 21
241.6085070589
 31
0.0
  0
LINE
  5
33D
330
1F
100
AcDbEntity
  8
0
  6
Continuous
 62
     7
370
    15
100
AcDbLine
 10
286.6929556821
 20
241.6085070589
 30
0.0
 11
283.6929556821
 21
241.6085070589
 31
0.0
  0
LINE
  5
33E
330
1F
100
AcDbEntity
  8
0
  6
Continuous
 62
     7
370
    15
100
AcDbLine
 10
283.6929556821
 20
241.6085070589
 30
0.0
 11
283.6929556821
 21
235.6085070589
 31
0.0
  0
CIRCLE
  5
33F
330
1F
100
AcDbEntity
  8
0
  6
Continuous
 62
     7
370
    15
100
AcDbCircle
 10
214.5223575381
 20
191.4553233412
 30
0.0
 40
1.5
  0
LINE
  5
340
330
1F
100
AcDbEntity
  8
0
  6
Continuous
 62
     7
370
    15
100
AcDbLine
 10
225.9957068573
 20
198.4553233412
 30
0.0
 11
227.935964531
 21
198.4553233412
 31
0.0
  0
LINE
  5
341
330
1F
100
AcDbEntity
  8
0
  6
Continuous
 62
     7
370
    15
100
AcDbLine
 10
227.935964531
 20
198.4553233412
 30
0.0
 11
227.935964531
 21
203.4553233412
 31
0.0
  0
LINE
  5
342
330
1F
100
AcDbEntity
  8
0
  6
Continuous
 62
     7
370
    15
100
AcDbLine
 10
227.935964531
 20
203.4553233412
 30
0.0
 11
225.9957068573
 21
203.4553233412
 31
0.0
  0
LINE
  5
343
330
1F
100
AcDbEntity
  8
0
  6
Continuous
 62
     7
370
    15
100
AcDbLine
 10
225.9957068573
 20
203.4553233412
 30
0.0
 11
225.9957068573
 21
206.8553233412
 31
0.0
  0
LINE
  5
344
330
1F
100
AcDbEntity
  8
0
  6
Continuous
 62
     7
370
    15
100
AcDbLine
 10
225.9957068573
 20
206.8553233412
 30
0.0
 11
202.9957068573
 21
206.8553233412
 31
0.0
  0
LINE
  5
345
330
1F
100
AcDbEntity
  8
0
  6
Continuous
 62
     7
370
    15
100
AcDbLine
 10
202.9957068573
 20
206.8553233412
 30
0.0
 11
202.9957068573
 21
195.0553233412
 31
0.0
  0
LINE
  5
346
330
1F
100
AcDbEntity
  8
0
  6
Continuous
 62
     7
370
    15
100
AcDbLine
 10
202.9957068573
 20
195.0553233412
 30
0.0
 11
225.9957068573
 21
195.0553233412
 31
0.0
  0
LINE
  5
347
330
1F
100
AcDbEntity
  8
0
  6
Continuous
 62
     7
370
    15
100
AcDbLine
 10
225.9957068573
 20
195.0553233412
 30
0.0
 11
225.9957068573
 21
198.4553233412
 31
0.0
  0
LINE
  5
348
330
1F
100
AcDbEntity
  8
0
  6
Continuous
 62
     7
370
    15
100
AcDbLine
 10
221.5223575381
 20
213.4553233412
 30
0.0
 11
207.5223575381
 21
213.4553233412
 31
0.0
  0
ARC
  5
349
330
1F
100
AcDbEntity
  8
0
  6
Continuous
 62
     7
370
    15
100
AcDbCircle
 10
221.5223575381
 20
200.9553233412
 30
0.0
 40
12.50000000000003
100
AcDbArc
 50
270.0
 51
90.0
  0
LINE
  5
34A
330
1F
100
AcDbEntity
  8
0
  6
Continuous
 62
     7
370
    15
100
AcDbLine
 10
207.5223575381
 20
188.4553233412
 30
0.0
 11
221.5223575381
 21
188.4553233412
 31
0.0
  0
ARC
  5
34B
330
1F
100
AcDbEntity
  8
0
  6
Continuous
 62
     7
370
    15
100
AcDbCircle
 10
207.5223575381
 20
200.9553233412
 30
0.0
 40
12.50000000000003
100
AcDbArc
 50
90.0
 51
270.0
  0
CIRCLE
  5
34C
330
1F
100
AcDbEntity
  8
0
  6
Continuous
 62
     7
370
    15
100
AcDbCircle
 10
214.5223575381
 20
210.4553233412
 30
0.0
 40
1.5
  0
CIRCLE
  5
34D
330
1F
100
AcDbEntity
  8
0
  6
Continuous
 62
     7
370
    15
100
AcDbCircle
 10
302.1336168472
 20
313.8369874986
 30
0.0
 40
3.449999999999989
  0
CIRCLE
  5
34E
330
1F
100
AcDbEntity
  8
0
  6
Continuous
 62
     7
370
    15
100
AcDbCircle
 10
302.1336168472
 20
313.8369874986
 30
0.0
 40
3.749999999999943
  0
CIRCLE
  5
34F
330
1F
100
AcDbEntity
  8
0
  6
Continuous
 62
     7
370
    15
100
AcDbCircle
 10
302.1336168472
 20
313.8369874986
 30
0.0
 40
2.275000000000034
  0
CIRCLE
  5
350
330
1F
100
AcDbEntity
  8
0
  6
Continuous
 62
     7
370
    15
100
AcDbCircle
 10
302.1336168472
 20
313.8369874986
 30
0.0
 40
0.7499999999999432
  0
ARC
  5
351
330
1F
100
AcDbEntity
  8
0
  6
Continuous
 62
     7
370
    15
100
AcDbCircle
 10
302.1336168472
 20
298.8369874986
 30
0.0
 40
2.250000000000012
100
AcDbArc
 50
185.7391704773
 51
354.2608295227
  0
LINE
  5
352
330
1F
100
AcDbEntity
  8
0
  6
Continuous
 62
     7
370
    15
100
AcDbLine
 10
299.8948951137
 20
298.6119874986
 30
0.0
 11
298.4024139581
 21
313.4619874986
 31
0.0
  0
CIRCLE
  5
353
330
1F
100
AcDbEntity
  8
0
  6
Continuous
 62
     7
370
    15
100
AcDbCircle
 10
302.1336168472
 20
309.1647580451
 30
0.0
 40
0.7499999999999432
  0
CIRCLE
  5
354
330
1F
100
AcDbEntity
  8
0
  6
Continuous
 62
     7
370
    15
100
AcDbCircle
 10
302.1336168472
 20
307.1647580451
 30
0.0
 40
0.75
  0
CIRCLE
  5
355
330
1F
100
AcDbEntity
  8
0
  6
Continuous
 62
     7
370
    15
100
AcDbCircle
 10
302.1336168472
 20
305.1647580451
 30
0.0
 40
0.75
  0
CIRCLE
  5
356
330
1F
100
AcDbEntity
  8
0
  6
Continuous
 62
     7
370
    15
100
AcDbCircle
 10
302.1336168472
 20
303.1647580451
 30
0.0
 40
0.75
  0
CIRCLE
  5
357
330
1F
100
AcDbEntity
  8
0
  6
Continuous
 62
     7
370
    15
100
AcDbCircle
 10
302.1336168472
 20
301.1647580451
 30
0.0
 40
0.7499999999999432
  0
CIRCLE
  5
358
330
1F
100
AcDbEntity
  8
0
  6
Continuous
 62
     7
370
    15
100
AcDbCircle
 10
302.1336168472
 20
299.1647580451
 30
0.0
 40
0.7499999999999432
  0
LINE
  5
359
330
1F
100
AcDbEntity
  8
0
  6
Continuous
 62
     7
370
    15
100
AcDbLine
 10
305.8648197364
 20
313.4619874986
 30
0.0
 11
304.3723385807
 21
298.6119874986
 31
0.0
  0
ARC
  5
35A
330
1F
100
AcDbEntity
  8
0
  6
Continuous
 62
     7
370
    15
100
AcDbCircle
 10
302.1336168472
 20
328.8369874986
 30
0.0
 40
2.250000000000012
100
AcDbArc
 50
5.7391704773
 51
174.2608295227
  0
CIRCLE
  5
35B
330
1F
100
AcDbEntity
  8
0
  6
Continuous
 62
     7
370
    15
100
AcDbCircle
 10
302.1336168472
 20
318.5092169522
 30
0.0
 40
0.7499999999999432
  0
CIRCLE
  5
35C
330
1F
100
AcDbEntity
  8
0
  6
Continuous
 62
     7
370
    15
100
AcDbCircle
 10
302.1336168472
 20
320.5092169522
 30
0.0
 40
0.75
  0
CIRCLE
  5
35D
330
1F
100
AcDbEntity
  8
0
  6
Continuous
 62
     7
370
    15
100
AcDbCircle
 10
302.1336168472
 20
322.5092169522
 30
0.0
 40
0.75
  0
CIRCLE
  5
35E
330
1F
100
AcDbEntity
  8
0
  6
Continuous
 62
     7
370
    15
100
AcDbCircle
 10
302.1336168472
 20
324.5092169522
 30
0.0
 40
0.75
  0
CIRCLE
  5
35F
330
1F
100
AcDbEntity
  8
0
  6
Continuous
 62
     7
370
    15
100
AcDbCircle
 10
302.1336168472
 20
326.5092169522
 30
0.0
 40
0.7499999999999432
  0
CIRCLE
  5
360
330
1F
100
AcDbEntity
  8
0
  6
Continuous
 62
     7
370
    15
100
AcDbCircle
 10
302.1336168472
 20
328.5092169522
 30
0.0
 40
0.7499999999999432
  0
LINE
  5
361
330
1F
100
AcDbEntity
  8
0
  6
Continuous
 62
     7
370
    15
100
AcDbLine
 10
299.8948951137
 20
329.0619874986
 30
0.0
 11
298.4024139581
 21
314.2119874986
 31
0.0
  0
LINE
  5
362
330
1F
100
AcDbEntity
  8
0
  6
Continuous
 62
     7
370
    15
100
AcDbLine
 10
305.8648197364
 20
314.2119874986
 30
0.0
 11
304.3723385807
 21
329.0619874986
 31
0.0
  0
CIRCLE
  5
363
330
1F
100
AcDbEntity
  8
0
  6
Continuous
 62
     7
370
    15
100
AcDbCircle
 10
284.872040839
 20
205.4220078589
 30
0.0
 40
1.499999999999943
  0
LINE
  5
364
330
1F
100
AcDbEntity
  8
0
  6
Continuous
 62
     7
370
    15
100
AcDbLine
 10
293.872040839
 20
179.9220078589
 30
0.0
 11
296.872040839
 21
179.9220078589
 31
0.0
  0
LINE
  5
365
330
1F
100
AcDbEntity
  8
0
  6
Continuous
 62
     7
370
    15
100
AcDbLine
 10
293.872040839
 20
178.4220078589
 30
0.0
 11
293.872040839
 21
179.9220078589
 31
0.0
  0
LINE
  5
366
330
1F
100
AcDbEntity
  8
0
  6
Continuous
 62
     7
370
    15
100
AcDbLine
 10
290.372040839
 20
178.4220078589
 30
0.0
 11
293.872040839
 21
178.4220078589
 31
0.0
  0
LINE
  5
367
330
1F
100
AcDbEntity
  8
0
  6
Continuous
 62
     7
370
    15
100
AcDbLine
 10
290.372040839
 20
182.4220078589
 30
0.0
 11
290.372040839
 21
178.4220078589
 31
0.0
  0
LINE
  5
368
330
1F
100
AcDbEntity
  8
0
  6
Continuous
 62
     7
370
    15
100
AcDbLine
 10
291.872040839
 20
182.4220078589
 30
0.0
 11
290.372040839
 21
182.4220078589
 31
0.0
  0
LINE
  5
369
330
1F
100
AcDbEntity
  8
0
  6
Continuous
 62
     7
370
    15
100
AcDbLine
 10
291.872040839
 20
184.9220078589
 30
0.0
 11
291.872040839
 21
182.4220078589
 31
0.0
  0
LINE
  5
36A
330
1F
100
AcDbEntity
  8
0
  6
Continuous
 62
     7
370
    15
100
AcDbLine
 10
290.372040839
 20
184.9220078589
 30
0.0
 11
291.872040839
 21
184.9220078589
 31
0.0
  0
LINE
  5
36B
330
1F
100
AcDbEntity
  8
0
  6
Continuous
 62
     7
370
    15
100
AcDbLine
 10
290.372040839
 20
188.4220078589
 30
0.0
 11
290.372040839
 21
184.9220078589
 31
0.0
  0
LINE
  5
36C
330
1F
100
AcDbEntity
  8
0
  6
Continuous
 62
     7
370
    15
100
AcDbLine
 10
287.372040839
 20
188.4220078589
 30
0.0
 11
290.372040839
 21
188.4220078589
 31
0.0
  0
LINE
  5
36D
330
1F
100
AcDbEntity
  8
0
  6
Continuous
 62
     7
370
    15
100
AcDbLine
 10
287.372040839
 20
184.9220078589
 30
0.0
 11
287.372040839
 21
188.4220078589
 31
0.0
  0
LINE
  5
36E
330
1F
100
AcDbEntity
  8
0
  6
Continuous
 62
     7
370
    15
100
AcDbLine
 10
285.872040839
 20
184.9220078589
 30
0.0
 11
287.372040839
 21
184.9220078589
 31
0.0
  0
LINE
  5
36F
330
1F
100
AcDbEntity
  8
0
  6
Continuous
 62
     7
370
    15
100
AcDbLine
 10
285.872040839
 20
182.4220078589
 30
0.0
 11
285.872040839
 21
184.9220078589
 31
0.0
  0
LINE
  5
370
330
1F
100
AcDbEntity
  8
0
  6
Continuous
 62
     7
370
    15
100
AcDbLine
 10
287.372040839
 20
182.4220078589
 30
0.0
 11
285.872040839
 21
182.4220078589
 31
0.0
  0
LINE
  5
371
330
1F
100
AcDbEntity
  8
0
  6
Continuous
 62
     7
370
    15
100
AcDbLine
 10
287.372040839
 20
178.4220078589
 30
0.0
 11
287.372040839
 21
182.4220078589
 31
0.0
  0
LINE
  5
372
330
1F
100
AcDbEntity
  8
0
  6
Continuous
 62
     7
370
    15
100
AcDbLine
 10
285.372040839
 20
178.4220078589
 30
0.0
 11
287.372040839
 21
178.4220078589
 31
0.0
  0
LINE
  5
373
330
1F
100
AcDbEntity
  8
0
  6
Continuous
 62
     7
370
    15
100
AcDbLine
 10
285.372040839
 20
179.9220078589
 30
0.0
 11
285.372040839
 21
178.4220078589
 31
0.0
  0
LINE
  5
374
330
1F
100
AcDbEntity
  8
0
  6
Continuous
 62
     7
370
    15
100
AcDbLine
 10
282.372040839
 20
179.9220078589
 30
0.0
 11
285.372040839
 21
179.9220078589
 31
0.0
  0
LINE
  5
375
330
1F
100
AcDbEntity
  8
0
  6
Continuous
 62
     7
370
    15
100
AcDbLine
 10
282.372040839
 20
180.9220078589
 30
0.0
 11
282.372040839
 21
179.9220078589
 31
0.0
  0
LINE
  5
376
330
1F
100
AcDbEntity
  8
0
  6
Continuous
 62
     7
370
    15
100
AcDbLine
 10
277.372040839
 20
180.9220078589
 30
0.0
 11
282.372040839
 21
180.9220078589
 31
0.0
  0
LINE
  5
377
330
1F
100
AcDbEntity
  8
0
  6
Continuous
 62
     7
370
    15
100
AcDbLine
 10
277.372040839
 20
183.4220078589
 30
0.0
 11
277.372040839
 21
180.9220078589
 31
0.0
  0
LINE
  5
378
330
1F
100
AcDbEntity
  8
0
  6
Continuous
 62
     7
370
    15
100
AcDbLine
 10
262.372040839
 20
183.4220078589
 30
0.0
 11
277.372040839
 21
183.4220078589
 31
0.0
  0
LINE
  5
379
330
1F
100
AcDbEntity
  8
0
  6
Continuous
 62
     7
370
    15
100
AcDbLine
 10
262.372040839
 20
180.9220078589
 30
0.0
 11
262.372040839
 21
183.4220078589
 31
0.0
  0
LINE
  5
37A
330
1F
100
AcDbEntity
  8
0
  6
Continuous
 62
     7
370
    15
100
AcDbLine
 10
257.372040839
 20
180.9220078589
 30
0.0
 11
262.372040839
 21
180.9220078589
 31
0.0
  0
LINE
  5
37B
330
1F
100
AcDbEntity
  8
0
  6
Continuous
 62
     7
370
    15
100
AcDbLine
 10
257.372040839
 20
179.9220078589
 30
0.0
 11
257.372040839
 21
180.9220078589
 31
0.0
  0
LINE
  5
37C
330
1F
100
AcDbEntity
  8
0
  6
Continuous
 62
     7
370
    15
100
AcDbLine
 10
254.372040839
 20
179.9220078589
 30
0.0
 11
257.372040839
 21
179.9220078589
 31
0.0
  0
LINE
  5
37D
330
1F
100
AcDbEntity
  8
0
  6
Continuous
 62
     7
370
    15
100
AcDbLine
 10
254.372040839
 20
178.4220078589
 30
0.0
 11
254.372040839
 21
179.9220078589
 31
0.0
  0
LINE
  5
37E
330
1F
100
AcDbEntity
  8
0
  6
Continuous
 62
     7
370
    15
100
AcDbLine
 10
252.372040839
 20
178.4220078589
 30
0.0
 11
254.372040839
 21
178.4220078589
 31
0.0
  0
LINE
  5
37F
330
1F
100
AcDbEntity
  8
0
  6
Continuous
 62
     7
370
    15
100
AcDbLine
 10
252.372040839
 20
182.4220078589
 30
0.0
 11
252.372040839
 21
178.4220078589
 31
0.0
  0
LINE
  5
380
330
1F
100
AcDbEntity
  8
0
  6
Continuous
 62
     7
370
    15
100
AcDbLine
 10
253.872040839
 20
182.4220078589
 30
0.0
 11
252.372040839
 21
182.4220078589
 31
0.0
  0
LINE
  5
381
330
1F
100
AcDbEntity
  8
0
  6
Continuous
 62
     7
370
    15
100
AcDbLine
 10
253.872040839
 20
184.9220078589
 30
0.0
 11
253.872040839
 21
182.4220078589
 31
0.0
  0
LINE
  5
382
330
1F
100
AcDbEntity
  8
0
  6
Continuous
 62
     7
370
    15
100
AcDbLine
 10
252.372040839
 20
184.9220078589
 30
0.0
 11
253.872040839
 21
184.9220078589
 31
0.0
  0
LINE
  5
383
330
1F
100
AcDbEntity
  8
0
  6
Continuous
 62
     7
370
    15
100
AcDbLine
 10
252.372040839
 20
188.4220078589
 30
0.0
 11
252.372040839
 21
184.9220078589
 31
0.0
  0
LINE
  5
384
330
1F
100
AcDbEntity
  8
0
  6
Continuous
 62
     7
370
    15
100
AcDbLine
 10
249.372040839
 20
188.4220078589
 30
0.0
 11
252.372040839
 21
188.4220078589
 31
0.0
  0
LINE
  5
385
330
1F
100
AcDbEntity
  8
0
  6
Continuous
 62
     7
370
    15
100
AcDbLine
 10
249.372040839
 20
184.9220078589
 30
0.0
 11
249.372040839
 21
188.4220078589
 31
0.0
  0
LINE
  5
386
330
1F
100
AcDbEntity
  8
0
  6
Continuous
 62
     7
370
    15
100
AcDbLine
 10
247.872040839
 20
184.9220078589
 30
0.0
 11
249.372040839
 21
184.9220078589
 31
0.0
  0
LINE
  5
387
330
1F
100
AcDbEntity
  8
0
  6
Continuous
 62
     7
370
    15
100
AcDbLine
 10
247.872040839
 20
182.4220078589
 30
0.0
 11
247.872040839
 21
184.9220078589
 31
0.0
  0
LINE
  5
388
330
1F
100
AcDbEntity
  8
0
  6
Continuous
 62
     7
370
    15
100
AcDbLine
 10
249.372040839
 20
182.4220078589
 30
0.0
 11
247.872040839
 21
182.4220078589
 31
0.0
  0
LINE
  5
389
330
1F
100
AcDbEntity
  8
0
  6
Continuous
 62
     7
370
    15
100
AcDbLine
 10
249.372040839
 20
178.4220078589
 30
0.0
 11
249.372040839
 21
182.4220078589
 31
0.0
  0
LINE
  5
38A
330
1F
100
AcDbEntity
  8
0
  6
Continuous
 62
     7
370
    15
100
AcDbLine
 10
245.872040839
 20
178.4220078589
 30
0.0
 11
249.372040839
 21
178.4220078589
 31
0.0
  0
LINE
  5
38B
330
1F
100
AcDbEntity
  8
0
  6
Continuous
 62
     7
370
    15
100
AcDbLine
 10
245.872040839
 20
179.9220078589
 30
0.0
 11
245.872040839
 21
178.4220078589
 31
0.0
  0
LINE
  5
38C
330
1F
100
AcDbEntity
  8
0
  6
Continuous
 62
     7
370
    15
100
AcDbLine
 10
242.872040839
 20
179.9220078589
 30
0.0
 11
245.872040839
 21
179.9220078589
 31
0.0
  0
LINE
  5
38D
330
1F
100
AcDbEntity
  8
0
  6
Continuous
 62
     7
370
    15
100
AcDbLine
 10
242.872040839
 20
189.9220078589
 30
0.0
 11
242.872040839
 21
179.9220078589
 31
0.0
  0
LINE
  5
38E
330
1F
100
AcDbEntity
  8
0
  6
Continuous
 62
     7
370
    15
100
AcDbLine
 10
245.872040839
 20
189.9220078589
 30
0.0
 11
242.872040839
 21
189.9220078589
 31
0.0
  0
LINE
  5
38F
330
1F
100
AcDbEntity
  8
0
  6
Continuous
 62
     7
370
    15
100
AcDbLine
 10
245.872040839
 20
193.9220078589
 30
0.0
 11
245.872040839
 21
189.9220078589
 31
0.0
  0
LINE
  5
390
330
1F
100
AcDbEntity
  8
0
  6
Continuous
 62
     7
370
    15
100
AcDbLine
 10
272.8920181514
 20
201.8894370664
 30
0.0
 11
245.872040839
 21
193.9220078589
 31
0.0
  0
ARC
  5
391
330
1F
100
AcDbEntity
  8
0
  6
Continuous
 62
     7
370
    15
100
AcDbCircle
 10
270.0636979555
 20
211.481131644
 30
0.0
 40
10.00000000000006
100
AcDbArc
 50
286.4293014515
 51
337.747113998
  0
ARC
  5
392
330
1F
100
AcDbEntity
  8
0
  6
Continuous
 62
     7
370
    15
100
AcDbCircle
 10
284.872040839
 20
205.4220078589
 30
0.0
 40
5.999999999999963
100
AcDbArc
 50
14.015518412
 51
157.747113998
  0
LINE
  5
393
330
1F
100
AcDbEntity
  8
0
  6
Continuous
 62
     7
370
    15
100
AcDbLine
 10
293.872040839
 20
194.1410655553
 30
0.0
 11
290.6934218397
 21
206.8751159916
 31
0.0
  0
LINE
  5
394
330
1F
100
AcDbEntity
  8
0
  6
Continuous
 62
     7
370
    15
100
AcDbLine
 10
293.872040839
 20
189.9220078589
 30
0.0
 11
293.872040839
 21
194.1410655553
 31
0.0
  0
LINE
  5
395
330
1F
100
AcDbEntity
  8
0
  6
Continuous
 62
     7
370
    15
100
AcDbLine
 10
296.872040839
 20
189.9220078589
 30
0.0
 11
293.872040839
 21
189.9220078589
 31
0.0
  0
LINE
  5
396
330
1F
100
AcDbEntity
  8
0
  6
Continuous
 62
     7
370
    15
100
AcDbLine
 10
296.872040839
 20
179.9220078589
 30
0.0
 11
296.872040839
 21
189.9220078589
 31
0.0
  0
ARC
  5
397
330
1F
100
AcDbEntity
  8
0
  6
Continuous
 62
     7
370
    15
100
AcDbCircle
 10
88.8884767329
 20
175.2364245249
 30
0.0
 40
1.099999999999994
100
AcDbArc
 50
270.0
 51
90.0
  0
LINE
  5
398
330
1F
100
AcDbEntity
  8
0
  6
Continuous
 62
     7
370
    15
100
AcDbLine
 10
88.8884767329
 20
176.3364245249
 30
0.0
 11
84.0348821369
 21
176.3364245249
 31
0.0
  0
ARC
  5
399
330
1F
100
AcDbEntity
  8
0
  6
Continuous
 62
     7
370
    15
100
AcDbCircle
 10
84.0348821369
 20
175.2364245249
 30
0.0
 40
1.099999999999994
100
AcDbArc
 50
90.0
 51
270.0
  0
LINE
  5
39A
330
1F
100
AcDbEntity
  8
0
  6
Continuous
 62
     7
370
    15
100
AcDbLine
 10
84.0348821369
 20
174.1364245249
 30
0.0
 11
88.8884767329
 21
174.1364245249
 31
0.0
  0
CIRCLE
  5
39B
330
1F
100
AcDbEntity
  8
0
  6
Continuous
 62
     7
370
    15
100
AcDbCircle
 10
95.968855047
 20
175.2364245249
 30
0.0
 40
1.349999999999994
  0
LINE
  5
39C
330
1F
100
AcDbEntity
  8
0
  6
Continuous
 62
     7
370
    15
100
AcDbLine
 10
80.0158636932
 20
172.2334839814
 30
0.0
 11
95.968855047
 21
172.2364245249
 31
0.0
  0
ARC
  5
39D
330
1F
100
AcDbEntity
  8
0
  6
Continuous
 62
     7
370
    15
100
AcDbCircle
 10
80.0164166697
 20
169.2334840324
 30
0.0
 40
2.999999999999998
100
AcDbArc
 50
90.0105610744
 51
135.0711383889
  0
ARC
  5
39E
330
1F
100
AcDbEntity
  8
0
  6
Continuous
 62
     7
370
    15
100
AcDbCircle
 10
73.9985511475
 20
175.2364245249
 30
0.0
 40
5.500000000000009
100
AcDbArc
 50
44.8725910874
 51
315.0711383889
  0
ARC
  5
39F
330
1F
100
AcDbEntity
  8
0
  6
Continuous
 62
     7
370
    15
100
AcDbCircle
 10
80.0223092899
 20
181.233451942
 30
0.0
 40
3.000000000000019
100
AcDbArc
 50
224.8725910874
 51
269.8845735075
  0
LINE
  5
3A0
330
1F
100
AcDbEntity
  8
0
  6
Continuous
 62
     7
370
    15
100
AcDbLine
 10
95.5171953944
 20
178.2022302431
 30
0.0
 11
80.016265577
 21
178.2334580298
 31
0.0
  0
ARC
  5
3A1
330
1F
100
AcDbEntity
  8
0
  6
Continuous
 62
     7
370
    15
100
AcDbCircle
 10
95.968855047
 20
175.2364245249
 30
0.0
 40
3.000000000000009
100
AcDbArc
 50
270.0
 51
98.6589876748
  0
CIRCLE
  5
3A2
330
1F
100
AcDbEntity
  8
0
  6
Continuous
 62
     7
370
    15
100
AcDbCircle
 10
73.9985511475
 20
175.2364245249
 30
0.0
 40
3.750000000000014
  0
CIRCLE
  5
3A3
330
1F
100
AcDbEntity
  8
0
  6
Continuous
 62
     7
370
    15
100
AcDbCircle
 10
111.6754260744
 20
164.0612801289
 30
0.0
 40
3.450000000000003
  0
CIRCLE
  5
3A4
330
1F
100
AcDbEntity
  8
0
  6
Continuous
 62
     7
370
    15
100
AcDbCircle
 10
111.6754260744
 20
164.0612801289
 30
0.0
 40
3.750000000000014
  0
CIRCLE
  5
3A5
330
1F
100
AcDbEntity
  8
0
  6
Continuous
 62
     7
370
    15
100
AcDbCircle
 10
111.6754260744
 20
164.0612801289
 30
0.0
 40
2.275000000000006
  0
CIRCLE
  5
3A6
330
1F
100
AcDbEntity
  8
0
  6
Continuous
 62
     7
370
    15
100
AcDbCircle
 10
111.6754260744
 20
164.0612801289
 30
0.0
 40
0.75
  0
ARC
  5
3A7
330
1F
100
AcDbEntity
  8
0
  6
Continuous
 62
     7
370
    15
100
AcDbCircle
 10
111.6754260744
 20
179.0612801289
 30
0.0
 40
2.250000000000001
100
AcDbArc
 50
5.7391704773
 51
174.2608295227
  0
CIRCLE
  5
3A8
330
1F
100
AcDbEntity
  8
0
  6
Continuous
 62
     7
370
    15
100
AcDbCircle
 10
111.6754260744
 20
168.7335095824
 30
0.0
 40
0.75
  0
CIRCLE
  5
3A9
330
1F
100
AcDbEntity
  8
0
  6
Continuous
 62
     7
370
    15
100
AcDbCircle
 10
111.6754260744
 20
170.7335095824
 30
0.0
 40
0.7499999999999858
  0
CIRCLE
  5
3AA
330
1F
100
AcDbEntity
  8
0
  6
Continuous
 62
     7
370
    15
100
AcDbCircle
 10
111.6754260744
 20
172.7335095824
 30
0.0
 40
0.75
  0
CIRCLE
  5
3AB
330
1F
100
AcDbEntity
  8
0
  6
Continuous
 62
     7
370
    15
100
AcDbCircle
 10
111.6754260744
 20
174.7335095824
 30
0.0
 40
0.7499999999999858
  0
CIRCLE
  5
3AC
330
1F
100
AcDbEntity
  8
0
  6
Continuous
 62
     7
370
    15
100
AcDbCircle
 10
111.6754260744
 20
176.7335095824
 30
0.0
 40
0.75
  0
CIRCLE
  5
3AD
330
1F
100
AcDbEntity
  8
0
  6
Continuous
 62
     7
370
    15
100
AcDbCircle
 10
111.6754260744
 20
178.7335095824
 30
0.0
 40
0.7499999999999858
  0
LINE
  5
3AE
330
1F
100
AcDbEntity
  8
0
  6
Continuous
 62
     7
370
    15
100
AcDbLine
 10
115.4066289636
 20
164.4362801289
 30
0.0
 11
113.9141478079
 21
179.2862801289
 31
0.0
  0
LINE
  5
3AF
330
1F
100
AcDbEntity
  8
0
  6
Continuous
 62
     7
370
    15
100
AcDbLine
 10
109.4367043409
 20
179.2862801289
 30
0.0
 11
107.9442231853
 21
164.4362801289
 31
0.0
  0
CIRCLE
  5
3B0
330
1F
100
AcDbEntity
  8
0
  6
Continuous
 62
     7
370
    15
100
AcDbCircle
 10
151.9851784556
 20
124.4210309279
 30
0.0
 40
1.5
  0
CIRCLE
  5
3B1
330
1F
100
AcDbEntity
  8
0
  6
Continuous
 62
     7
370
    15
100
AcDbCircle
 10
148.9851784556
 20
132.3720248056
 30
0.0
 40
1.5
  0
CIRCLE
  5
3B2
330
1F
100
AcDbEntity
  8
0
  6
Continuous
 62
     7
370
    15
100
AcDbCircle
 10
141.9851784556
 20
143.3720248056
 30
0.0
 40
1.5
  0
CIRCLE
  5
3B3
330
1F
100
AcDbEntity
  8
0
  6
Continuous
 62
     7
370
    15
100
AcDbCircle
 10
148.9851784556
 20
143.3720248056
 30
0.0
 40
3.75
  0
LINE
  5
3B4
330
1F
100
AcDbEntity
  8
0
  6
Continuous
 62
     7
370
    15
100
AcDbLine
 10
173.9851784556
 20
165.9210309279
 30
0.0
 11
123.9851784556
 21
165.9210309279
 31
0.0
  0
LINE
  5
3B5
330
1F
100
AcDbEntity
  8
0
  6
Continuous
 62
     7
370
    15
100
AcDbLine
 10
173.9851784556
 20
155.9210309279
 30
0.0
 11
173.9851784556
 21
165.9210309279
 31
0.0
  0
LINE
  5
3B6
330
1F
100
AcDbEntity
  8
0
  6
Continuous
 62
     7
370
    15
100
AcDbLine
 10
170.9851784556
 20
155.9210309279
 30
0.0
 11
173.9851784556
 21
155.9210309279
 31
0.0
  0
LINE
  5
3B7
330
1F
100
AcDbEntity
  8
0
  6
Continuous
 62
     7
370
    15
100
AcDbLine
 10
170.9851784556
 20
144.9210309279
 30
0.0
 11
170.9851784556
 21
155.9210309279
 31
0.0
  0
LINE
  5
3B8
330
1F
100
AcDbEntity
  8
0
  6
Continuous
 62
     7
370
    15
100
AcDbLine
 10
166.9851784556
 20
144.9210309279
 30
0.0
 11
170.9851784556
 21
144.9210309279
 31
0.0
  0
LINE
  5
3B9
330
1F
100
AcDbEntity
  8
0
  6
Continuous
 62
     7
370
    15
100
AcDbLine
 10
166.9851784556
 20
146.4210309279
 30
0.0
 11
166.9851784556
 21
144.9210309279
 31
0.0
  0
LINE
  5
3BA
330
1F
100
AcDbEntity
  8
0
  6
Continuous
 62
     7
370
    15
100
AcDbLine
 10
164.4851784556
 20
146.4210309279
 30
0.0
 11
166.9851784556
 21
146.4210309279
 31
0.0
  0
LINE
  5
3BB
330
1F
100
AcDbEntity
  8
0
  6
Continuous
 62
     7
370
    15
100
AcDbLine
 10
164.4851784556
 20
144.9210309279
 30
0.0
 11
164.4851784556
 21
146.4210309279
 31
0.0
  0
LINE
  5
3BC
330
1F
100
AcDbEntity
  8
0
  6
Continuous
 62
     7
370
    15
100
AcDbLine
 10
160.9851784556
 20
144.9210309279
 30
0.0
 11
164.4851784556
 21
144.9210309279
 31
0.0
  0
LINE
  5
3BD
330
1F
100
AcDbEntity
  8
0
  6
Continuous
 62
     7
370
    15
100
AcDbLine
 10
160.9851784556
 20
141.9210309279
 30
0.0
 11
160.9851784556
 21
144.9210309279
 31
0.0
  0
LINE
  5
3BE
330
1F
100
AcDbEntity
  8
0
  6
Continuous
 62
     7
370
    15
100
AcDbLine
 10
164.4851784556
 20
141.9210309279
 30
0.0
 11
160.9851784556
 21
141.9210309279
 31
0.0
  0
LINE
  5
3BF
330
1F
100
AcDbEntity
  8
0
  6
Continuous
 62
     7
370
    15
100
AcDbLine
 10
164.4851784556
 20
140.4210309279
 30
0.0
 11
164.4851784556
 21
141.9210309279
 31
0.0
  0
LINE
  5
3C0
330
1F
100
AcDbEntity
  8
0
  6
Continuous
 62
     7
370
    15
100
AcDbLine
 10
166.9851784556
 20
140.4210309279
 30
0.0
 11
164.4851784556
 21
140.4210309279
 31
0.0
  0
LINE
  5
3C1
330
1F
100
AcDbEntity
  8
0
  6
Continuous
 62
     7
370
    15
100
AcDbLine
 10
166.9851784556
 20
141.9210309279
 30
0.0
 11
166.9851784556
 21
140.4210309279
 31
0.0
  0
LINE
  5
3C2
330
1F
100
AcDbEntity
  8
0
  6
Continuous
 62
     7
370
    15
100
AcDbLine
 10
170.9851784556
 20
141.9210309279
 30
0.0
 11
166.9851784556
 21
141.9210309279
 31
0.0
  0
LINE
  5
3C3
330
1F
100
AcDbEntity
  8
0
  6
Continuous
 62
     7
370
    15
100
AcDbLine
 10
170.9851784556
 20
130.9210309279
 30
0.0
 11
170.9851784556
 21
141.9210309279
 31
0.0
  0
LINE
  5
3C4
330
1F
100
AcDbEntity
  8
0
  6
Continuous
 62
     7
370
    15
100
AcDbLine
 10
173.9851784556
 20
130.9210309279
 30
0.0
 11
170.9851784556
 21
130.9210309279
 31
0.0
  0
LINE
  5
3C5
330
1F
100
AcDbEntity
  8
0
  6
Continuous
 62
     7
370
    15
100
AcDbLine
 10
173.9851784556
 20
120.9210309279
 30
0.0
 11
173.9851784556
 21
130.9210309279
 31
0.0
  0
LINE
  5
3C6
330
1F
100
AcDbEntity
  8
0
  6
Continuous
 62
     7
370
    15
100
AcDbLine
 10
123.9851784556
 20
120.9210309279
 30
0.0
 11
173.9851784556
 21
120.9210309279
 31
0.0
  0
LINE
  5
3C7
330
1F
100
AcDbEntity
  8
0
  6
Continuous
 62
     7
370
    15
100
AcDbLine
 10
123.9851784556
 20
130.9210309279
 30
0.0
 11
123.9851784556
 21
120.9210309279
 31
0.0
  0
LINE
  5
3C8
330
1F
100
AcDbEntity
  8
0
  6
Continuous
 62
     7
370
    15
100
AcDbLine
 10
126.9851784556
 20
130.9210309279
 30
0.0
 11
123.9851784556
 21
130.9210309279
 31
0.0
  0
LINE
  5
3C9
330
1F
100
AcDbEntity
  8
0
  6
Continuous
 62
     7
370
    15
100
AcDbLine
 10
126.9851784556
 20
141.9210309279
 30
0.0
 11
126.9851784556
 21
130.9210309279
 31
0.0
  0
LINE
  5
3CA
330
1F
100
AcDbEntity
  8
0
  6
Continuous
 62
     7
370
    15
100
AcDbLine
 10
130.9851784556
 20
141.9210309279
 30
0.0
 11
126.9851784556
 21
141.9210309279
 31
0.0
  0
LINE
  5
3CB
330
1F
100
AcDbEntity
  8
0
  6
Continuous
 62
     7
370
    15
100
AcDbLine
 10
130.9851784556
 20
140.4210309279
 30
0.0
 11
130.9851784556
 21
141.9210309279
 31
0.0
  0
LINE
  5
3CC
330
1F
100
AcDbEntity
  8
0
  6
Continuous
 62
     7
370
    15
100
AcDbLine
 10
133.4851784556
 20
140.4210309279
 30
0.0
 11
130.9851784556
 21
140.4210309279
 31
0.0
  0
LINE
  5
3CD
330
1F
100
AcDbEntity
  8
0
  6
Continuous
 62
     7
370
    15
100
AcDbLine
 10
133.4851784556
 20
141.9210309279
 30
0.0
 11
133.4851784556
 21
140.4210309279
 31
0.0
  0
LINE
  5
3CE
330
1F
100
AcDbEntity
  8
0
  6
Continuous
 62
     7
370
    15
100
AcDbLine
 10
136.9851784556
 20
141.9210309279
 30
0.0
 11
133.4851784556
 21
141.9210309279
 31
0.0
  0
LINE
  5
3CF
330
1F
100
AcDbEntity
  8
0
  6
Continuous
 62
     7
370
    15
100
AcDbLine
 10
136.9851784556
 20
144.9210309279
 30
0.0
 11
136.9851784556
 21
141.9210309279
 31
0.0
  0
LINE
  5
3D0
330
1F
100
AcDbEntity
  8
0
  6
Continuous
 62
     7
370
    15
100
AcDbLine
 10
133.4851784556
 20
144.9210309279
 30
0.0
 11
136.9851784556
 21
144.9210309279
 31
0.0
  0
LINE
  5
3D1
330
1F
100
AcDbEntity
  8
0
  6
Continuous
 62
     7
370
    15
100
AcDbLine
 10
133.4851784556
 20
146.4210309279
 30
0.0
 11
133.4851784556
 21
144.9210309279
 31
0.0
  0
LINE
  5
3D2
330
1F
100
AcDbEntity
  8
0
  6
Continuous
 62
     7
370
    15
100
AcDbLine
 10
130.9851784556
 20
146.4210309279
 30
0.0
 11
133.4851784556
 21
146.4210309279
 31
0.0
  0
LINE
  5
3D3
330
1F
100
AcDbEntity
  8
0
  6
Continuous
 62
     7
370
    15
100
AcDbLine
 10
130.9851784556
 20
144.9210309279
 30
0.0
 11
130.9851784556
 21
146.4210309279
 31
0.0
  0
LINE
  5
3D4
330
1F
100
AcDbEntity
  8
0
  6
Continuous
 62
     7
370
    15
100
AcDbLine
 10
126.9851784556
 20
144.9210309279
 30
0.0
 11
130.9851784556
 21
144.9210309279
 31
0.0
  0
LINE
  5
3D5
330
1F
100
AcDbEntity
  8
0
  6
Continuous
 62
     7
370
    15
100
AcDbLine
 10
126.9851784556
 20
155.9210309279
 30
0.0
 11
126.9851784556
 21
144.9210309279
 31
0.0
  0
LINE
  5
3D6
330
1F
100
AcDbEntity
  8
0
  6
Continuous
 62
     7
370
    15
100
AcDbLine
 10
123.9851784556
 20
155.9210309279
 30
0.0
 11
126.9851784556
 21
155.9210309279
 31
0.0
  0
LINE
  5
3D7
330
1F
100
AcDbEntity
  8
0
  6
Continuous
 62
     7
370
    15
100
AcDbLine
 10
123.9851784556
 20
165.9210309279
 30
0.0
 11
123.9851784556
 21
155.9210309279
 31
0.0
  0
CIRCLE
  5
3D8
330
1F
100
AcDbEntity
  8
0
  6
Continuous
 62
     7
370
    15
100
AcDbCircle
 10
155.9851784556
 20
143.3720248056
 30
0.0
 40
1.5
  0
CIRCLE
  5
3D9
330
1F
100
AcDbEntity
  8
0
  6
Continuous
 62
     7
370
    15
100
AcDbCircle
 10
148.9851784556
 20
154.3720248056
 30
0.0
 40
1.5
  0
CIRCLE
  5
3DA
330
1F
100
AcDbEntity
  8
0
  6
Continuous
 62
     7
370
    15
100
AcDbCircle
 10
151.9851784556
 20
162.4210309279
 30
0.0
 40
1.5
  0
CIRCLE
  5
3DB
330
1F
100
AcDbEntity
  8
0
  6
Continuous
 62
     7
370
    15
100
AcDbCircle
 10
244.0730462771
 20
165.4210309279
 30
0.0
 40
1.5
  0
CIRCLE
  5
3DC
330
1F
100
AcDbEntity
  8
0
  6
Continuous
 62
     7
370
    15
100
AcDbCircle
 10
200.0730462771
 20
121.4210309279
 30
0.0
 40
1.5
  0
CIRCLE
  5
3DD
330
1F
100
AcDbEntity
  8
0
  6
Continuous
 62
     7
370
    15
100
AcDbCircle
 10
222.0730462771
 20
133.9210309279
 30
0.0
 40
1.5
  0
LINE
  5
3DE
330
1F
100
AcDbEntity
  8
0
  6
Continuous
 62
     7
370
    15
100
AcDbLine
 10
210.5730462771
 20
149.3210309279
 30
0.0
 11
210.5730462771
 21
137.5210309279
 31
0.0
  0
LINE
  5
3DF
330
1F
100
AcDbEntity
  8
0
  6
Continuous
 62
     7
370
    15
100
AcDbLine
 10
210.5730462771
 20
137.5210309279
 30
0.0
 11
233.5730462771
 21
137.5210309279
 31
0.0
  0
LINE
  5
3E0
330
1F
100
AcDbEntity
  8
0
  6
Continuous
 62
     7
370
    15
100
AcDbLine
 10
233.5730462771
 20
137.5210309279
 30
0.0
 11
233.5730462771
 21
149.3210309279
 31
0.0
  0
LINE
  5
3E1
330
1F
100
AcDbEntity
  8
0
  6
Continuous
 62
     7
370
    15
100
AcDbLine
 10
233.5730462771
 20
149.3210309279
 30
0.0
 11
210.5730462771
 21
149.3210309279
 31
0.0
  0
LINE
  5
3E2
330
1F
100
AcDbEntity
  8
0
  6
Continuous
 62
     7
370
    15
100
AcDbLine
 10
197.0730462771
 20
165.4210309279
 30
0.0
 11
197.0730462771
 21
121.4210309279
 31
0.0
  0
ARC
  5
3E3
330
1F
100
AcDbEntity
  8
0
  6
Continuous
 62
     7
370
    15
100
AcDbCircle
 10
200.0730462771
 20
165.4210309279
 30
0.0
 40
3.0
100
AcDbArc
 50
90.0
 51
180.0
  0
LINE
  5
3E4
330
1F
100
AcDbEntity
  8
0
  6
Continuous
 62
     7
370
    15
100
AcDbLine
 10
244.0730462771
 20
168.4210309279
 30
0.0
 11
200.0730462771
 21
168.4210309279
 31
0.0
  0
ARC
  5
3E5
330
1F
100
AcDbEntity
  8
0
  6
Continuous
 62
     7
370
    15
100
AcDbCircle
 10
244.0730462771
 20
165.4210309279
 30
0.0
 40
3.0
100
AcDbArc
 50
0.0
 51
90.0
  0
LINE
  5
3E6
330
1F
100
AcDbEntity
  8
0
  6
Continuous
 62
     7
370
    15
100
AcDbLine
 10
247.0730462771
 20
121.4210309279
 30
0.0
 11
247.0730462771
 21
165.4210309279
 31
0.0
  0
ARC
  5
3E7
330
1F
100
AcDbEntity
  8
0
  6
Continuous
 62
     7
370
    15
100
AcDbCircle
 10
244.0730462771
 20
121.4210309279
 30
0.0
 40
3.0
100
AcDbArc
 50
270.0
 51
0.0
  0
LINE
  5
3E8
330
1F
100
AcDbEntity
  8
0
  6
Continuous
 62
     7
370
    15
100
AcDbLine
 10
200.0730462771
 20
118.4210309279
 30
0.0
 11
244.0730462771
 21
118.4210309279
 31
0.0
  0
ARC
  5
3E9
330
1F
100
AcDbEntity
  8
0
  6
Continuous
 62
     7
370
    15
100
AcDbCircle
 10
200.0730462771
 20
121.4210309279
 30
0.0
 40
3.0
100
AcDbArc
 50
180.0
 51
270.0
  0
CIRCLE
  5
3EA
330
1F
100
AcDbEntity
  8
0
  6
Continuous
 62
     7
370
    15
100
AcDbCircle
 10
222.0730462771
 20
152.9210309279
 30
0.0
 40
1.5
  0
CIRCLE
  5
3EB
330
1F
100
AcDbEntity
  8
0
  6
Continuous
 62
     7
370
    15
100
AcDbCircle
 10
200.0730462771
 20
165.4210309279
 30
0.0
 40
1.5
  0
CIRCLE
  5
3EC
330
1F
100
AcDbEntity
  8
0
  6
Continuous
 62
     7
370
    15
100
AcDbCircle
 10
244.0730462771
 20
121.4210309279
 30
0.0
 40
1.5
  0
CIRCLE
  5
3ED
330
1F
100
AcDbEntity
  8
0
  6
Continuous
 62
     7
370
    15
100
AcDbCircle
 10
85.7566747166
 20
134.3803644247
 30
0.0
 40
1.5
  0
LINE
  5
3EE
330
1F
100
AcDbEntity
  8
0
  6
Continuous
 62
     7
370
    15
100
AcDbLine
 10
97.2300240359
 20
141.3803644247
 30
0.0
 11
99.1702817096
 21
141.3803644247
 31
0.0
  0
LINE
  5
3EF
330
1F
100
AcDbEntity
  8
0
  6
Continuous
 62
     7
370
    15
100
AcDbLine
 10
99.1702817096
 20
141.3803644247
 30
0.0
 11
99.1702817096
 21
146.3803644247
 31
0.0
  0
LINE
  5
3F0
330
1F
100
AcDbEntity
  8
0
  6
Continuous
 62
     7
370
    15
100
AcDbLine
 10
99.1702817096
 20
146.3803644247
 30
0.0
 11
97.2300240359
 21
146.3803644247
 31
0.0
  0
LINE
  5
3F1
330
1F
100
AcDbEntity
  8
0
  6
Continuous
 62
     7
370
    15
100
AcDbLine
 10
97.2300240359
 20
146.3803644247
 30
0.0
 11
97.2300240359
 21
149.7803644247
 31
0.0
  0
LINE
  5
3F2
330
1F
100
AcDbEntity
  8
0
  6
Continuous
 62
     7
370
    15
100
AcDbLine
 10
97.2300240359
 20
149.7803644247
 30
0.0
 11
74.2300240359
 21
149.7803644247
 31
0.0
  0
LINE
  5
3F3
330
1F
100
AcDbEntity
  8
0
  6
Continuous
 62
     7
370
    15
100
AcDbLine
 10
74.2300240359
 20
149.7803644247
 30
0.0
 11
74.2300240359
 21
137.9803644247
 31
0.0
  0
LINE
  5
3F4
330
1F
100
AcDbEntity
  8
0
  6
Continuous
 62
     7
370
    15
100
AcDbLine
 10
74.2300240359
 20
137.9803644247
 30
0.0
 11
97.2300240359
 21
137.9803644247
 31
0.0
  0
LINE
  5
3F5
330
1F
100
AcDbEntity
  8
0
  6
Continuous
 62
     7
370
    15
100
AcDbLine
 10
97.2300240359
 20
137.9803644247
 30
0.0
 11
97.2300240359
 21
141.3803644247
 31
0.0
  0
LINE
  5
3F6
330
1F
100
AcDbEntity
  8
0
  6
Continuous
 62
     7
370
    15
100
AcDbLine
 10
92.7566747166
 20
156.3803644247
 30
0.0
 11
78.7566747166
 21
156.3803644247
 31
0.0
  0
ARC
  5
3F7
330
1F
100
AcDbEntity
  8
0
  6
Continuous
 62
     7
370
    15
100
AcDbCircle
 10
92.7566747166
 20
143.8803644247
 30
0.0
 40
12.50000000000003
100
AcDbArc
 50
270.0
 51
90.0
  0
LINE
  5
3F8
330
1F
100
AcDbEntity
  8
0
  6
Continuous
 62
     7
370
    15
100
AcDbLine
 10
78.7566747166
 20
131.3803644247
 30
0.0
 11
92.7566747166
 21
131.3803644247
 31
0.0
  0
ARC
  5
3F9
330
1F
100
AcDbEntity
  8
0
  6
Continuous
 62
     7
370
    15
100
AcDbCircle
 10
78.7566747166
 20
143.8803644247
 30
0.0
 40
12.50000000000003
100
AcDbArc
 50
90.0
 51
270.0
  0
CIRCLE
  5
3FA
330
1F
100
AcDbEntity
  8
0
  6
Continuous
 62
     7
370
    15
100
AcDbCircle
 10
85.7566747166
 20
153.3803644247
 30
0.0
 40
1.5
  0
CIRCLE
  5
3FB
330
1F
100
AcDbEntity
  8
0
  6
Continuous
 62
     7
370
    15
100
AcDbCircle
 10
65.5497223512
 20
30.4545854484
 30
0.0
 40
1.5
  0
CIRCLE
  5
3FC
330
1F
100
AcDbEntity
  8
0
  6
Continuous
 62
     7
370
    15
100
AcDbCircle
 10
108.6893084026
 20
81.1552097217
 30
0.0
 40
1.5
  0
LINE
  5
3FD
330
1F
100
AcDbEntity
  8
0
  6
Continuous
 62
     7
370
    15
100
AcDbLine
 10
154.9462302733
 20
29.0283650952
 30
0.0
 11
186.0589286455
 21
60.1410634675
 31
0.0
  0
ARC
  5
3FE
330
1F
100
AcDbEntity
  8
0
  6
Continuous
 62
     7
370
    15
100
AcDbCircle
 10
183.937608302
 20
62.262383811
 30
0.0
 40
3.000000000000014
100
AcDbArc
 50
315.0
 51
45.0
  0
LINE
  5
3FF
330
1F
100
AcDbEntity
  8
0
  6
Continuous
 62
     7
370
    15
100
AcDbLine
 10
186.0589286455
 20
64.3837041546
 30
0.0
 11
154.9462302733
 21
95.4964025268
 31
0.0
  0
ARC
  5
400
330
1F
100
AcDbEntity
  8
0
  6
Continuous
 62
     7
370
    15
100
AcDbCircle
 10
152.8249099298
 20
93.3750821832
 30
0.0
 40
3.000000000000014
100
AcDbArc
 50
45.0
 51
135.0
  0
LINE
  5
401
330
1F
100
AcDbEntity
  8
0
  6
Continuous
 62
     7
370
    15
100
AcDbLine
 10
150.7035895862
 20
95.4964025268
 30
0.0
 11
119.590891214
 21
64.3837041546
 31
0.0
  0
ARC
  5
402
330
1F
100
AcDbEntity
  8
0
  6
Continuous
 62
     7
370
    15
100
AcDbCircle
 10
121.7122115575
 20
62.262383811
 30
0.0
 40
3.000000000000019
100
AcDbArc
 50
135.0
 51
225.0
  0
LINE
  5
403
330
1F
100
AcDbEntity
  8
0
  6
Continuous
 62
     7
370
    15
100
AcDbLine
 10
119.590891214
 20
60.1410634675
 30
0.0
 11
150.7035895862
 21
29.0283650952
 31
0.0
  0
ARC
  5
404
330
1F
100
AcDbEntity
  8
0
  6
Continuous
 62
     7
370
    15
100
AcDbCircle
 10
152.8249099298
 20
31.1496854388
 30
0.0
 40
3.000000000000007
100
AcDbArc
 50
225.0
 51
315.0
  0
CIRCLE
  5
405
330
1F
100
AcDbEntity
  8
0
  6
Continuous
 62
     7
370
    15
100
AcDbCircle
 10
174.8265374264
 20
84.2640113076
 30
0.0
 40
1.499999999999574
  0
CIRCLE
  5
406
330
1F
100
AcDbEntity
  8
0
  6
Continuous
 62
     7
370
    15
100
AcDbCircle
 10
130.8232824331
 20
40.2607563144
 30
0.0
 40
1.49999999999946
  0
LINE
  5
407
330
1F
100
AcDbEntity
  8
0
  6
Continuous
 62
     7
370
    15
100
AcDbLine
 10
59.7974101908
 20
14.8712861279
 30
0.0
 11
184.7974101908
 21
14.8712861279
 31
0.0
  0
ARC
  5
408
330
1F
100
AcDbEntity
  8
0
  6
Continuous
 62
     7
370
    15
100
AcDbCircle
 10
59.7974101908
 20
24.8712861279
 30
0.0
 40
9.999999999999996
100
AcDbArc
 50
180.0
 51
270.0
  0
LINE
  5
409
330
1F
100
AcDbEntity
  8
0
  6
Continuous
 62
     7
370
    15
100
AcDbLine
 10
49.7974101908
 20
99.8712861279
 30
0.0
 11
49.7974101908
 21
24.8712861279
 31
0.0
  0
ARC
  5
40A
330
1F
100
AcDbEntity
  8
0
  6
Continuous
 62
     7
370
    15
100
AcDbCircle
 10
59.7974101908
 20
99.8712861279
 30
0.0
 40
10.00000000000004
100
AcDbArc
 50
90.0
 51
180.0
  0
LINE
  5
40B
330
1F
100
AcDbEntity
  8
0
  6
Continuous
 62
     7
370
    15
100
AcDbLine
 10
184.7974101908
 20
109.8712861279
 30
0.0
 11
59.7974101908
 21
109.8712861279
 31
0.0
  0
ARC
  5
40C
330
1F
100
AcDbEntity
  8
0
  6
Continuous
 62
     7
370
    15
100
AcDbCircle
 10
184.7974101908
 20
99.8712861279
 30
0.0
 40
10.0
100
AcDbArc
 50
0.0
 51
90.0
  0
LINE
  5
40D
330
1F
100
AcDbEntity
  8
0
  6
Continuous
 62
     7
370
    15
100
AcDbLine
 10
194.7974101908
 20
24.8712861279
 30
0.0
 11
194.7974101908
 21
99.8712861279
 31
0.0
  0
ARC
  5
40E
330
1F
100
AcDbEntity
  8
0
  6
Continuous
 62
     7
370
    15
100
AcDbCircle
 10
184.7974101908
 20
24.8712861279
 30
0.0
 40
10.0
100
AcDbArc
 50
270.0
 51
0.0
  0
CIRCLE
  5
40F
330
1F
100
AcDbEntity
  8
0
  6
Continuous
 62
     7
370
    15
100
AcDbCircle
 10
130.8232824331
 20
84.2640113076
 30
0.0
 40
1.499999999999375
  0
CIRCLE
  5
410
330
1F
100
AcDbEntity
  8
0
  6
Continuous
 62
     7
370
    15
100
AcDbCircle
 10
174.8265374264
 20
40.2607563144
 30
0.0
 40
1.499999999999488
  0
CIRCLE
  5
411
330
1F
100
AcDbEntity
  8
0
  6
Continuous
 62
     7
370
    15
100
AcDbCircle
 10
60.4697223512
 20
82.5245854484
 30
0.0
 40
1.5
  0
CIRCLE
  5
412
330
1F
100
AcDbEntity
  8
0
  6
Continuous
 62
     7
370
    15
100
AcDbCircle
 10
93.4852032217
 20
30.4545854484
 30
0.0
 40
1.5
  0
ENDSEC
  0
SECTION
  2
OBJECTS
  0
DICTIONARY
  5
C
330
0
100
AcDbDictionary
281
     1
  3
ACAD_GROUP
350
D
  3
ACAD_LAYOUT
350
1A
  3
ACAD_MLINESTYLE
350
17
  3
ACAD_PLOTSETTINGS
350
19
  3
ACAD_PLOTSTYLENAME
350
E
  3
ACAD_SCALELIST
350
47
  0
DICTIONARY
  5
D
102
{ACAD_REACTORS
330
C
102
}
330
C
100
AcDbDictionary
281
     1
  0
DICTIONARY
  5
1A
102
{ACAD_REACTORS
330
C
102
}
330
C
100
AcDbDictionary
281
     1
  3
Layout1
350
1E
  3
Layout2
350
26
  3
Model
350
22
  0
DICTIONARY
  5
17
102
{ACAD_REACTORS
330
C
102
}
330
C
100
AcDbDictionary
281
     1
  3
Standard
350
18
  0
DICTIONARY
  5
19
102
{ACAD_REACTORS
330
C
102
}
330
C
100
AcDbDictionary
281
     1
  0
ACDBDICTIONARYWDFLT
  5
E
102
{ACAD_REACTORS
330
C
102
}
330
C
100
AcDbDictionary
281
     1
  3
Normal
350
F
100
AcDbDictionaryWithDefault
340
F
  0
DICTIONARY
  5
47
102
{ACAD_REACTORS
330
C
102
}
330
C
100
AcDbDictionary
281
     1
  3
A0
350
48
  3
A1
350
49
  3
A2
350
4A
  3
A3
350
4B
  3
A4
350
4C
  3
A5
350
4D
  3
A6
350
4E
  3
A7
350
4F
  3
A8
350
50
  3
A9
350
51
  3
B0
350
52
  3
B1
350
53
  3
B2
350
54
  3
B3
350
55
  3
B4
350
56
  3
B5
350
57
  3
B6
350
58
  3
B7
350
59
  3
B8
350
5A
  3
B9
350
5B
  3
C0
350
5C
  3
C1
350
5D
  3
C2
350
5E
  3
C3
350
5F
  3
C4
350
60
  3
C5
350
61
  3
C6
350
62
  3
C7
350
63
  3
C8
350
64
  3
C9
350
65
  3
D0
350
66
  3
D1
350
67
  3
D2
350
68
  0
LAYOUT
  5
1E
102
{ACAD_REACTORS
330
1A
102
}
330
1A
100
AcDbPlotSettings
  1

  2
none_device
  4

  6

 40
0.0
 41
0.0
 42
0.0
 43
0.0
 44
0.0
 45
0.0
 46
0.0
 47
0.0
 48
0.0
 49
0.0
140
0.0
141
0.0
142
1.0
143
1.0
 70
   688
 72
     1
 73
     0
 74
     5
  7

 75
    16
147
1.0
148
0.0
149
0.0
100
AcDbLayout
  1
Layout1
 70
     1
 71
     1
 10
0.0
 20
0.0
 11
420.0
 21
297.0
 12
0.0
 22
0.0
 32
0.0
 14
1.0000000000E+20
 24
1.0000000000E+20
 34
1.0000000000E+20
 15
-1.0000000000E+20
 25
-1.0000000000E+20
 35
-1.0000000000E+20
146
0.0
 13
0.0
 23
0.0
 33
0.0
 16
1.0
 26
0.0
 36
0.0
 17
0.0
 27
1.0
 37
0.0
 76
     0
330
1B
  0
LAYOUT
  5
26
102
{ACAD_REACTORS
330
1A
102
}
330
1A
100
AcDbPlotSettings
  1

  2
none_device
  4

  6

 40
0.0
 41
0.0
 42
0.0
 43
0.0
 44
0.0
 45
0.0
 46
0.0
 47
0.0
 48
0.0
 49
0.0
140
0.0
141
0.0
142
1.0
143
1.0
 70
   688
 72
     1
 73
     0
 74
     5
  7

 75
    16
147
1.0
148
0.0
149
0.0
100
AcDbLayout
  1
Layout2
 70
     1
 71
     2
 10
0.0
 20
0.0
 11
0.0
 21
0.0
 12
0.0
 22
0.0
 32
0.0
 14
0.0
 24
0.0
 34
0.0
 15
0.0
 25
0.0
 35
0.0
146
0.0
 13
0.0
 23
0.0
 33
0.0
 16
1.0
 26
0.0
 36
0.0
 17
0.0
 27
1.0
 37
0.0
 76
     0
330
23
  0
LAYOUT
  5
22
102
{ACAD_REACTORS
330
1A
102
}
330
1A
100
AcDbPlotSettings
  1

  2
none_device
  4
Letter_(8.50_x_11.00_Inches)
  6

 40
6.35
 41
6.35
 42
6.35000508
 43
6.35000508
 44
215.9
 45
279.4
 46
0.0
 47
0.0
 48
0.0
 49
0.0
140
0.0
141
0.0
142
1.0
143
1.0
 70
  1712
 72
     1
 73
     0
 74
     0
  7

 75
     0
147
1.0
148
0.0
149
0.0
100
AcDbLayout
  1
Model
 70
     1
 71
     0
 10
0.0
 20
0.0
 11
594.0
 21
420.0
 12
0.0
 22
0.0
 32
0.0
 14
0.0
 24
0.0
 34
0.0
 15
594.0
 25
420.0
 35
0.0
146
0.0
 13
0.0
 23
0.0
 33
0.0
 16
1.0
 26
0.0
 36
0.0
 17
0.0
 27
1.0
 37
0.0
 76
     0
330
1F
331
29
  0
MLINESTYLE
  5
18
102
{ACAD_REACTORS
330
17
102
}
330
17
100
AcDbMlineStyle
  2
Standard
 70
     0
  3

 62
   256
 51
90.0
 52
90.0
 71
     2
 49
0.5
 62
   256
  6
BYLAYER
 49
-0.5
 62
   256
  6
BYLAYER
  0
ACDBPLACEHOLDER
  5
F
102
{ACAD_REACTORS
330
E
102
}
330
E
  0
SCALE
  5
48
102
{ACAD_REACTORS
330
47
102
}
330
47
100
AcDbScale
 70
     0
300
1:1
140
1.0
141
1.0
290
     1
  0
SCALE
  5
49
102
{ACAD_REACTORS
330
47
102
}
330
47
100
AcDbScale
 70
     0
300
1:2
140
1.0
141
2.0
290
     0
  0
SCALE
  5
4A
102
{ACAD_REACTORS
330
47
102
}
330
47
100
AcDbScale
 70
     0
300
1:4
140
1.0
141
4.0
290
     0
  0
SCALE
  5
4B
102
{ACAD_REACTORS
330
47
102
}
330
47
100
AcDbScale
 70
     0
300
1:5
140
1.0
141
5.0
290
     0
  0
SCALE
  5
4C
102
{ACAD_REACTORS
330
47
102
}
330
47
100
AcDbScale
 70
     0
300
1:8
140
1.0
141
8.0
290
     0
  0
SCALE
  5
4D
102
{ACAD_REACTORS
330
47
102
}
330
47
100
AcDbScale
 70
     0
300
1:10
140
1.0
141
10.0
290
     0
  0
SCALE
  5
4E
102
{ACAD_REACTORS
330
47
102
}
330
47
100
AcDbScale
 70
     0
300
1:16
140
1.0
141
16.0
290
     0
  0
SCALE
  5
4F
102
{ACAD_REACTORS
330
47
102
}
330
47
100
AcDbScale
 70
     0
300
1:20
140
1.0
141
20.0
290
     0
  0
SCALE
  5
50
102
{ACAD_REACTORS
330
47
102
}
330
47
100
AcDbScale
 70
     0
300
1:30
140
1.0
141
30.0
290
     0
  0
SCALE
  5
51
102
{ACAD_REACTORS
330
47
102
}
330
47
100
AcDbScale
 70
     0
300
1:40
140
1.0
141
40.0
290
     0
  0
SCALE
  5
52
102
{ACAD_REACTORS
330
47
102
}
330
47
100
AcDbScale
 70
     0
300
1:50
140
1.0
141
50.0
290
     0
  0
SCALE
  5
53
102
{ACAD_REACTORS
330
47
102
}
330
47
100
AcDbScale
 70
     0
300
1:100
140
1.0
141
100.0
290
     0
  0
SCALE
  5
54
102
{ACAD_REACTORS
330
47
102
}
330
47
100
AcDbScale
 70
     0
300
2:1
140
2.0
141
1.0
290
     0
  0
SCALE
  5
55
102
{ACAD_REACTORS
330
47
102
}
330
47
100
AcDbScale
 70
     0
300
4:1
140
4.0
141
1.0
290
     0
  0
SCALE
  5
56
102
{ACAD_REACTORS
330
47
102
}
330
47
100
AcDbScale
 70
     0
300
8:1
140
8.0
141
1.0
290
     0
  0
SCALE
  5
57
102
{ACAD_REACTORS
330
47
102
}
330
47
100
AcDbScale
 70
     0
300
10:1
140
10.0
141
1.0
290
     0
  0
SCALE
  5
58
102
{ACAD_REACTORS
330
47
102
}
330
47
100
AcDbScale
 70
     0
300
100:1
140
100.0
141
1.0
290
     0
  0
SCALE
  5
59
102
{ACAD_REACTORS
330
47
102
}
330
47
100
AcDbScale
 70
     0
300
1/128" = 1'-0"
140
0.0078125
141
12.0
290
     0
  0
SCALE
  5
5A
102
{ACAD_REACTORS
330
47
102
}
330
47
100
AcDbScale
 70
     0
300
1/64" = 1'-0"
140
0.015625
141
12.0
290
     0
  0
SCALE
  5
5B
102
{ACAD_REACTORS
330
47
102
}
330
47
100
AcDbScale
 70
     0
300
1/32" = 1'-0"
140
0.03125
141
12.0
290
     0
  0
SCALE
  5
5C
102
{ACAD_REACTORS
330
47
102
}
330
47
100
AcDbScale
 70
     0
300
1/16" = 1'-0"
140
0.0625
141
12.0
290
     0
  0
SCALE
  5
5D
102
{ACAD_REACTORS
330
47
102
}
330
47
100
AcDbScale
 70
     0
300
3/32" = 1'-0"
140
0.09375
141
12.0
290
     0
  0
SCALE
  5
5E
102
{ACAD_REACTORS
330
47
102
}
330
47
100
AcDbScale
 70
     0
300
1/8" = 1'-0"
140
0.125
141
12.0
290
     0
  0
SCALE
  5
5F
102
{ACAD_REACTORS
330
47
102
}
330
47
100
AcDbScale
 70
     0
300
3/16" = 1'-0"
140
0.1875
141
12.0
290
     0
  0
SCALE
  5
60
102
{ACAD_REACTORS
330
47
102
}
330
47
100
AcDbScale
 70
     0
300
1/4" = 1'-0"
140
0.25
141
12.0
290
     0
  0
SCALE
  5
61
102
{ACAD_REACTORS
330
47
102
}
330
47
100
AcDbScale
 70
     0
300
3/8" = 1'-0"
140
0.375
141
12.0
290
     0
  0
SCALE
  5
62
102
{ACAD_REACTORS
330
47
102
}
330
47
100
AcDbScale
 70
     0
300
1/2" = 1'-0"
140
0.5
141
12.0
290
     0
  0
SCALE
  5
63
102
{ACAD_REACTORS
330
47
102
}
330
47
100
AcDbScale
 70
     0
300
3/4" = 1'-0"
140
0.75
141
12.0
290
     0
  0
SCALE
  5
64
102
{ACAD_REACTORS
330
47
102
}
330
47
100
AcDbScale
 70
     0
300
1" = 1'-0"
140
1.0
141
12.0
290
     0
  0
SCALE
  5
65
102
{ACAD_REACTORS
330
47
102
}
330
47
100
AcDbScale
 70
     0
300
1-1/2" = 1'-0"
140
1.5
141
12.0
290
     0
  0
SCALE
  5
66
102
{ACAD_REACTORS
330
47
102
}
330
47
100
AcDbScale
 70
     0
300
3" = 1'-0"
140
3.0
141
12.0
290
     0
  0
SCALE
  5
67
102
{ACAD_REACTORS
330
47
102
}
330
47
100
AcDbScale
 70
     0
300
6" = 1'-0"
140
6.0
141
12.0
290
     0
  0
SCALE
  5
68
102
{ACAD_REACTORS
330
47
102
}
330
47
100
AcDbScale
 70
     0
300
1'-0" = 1'-0"
140
12.0
141
12.0
290
     0
  0
ENDSEC
  0
EOF
